<?xml version="1.0" encoding="utf-8" standalone="no"?>
<!DOCTYPE svg PUBLIC "-//W3C//DTD SVG 1.1//EN"
  "http://www.w3.org/Graphics/SVG/1.1/DTD/svg11.dtd">
<!-- Created with matplotlib (https://matplotlib.org/) -->
<svg height="360pt" version="1.1" viewBox="0 0 1152 360" width="1152pt" xmlns="http://www.w3.org/2000/svg" xmlns:xlink="http://www.w3.org/1999/xlink">
 <metadata>
  <rdf:RDF xmlns:cc="http://creativecommons.org/ns#" xmlns:dc="http://purl.org/dc/elements/1.1/" xmlns:rdf="http://www.w3.org/1999/02/22-rdf-syntax-ns#">
   <cc:Work>
    <dc:type rdf:resource="http://purl.org/dc/dcmitype/StillImage"/>
    <dc:date>2021-04-23T11:08:07.994542</dc:date>
    <dc:format>image/svg+xml</dc:format>
    <dc:creator>
     <cc:Agent>
      <dc:title>Matplotlib v3.3.2, https://matplotlib.org/</dc:title>
     </cc:Agent>
    </dc:creator>
   </cc:Work>
  </rdf:RDF>
 </metadata>
 <defs>
  <style type="text/css">*{stroke-linecap:butt;stroke-linejoin:round;}</style>
 </defs>
 <g id="figure_1">
  <g id="patch_1">
   <path d="M 0 360 
L 1152 360 
L 1152 0 
L 0 0 
z
" style="fill:none;"/>
  </g>
  <g id="axes_1">
   <g id="patch_2">
    <path d="M 53.8 332.2 
L 301.792816 332.2 
L 301.792816 26.8 
L 53.8 26.8 
z
" style="fill:#ffffff;"/>
   </g>
   <g id="patch_3">
    <path clip-path="url(#p8cdd043f4e)" d="M 65.072401 332.2 
L 66.276395 332.2 
L 66.276395 323.670465 
L 65.072401 323.670465 
z
" style="fill:#1f77b4;"/>
   </g>
   <g id="patch_4">
    <path clip-path="url(#p8cdd043f4e)" d="M 66.577394 332.2 
L 67.781389 332.2 
L 67.781389 323.670465 
L 66.577394 323.670465 
z
" style="fill:#1f77b4;"/>
   </g>
   <g id="patch_5">
    <path clip-path="url(#p8cdd043f4e)" d="M 68.082388 332.2 
L 69.286382 332.2 
L 69.286382 323.670465 
L 68.082388 323.670465 
z
" style="fill:#1f77b4;"/>
   </g>
   <g id="patch_6">
    <path clip-path="url(#p8cdd043f4e)" d="M 69.587381 332.2 
L 70.791376 332.2 
L 70.791376 323.670465 
L 69.587381 323.670465 
z
" style="fill:#1f77b4;"/>
   </g>
   <g id="patch_7">
    <path clip-path="url(#p8cdd043f4e)" d="M 71.092374 332.2 
L 72.296369 332.2 
L 72.296369 323.670465 
L 71.092374 323.670465 
z
" style="fill:#1f77b4;"/>
   </g>
   <g id="patch_8">
    <path clip-path="url(#p8cdd043f4e)" d="M 72.597368 332.2 
L 73.801363 332.2 
L 73.801363 323.670465 
L 72.597368 323.670465 
z
" style="fill:#1f77b4;"/>
   </g>
   <g id="patch_9">
    <path clip-path="url(#p8cdd043f4e)" d="M 74.102361 332.2 
L 75.306356 332.2 
L 75.306356 323.670465 
L 74.102361 323.670465 
z
" style="fill:#1f77b4;"/>
   </g>
   <g id="patch_10">
    <path clip-path="url(#p8cdd043f4e)" d="M 75.607355 332.2 
L 76.811349 332.2 
L 76.811349 322.817512 
L 75.607355 322.817512 
z
" style="fill:#1f77b4;"/>
   </g>
   <g id="patch_11">
    <path clip-path="url(#p8cdd043f4e)" d="M 77.112348 332.2 
L 78.316343 332.2 
L 78.316343 322.817512 
L 77.112348 322.817512 
z
" style="fill:#1f77b4;"/>
   </g>
   <g id="patch_12">
    <path clip-path="url(#p8cdd043f4e)" d="M 78.617342 332.2 
L 79.821336 332.2 
L 79.821336 322.817512 
L 78.617342 322.817512 
z
" style="fill:#1f77b4;"/>
   </g>
   <g id="patch_13">
    <path clip-path="url(#p8cdd043f4e)" d="M 80.122335 332.2 
L 81.32633 332.2 
L 81.32633 322.817512 
L 80.122335 322.817512 
z
" style="fill:#1f77b4;"/>
   </g>
   <g id="patch_14">
    <path clip-path="url(#p8cdd043f4e)" d="M 81.627328 332.2 
L 82.831323 332.2 
L 82.831323 322.817512 
L 81.627328 322.817512 
z
" style="fill:#1f77b4;"/>
   </g>
   <g id="patch_15">
    <path clip-path="url(#p8cdd043f4e)" d="M 83.132322 332.2 
L 84.336317 332.2 
L 84.336317 321.964558 
L 83.132322 321.964558 
z
" style="fill:#1f77b4;"/>
   </g>
   <g id="patch_16">
    <path clip-path="url(#p8cdd043f4e)" d="M 84.637315 332.2 
L 85.84131 332.2 
L 85.84131 321.964558 
L 84.637315 321.964558 
z
" style="fill:#1f77b4;"/>
   </g>
   <g id="patch_17">
    <path clip-path="url(#p8cdd043f4e)" d="M 86.142309 332.2 
L 87.346303 332.2 
L 87.346303 321.964558 
L 86.142309 321.964558 
z
" style="fill:#1f77b4;"/>
   </g>
   <g id="patch_18">
    <path clip-path="url(#p8cdd043f4e)" d="M 87.647302 332.2 
L 88.851297 332.2 
L 88.851297 321.964558 
L 87.647302 321.964558 
z
" style="fill:#1f77b4;"/>
   </g>
   <g id="patch_19">
    <path clip-path="url(#p8cdd043f4e)" d="M 89.152295 332.2 
L 90.35629 332.2 
L 90.35629 321.964558 
L 89.152295 321.964558 
z
" style="fill:#1f77b4;"/>
   </g>
   <g id="patch_20">
    <path clip-path="url(#p8cdd043f4e)" d="M 90.657289 332.2 
L 91.861284 332.2 
L 91.861284 321.111605 
L 90.657289 321.111605 
z
" style="fill:#1f77b4;"/>
   </g>
   <g id="patch_21">
    <path clip-path="url(#p8cdd043f4e)" d="M 92.162282 332.2 
L 93.366277 332.2 
L 93.366277 321.111605 
L 92.162282 321.111605 
z
" style="fill:#1f77b4;"/>
   </g>
   <g id="patch_22">
    <path clip-path="url(#p8cdd043f4e)" d="M 93.667276 332.2 
L 94.87127 332.2 
L 94.87127 321.111605 
L 93.667276 321.111605 
z
" style="fill:#1f77b4;"/>
   </g>
   <g id="patch_23">
    <path clip-path="url(#p8cdd043f4e)" d="M 95.172269 332.2 
L 96.376264 332.2 
L 96.376264 321.111605 
L 95.172269 321.111605 
z
" style="fill:#1f77b4;"/>
   </g>
   <g id="patch_24">
    <path clip-path="url(#p8cdd043f4e)" d="M 96.677263 332.2 
L 97.881257 332.2 
L 97.881257 320.258651 
L 96.677263 320.258651 
z
" style="fill:#1f77b4;"/>
   </g>
   <g id="patch_25">
    <path clip-path="url(#p8cdd043f4e)" d="M 98.182256 332.2 
L 99.386251 332.2 
L 99.386251 320.258651 
L 98.182256 320.258651 
z
" style="fill:#1f77b4;"/>
   </g>
   <g id="patch_26">
    <path clip-path="url(#p8cdd043f4e)" d="M 99.687249 332.2 
L 100.891244 332.2 
L 100.891244 320.258651 
L 99.687249 320.258651 
z
" style="fill:#1f77b4;"/>
   </g>
   <g id="patch_27">
    <path clip-path="url(#p8cdd043f4e)" d="M 101.192243 332.2 
L 102.396238 332.2 
L 102.396238 319.405698 
L 101.192243 319.405698 
z
" style="fill:#1f77b4;"/>
   </g>
   <g id="patch_28">
    <path clip-path="url(#p8cdd043f4e)" d="M 102.697236 332.2 
L 103.901231 332.2 
L 103.901231 318.552744 
L 102.697236 318.552744 
z
" style="fill:#1f77b4;"/>
   </g>
   <g id="patch_29">
    <path clip-path="url(#p8cdd043f4e)" d="M 104.20223 332.2 
L 105.406224 332.2 
L 105.406224 318.552744 
L 104.20223 318.552744 
z
" style="fill:#1f77b4;"/>
   </g>
   <g id="patch_30">
    <path clip-path="url(#p8cdd043f4e)" d="M 105.707223 332.2 
L 106.911218 332.2 
L 106.911218 318.552744 
L 105.707223 318.552744 
z
" style="fill:#1f77b4;"/>
   </g>
   <g id="patch_31">
    <path clip-path="url(#p8cdd043f4e)" d="M 107.212217 332.2 
L 108.416211 332.2 
L 108.416211 317.699791 
L 107.212217 317.699791 
z
" style="fill:#1f77b4;"/>
   </g>
   <g id="patch_32">
    <path clip-path="url(#p8cdd043f4e)" d="M 108.71721 332.2 
L 109.921205 332.2 
L 109.921205 317.699791 
L 108.71721 317.699791 
z
" style="fill:#1f77b4;"/>
   </g>
   <g id="patch_33">
    <path clip-path="url(#p8cdd043f4e)" d="M 110.222203 332.2 
L 111.426198 332.2 
L 111.426198 317.699791 
L 110.222203 317.699791 
z
" style="fill:#1f77b4;"/>
   </g>
   <g id="patch_34">
    <path clip-path="url(#p8cdd043f4e)" d="M 111.727197 332.2 
L 112.931192 332.2 
L 112.931192 317.699791 
L 111.727197 317.699791 
z
" style="fill:#1f77b4;"/>
   </g>
   <g id="patch_35">
    <path clip-path="url(#p8cdd043f4e)" d="M 113.23219 332.2 
L 114.436185 332.2 
L 114.436185 317.699791 
L 113.23219 317.699791 
z
" style="fill:#1f77b4;"/>
   </g>
   <g id="patch_36">
    <path clip-path="url(#p8cdd043f4e)" d="M 114.737184 332.2 
L 115.941178 332.2 
L 115.941178 316.846837 
L 114.737184 316.846837 
z
" style="fill:#1f77b4;"/>
   </g>
   <g id="patch_37">
    <path clip-path="url(#p8cdd043f4e)" d="M 116.242177 332.2 
L 117.446172 332.2 
L 117.446172 316.846837 
L 116.242177 316.846837 
z
" style="fill:#1f77b4;"/>
   </g>
   <g id="patch_38">
    <path clip-path="url(#p8cdd043f4e)" d="M 117.74717 332.2 
L 118.951165 332.2 
L 118.951165 316.846837 
L 117.74717 316.846837 
z
" style="fill:#1f77b4;"/>
   </g>
   <g id="patch_39">
    <path clip-path="url(#p8cdd043f4e)" d="M 119.252164 332.2 
L 120.456159 332.2 
L 120.456159 316.846837 
L 119.252164 316.846837 
z
" style="fill:#1f77b4;"/>
   </g>
   <g id="patch_40">
    <path clip-path="url(#p8cdd043f4e)" d="M 120.757157 332.2 
L 121.961152 332.2 
L 121.961152 316.846837 
L 120.757157 316.846837 
z
" style="fill:#1f77b4;"/>
   </g>
   <g id="patch_41">
    <path clip-path="url(#p8cdd043f4e)" d="M 122.262151 332.2 
L 123.466145 332.2 
L 123.466145 316.846837 
L 122.262151 316.846837 
z
" style="fill:#1f77b4;"/>
   </g>
   <g id="patch_42">
    <path clip-path="url(#p8cdd043f4e)" d="M 123.767144 332.2 
L 124.971139 332.2 
L 124.971139 316.846837 
L 123.767144 316.846837 
z
" style="fill:#1f77b4;"/>
   </g>
   <g id="patch_43">
    <path clip-path="url(#p8cdd043f4e)" d="M 125.272138 332.2 
L 126.476132 332.2 
L 126.476132 316.846837 
L 125.272138 316.846837 
z
" style="fill:#1f77b4;"/>
   </g>
   <g id="patch_44">
    <path clip-path="url(#p8cdd043f4e)" d="M 126.777131 332.2 
L 127.981126 332.2 
L 127.981126 316.846837 
L 126.777131 316.846837 
z
" style="fill:#1f77b4;"/>
   </g>
   <g id="patch_45">
    <path clip-path="url(#p8cdd043f4e)" d="M 128.282124 332.2 
L 129.486119 332.2 
L 129.486119 315.14093 
L 128.282124 315.14093 
z
" style="fill:#1f77b4;"/>
   </g>
   <g id="patch_46">
    <path clip-path="url(#p8cdd043f4e)" d="M 129.787118 332.2 
L 130.991113 332.2 
L 130.991113 315.14093 
L 129.787118 315.14093 
z
" style="fill:#1f77b4;"/>
   </g>
   <g id="patch_47">
    <path clip-path="url(#p8cdd043f4e)" d="M 131.292111 332.2 
L 132.496106 332.2 
L 132.496106 315.14093 
L 131.292111 315.14093 
z
" style="fill:#1f77b4;"/>
   </g>
   <g id="patch_48">
    <path clip-path="url(#p8cdd043f4e)" d="M 132.797105 332.2 
L 134.001099 332.2 
L 134.001099 314.287977 
L 132.797105 314.287977 
z
" style="fill:#1f77b4;"/>
   </g>
   <g id="patch_49">
    <path clip-path="url(#p8cdd043f4e)" d="M 134.302098 332.2 
L 135.506093 332.2 
L 135.506093 314.287977 
L 134.302098 314.287977 
z
" style="fill:#1f77b4;"/>
   </g>
   <g id="patch_50">
    <path clip-path="url(#p8cdd043f4e)" d="M 135.807092 332.2 
L 137.011086 332.2 
L 137.011086 314.287977 
L 135.807092 314.287977 
z
" style="fill:#1f77b4;"/>
   </g>
   <g id="patch_51">
    <path clip-path="url(#p8cdd043f4e)" d="M 137.312085 332.2 
L 138.51608 332.2 
L 138.51608 314.287977 
L 137.312085 314.287977 
z
" style="fill:#1f77b4;"/>
   </g>
   <g id="patch_52">
    <path clip-path="url(#p8cdd043f4e)" d="M 138.817078 332.2 
L 140.021073 332.2 
L 140.021073 313.435023 
L 138.817078 313.435023 
z
" style="fill:#1f77b4;"/>
   </g>
   <g id="patch_53">
    <path clip-path="url(#p8cdd043f4e)" d="M 140.322072 332.2 
L 141.526067 332.2 
L 141.526067 313.435023 
L 140.322072 313.435023 
z
" style="fill:#1f77b4;"/>
   </g>
   <g id="patch_54">
    <path clip-path="url(#p8cdd043f4e)" d="M 141.827065 332.2 
L 143.03106 332.2 
L 143.03106 312.58207 
L 141.827065 312.58207 
z
" style="fill:#1f77b4;"/>
   </g>
   <g id="patch_55">
    <path clip-path="url(#p8cdd043f4e)" d="M 143.332059 332.2 
L 144.536053 332.2 
L 144.536053 312.58207 
L 143.332059 312.58207 
z
" style="fill:#1f77b4;"/>
   </g>
   <g id="patch_56">
    <path clip-path="url(#p8cdd043f4e)" d="M 144.837052 332.2 
L 146.041047 332.2 
L 146.041047 310.876163 
L 144.837052 310.876163 
z
" style="fill:#1f77b4;"/>
   </g>
   <g id="patch_57">
    <path clip-path="url(#p8cdd043f4e)" d="M 146.342045 332.2 
L 147.54604 332.2 
L 147.54604 310.876163 
L 146.342045 310.876163 
z
" style="fill:#1f77b4;"/>
   </g>
   <g id="patch_58">
    <path clip-path="url(#p8cdd043f4e)" d="M 147.847039 332.2 
L 149.051034 332.2 
L 149.051034 310.876163 
L 147.847039 310.876163 
z
" style="fill:#1f77b4;"/>
   </g>
   <g id="patch_59">
    <path clip-path="url(#p8cdd043f4e)" d="M 149.352032 332.2 
L 150.556027 332.2 
L 150.556027 310.876163 
L 149.352032 310.876163 
z
" style="fill:#1f77b4;"/>
   </g>
   <g id="patch_60">
    <path clip-path="url(#p8cdd043f4e)" d="M 150.857026 332.2 
L 152.06102 332.2 
L 152.06102 309.170256 
L 150.857026 309.170256 
z
" style="fill:#1f77b4;"/>
   </g>
   <g id="patch_61">
    <path clip-path="url(#p8cdd043f4e)" d="M 152.362019 332.2 
L 153.566014 332.2 
L 153.566014 309.170256 
L 152.362019 309.170256 
z
" style="fill:#1f77b4;"/>
   </g>
   <g id="patch_62">
    <path clip-path="url(#p8cdd043f4e)" d="M 153.867013 332.2 
L 155.071007 332.2 
L 155.071007 309.170256 
L 153.867013 309.170256 
z
" style="fill:#1f77b4;"/>
   </g>
   <g id="patch_63">
    <path clip-path="url(#p8cdd043f4e)" d="M 155.372006 332.2 
L 156.576001 332.2 
L 156.576001 309.170256 
L 155.372006 309.170256 
z
" style="fill:#1f77b4;"/>
   </g>
   <g id="patch_64">
    <path clip-path="url(#p8cdd043f4e)" d="M 156.876999 332.2 
L 158.080994 332.2 
L 158.080994 308.317302 
L 156.876999 308.317302 
z
" style="fill:#1f77b4;"/>
   </g>
   <g id="patch_65">
    <path clip-path="url(#p8cdd043f4e)" d="M 158.381993 332.2 
L 159.585988 332.2 
L 159.585988 308.317302 
L 158.381993 308.317302 
z
" style="fill:#1f77b4;"/>
   </g>
   <g id="patch_66">
    <path clip-path="url(#p8cdd043f4e)" d="M 159.886986 332.2 
L 161.090981 332.2 
L 161.090981 308.317302 
L 159.886986 308.317302 
z
" style="fill:#1f77b4;"/>
   </g>
   <g id="patch_67">
    <path clip-path="url(#p8cdd043f4e)" d="M 161.39198 332.2 
L 162.595974 332.2 
L 162.595974 308.317302 
L 161.39198 308.317302 
z
" style="fill:#1f77b4;"/>
   </g>
   <g id="patch_68">
    <path clip-path="url(#p8cdd043f4e)" d="M 162.896973 332.2 
L 164.100968 332.2 
L 164.100968 308.317302 
L 162.896973 308.317302 
z
" style="fill:#1f77b4;"/>
   </g>
   <g id="patch_69">
    <path clip-path="url(#p8cdd043f4e)" d="M 164.401967 332.2 
L 165.605961 332.2 
L 165.605961 308.317302 
L 164.401967 308.317302 
z
" style="fill:#1f77b4;"/>
   </g>
   <g id="patch_70">
    <path clip-path="url(#p8cdd043f4e)" d="M 165.90696 332.2 
L 167.110955 332.2 
L 167.110955 308.317302 
L 165.90696 308.317302 
z
" style="fill:#1f77b4;"/>
   </g>
   <g id="patch_71">
    <path clip-path="url(#p8cdd043f4e)" d="M 167.411953 332.2 
L 168.615948 332.2 
L 168.615948 308.317302 
L 167.411953 308.317302 
z
" style="fill:#1f77b4;"/>
   </g>
   <g id="patch_72">
    <path clip-path="url(#p8cdd043f4e)" d="M 168.916947 332.2 
L 170.120942 332.2 
L 170.120942 308.317302 
L 168.916947 308.317302 
z
" style="fill:#1f77b4;"/>
   </g>
   <g id="patch_73">
    <path clip-path="url(#p8cdd043f4e)" d="M 170.42194 332.2 
L 171.625935 332.2 
L 171.625935 308.317302 
L 170.42194 308.317302 
z
" style="fill:#1f77b4;"/>
   </g>
   <g id="patch_74">
    <path clip-path="url(#p8cdd043f4e)" d="M 171.926934 332.2 
L 173.130928 332.2 
L 173.130928 308.317302 
L 171.926934 308.317302 
z
" style="fill:#1f77b4;"/>
   </g>
   <g id="patch_75">
    <path clip-path="url(#p8cdd043f4e)" d="M 173.431927 332.2 
L 174.635922 332.2 
L 174.635922 307.464349 
L 173.431927 307.464349 
z
" style="fill:#1f77b4;"/>
   </g>
   <g id="patch_76">
    <path clip-path="url(#p8cdd043f4e)" d="M 174.936921 332.2 
L 176.140915 332.2 
L 176.140915 307.464349 
L 174.936921 307.464349 
z
" style="fill:#1f77b4;"/>
   </g>
   <g id="patch_77">
    <path clip-path="url(#p8cdd043f4e)" d="M 176.441914 332.2 
L 177.645909 332.2 
L 177.645909 307.464349 
L 176.441914 307.464349 
z
" style="fill:#1f77b4;"/>
   </g>
   <g id="patch_78">
    <path clip-path="url(#p8cdd043f4e)" d="M 177.946907 332.2 
L 179.150902 332.2 
L 179.150902 307.464349 
L 177.946907 307.464349 
z
" style="fill:#1f77b4;"/>
   </g>
   <g id="patch_79">
    <path clip-path="url(#p8cdd043f4e)" d="M 179.451901 332.2 
L 180.655896 332.2 
L 180.655896 306.611395 
L 179.451901 306.611395 
z
" style="fill:#1f77b4;"/>
   </g>
   <g id="patch_80">
    <path clip-path="url(#p8cdd043f4e)" d="M 180.956894 332.2 
L 182.160889 332.2 
L 182.160889 306.611395 
L 180.956894 306.611395 
z
" style="fill:#1f77b4;"/>
   </g>
   <g id="patch_81">
    <path clip-path="url(#p8cdd043f4e)" d="M 182.461888 332.2 
L 183.665882 332.2 
L 183.665882 306.611395 
L 182.461888 306.611395 
z
" style="fill:#1f77b4;"/>
   </g>
   <g id="patch_82">
    <path clip-path="url(#p8cdd043f4e)" d="M 183.966881 332.2 
L 185.170876 332.2 
L 185.170876 305.758442 
L 183.966881 305.758442 
z
" style="fill:#1f77b4;"/>
   </g>
   <g id="patch_83">
    <path clip-path="url(#p8cdd043f4e)" d="M 185.471874 332.2 
L 186.675869 332.2 
L 186.675869 304.905488 
L 185.471874 304.905488 
z
" style="fill:#1f77b4;"/>
   </g>
   <g id="patch_84">
    <path clip-path="url(#p8cdd043f4e)" d="M 186.976868 332.2 
L 188.180863 332.2 
L 188.180863 304.905488 
L 186.976868 304.905488 
z
" style="fill:#1f77b4;"/>
   </g>
   <g id="patch_85">
    <path clip-path="url(#p8cdd043f4e)" d="M 188.481861 332.2 
L 189.685856 332.2 
L 189.685856 304.052535 
L 188.481861 304.052535 
z
" style="fill:#1f77b4;"/>
   </g>
   <g id="patch_86">
    <path clip-path="url(#p8cdd043f4e)" d="M 189.986855 332.2 
L 191.190849 332.2 
L 191.190849 304.052535 
L 189.986855 304.052535 
z
" style="fill:#1f77b4;"/>
   </g>
   <g id="patch_87">
    <path clip-path="url(#p8cdd043f4e)" d="M 191.491848 332.2 
L 192.695843 332.2 
L 192.695843 304.052535 
L 191.491848 304.052535 
z
" style="fill:#1f77b4;"/>
   </g>
   <g id="patch_88">
    <path clip-path="url(#p8cdd043f4e)" d="M 192.996842 332.2 
L 194.200836 332.2 
L 194.200836 304.052535 
L 192.996842 304.052535 
z
" style="fill:#1f77b4;"/>
   </g>
   <g id="patch_89">
    <path clip-path="url(#p8cdd043f4e)" d="M 194.501835 332.2 
L 195.70583 332.2 
L 195.70583 304.052535 
L 194.501835 304.052535 
z
" style="fill:#1f77b4;"/>
   </g>
   <g id="patch_90">
    <path clip-path="url(#p8cdd043f4e)" d="M 196.006828 332.2 
L 197.210823 332.2 
L 197.210823 302.346628 
L 196.006828 302.346628 
z
" style="fill:#1f77b4;"/>
   </g>
   <g id="patch_91">
    <path clip-path="url(#p8cdd043f4e)" d="M 197.511822 332.2 
L 198.715817 332.2 
L 198.715817 302.346628 
L 197.511822 302.346628 
z
" style="fill:#1f77b4;"/>
   </g>
   <g id="patch_92">
    <path clip-path="url(#p8cdd043f4e)" d="M 199.016815 332.2 
L 200.22081 332.2 
L 200.22081 301.493674 
L 199.016815 301.493674 
z
" style="fill:#1f77b4;"/>
   </g>
   <g id="patch_93">
    <path clip-path="url(#p8cdd043f4e)" d="M 200.521809 332.2 
L 201.725803 332.2 
L 201.725803 301.493674 
L 200.521809 301.493674 
z
" style="fill:#1f77b4;"/>
   </g>
   <g id="patch_94">
    <path clip-path="url(#p8cdd043f4e)" d="M 202.026802 332.2 
L 203.230797 332.2 
L 203.230797 300.640721 
L 202.026802 300.640721 
z
" style="fill:#1f77b4;"/>
   </g>
   <g id="patch_95">
    <path clip-path="url(#p8cdd043f4e)" d="M 203.531796 332.2 
L 204.73579 332.2 
L 204.73579 299.787767 
L 203.531796 299.787767 
z
" style="fill:#1f77b4;"/>
   </g>
   <g id="patch_96">
    <path clip-path="url(#p8cdd043f4e)" d="M 205.036789 332.2 
L 206.240784 332.2 
L 206.240784 299.787767 
L 205.036789 299.787767 
z
" style="fill:#1f77b4;"/>
   </g>
   <g id="patch_97">
    <path clip-path="url(#p8cdd043f4e)" d="M 206.541782 332.2 
L 207.745777 332.2 
L 207.745777 298.934814 
L 206.541782 298.934814 
z
" style="fill:#1f77b4;"/>
   </g>
   <g id="patch_98">
    <path clip-path="url(#p8cdd043f4e)" d="M 208.046776 332.2 
L 209.250771 332.2 
L 209.250771 298.934814 
L 208.046776 298.934814 
z
" style="fill:#1f77b4;"/>
   </g>
   <g id="patch_99">
    <path clip-path="url(#p8cdd043f4e)" d="M 209.551769 332.2 
L 210.755764 332.2 
L 210.755764 298.08186 
L 209.551769 298.08186 
z
" style="fill:#1f77b4;"/>
   </g>
   <g id="patch_100">
    <path clip-path="url(#p8cdd043f4e)" d="M 211.056763 332.2 
L 212.260757 332.2 
L 212.260757 298.08186 
L 211.056763 298.08186 
z
" style="fill:#1f77b4;"/>
   </g>
   <g id="patch_101">
    <path clip-path="url(#p8cdd043f4e)" d="M 212.561756 332.2 
L 213.765751 332.2 
L 213.765751 296.375953 
L 212.561756 296.375953 
z
" style="fill:#1f77b4;"/>
   </g>
   <g id="patch_102">
    <path clip-path="url(#p8cdd043f4e)" d="M 214.066749 332.2 
L 215.270744 332.2 
L 215.270744 295.523 
L 214.066749 295.523 
z
" style="fill:#1f77b4;"/>
   </g>
   <g id="patch_103">
    <path clip-path="url(#p8cdd043f4e)" d="M 215.571743 332.2 
L 216.775738 332.2 
L 216.775738 294.670046 
L 215.571743 294.670046 
z
" style="fill:#1f77b4;"/>
   </g>
   <g id="patch_104">
    <path clip-path="url(#p8cdd043f4e)" d="M 217.076736 332.2 
L 218.280731 332.2 
L 218.280731 292.964139 
L 217.076736 292.964139 
z
" style="fill:#1f77b4;"/>
   </g>
   <g id="patch_105">
    <path clip-path="url(#p8cdd043f4e)" d="M 218.58173 332.2 
L 219.785724 332.2 
L 219.785724 292.964139 
L 218.58173 292.964139 
z
" style="fill:#1f77b4;"/>
   </g>
   <g id="patch_106">
    <path clip-path="url(#p8cdd043f4e)" d="M 220.086723 332.2 
L 221.290718 332.2 
L 221.290718 290.405279 
L 220.086723 290.405279 
z
" style="fill:#1f77b4;"/>
   </g>
   <g id="patch_107">
    <path clip-path="url(#p8cdd043f4e)" d="M 221.591717 332.2 
L 222.795711 332.2 
L 222.795711 289.552325 
L 221.591717 289.552325 
z
" style="fill:#1f77b4;"/>
   </g>
   <g id="patch_108">
    <path clip-path="url(#p8cdd043f4e)" d="M 223.09671 332.2 
L 224.300705 332.2 
L 224.300705 289.552325 
L 223.09671 289.552325 
z
" style="fill:#1f77b4;"/>
   </g>
   <g id="patch_109">
    <path clip-path="url(#p8cdd043f4e)" d="M 224.601703 332.2 
L 225.805698 332.2 
L 225.805698 289.552325 
L 224.601703 289.552325 
z
" style="fill:#1f77b4;"/>
   </g>
   <g id="patch_110">
    <path clip-path="url(#p8cdd043f4e)" d="M 226.106697 332.2 
L 227.310692 332.2 
L 227.310692 288.699372 
L 226.106697 288.699372 
z
" style="fill:#1f77b4;"/>
   </g>
   <g id="patch_111">
    <path clip-path="url(#p8cdd043f4e)" d="M 227.61169 332.2 
L 228.815685 332.2 
L 228.815685 286.993465 
L 227.61169 286.993465 
z
" style="fill:#1f77b4;"/>
   </g>
   <g id="patch_112">
    <path clip-path="url(#p8cdd043f4e)" d="M 229.116684 332.2 
L 230.320678 332.2 
L 230.320678 286.140511 
L 229.116684 286.140511 
z
" style="fill:#1f77b4;"/>
   </g>
   <g id="patch_113">
    <path clip-path="url(#p8cdd043f4e)" d="M 230.621677 332.2 
L 231.825672 332.2 
L 231.825672 284.434604 
L 230.621677 284.434604 
z
" style="fill:#1f77b4;"/>
   </g>
   <g id="patch_114">
    <path clip-path="url(#p8cdd043f4e)" d="M 232.126671 332.2 
L 233.330665 332.2 
L 233.330665 283.581651 
L 232.126671 283.581651 
z
" style="fill:#1f77b4;"/>
   </g>
   <g id="patch_115">
    <path clip-path="url(#p8cdd043f4e)" d="M 233.631664 332.2 
L 234.835659 332.2 
L 234.835659 282.728697 
L 233.631664 282.728697 
z
" style="fill:#1f77b4;"/>
   </g>
   <g id="patch_116">
    <path clip-path="url(#p8cdd043f4e)" d="M 235.136657 332.2 
L 236.340652 332.2 
L 236.340652 281.875744 
L 235.136657 281.875744 
z
" style="fill:#1f77b4;"/>
   </g>
   <g id="patch_117">
    <path clip-path="url(#p8cdd043f4e)" d="M 236.641651 332.2 
L 237.845646 332.2 
L 237.845646 281.875744 
L 236.641651 281.875744 
z
" style="fill:#1f77b4;"/>
   </g>
   <g id="patch_118">
    <path clip-path="url(#p8cdd043f4e)" d="M 238.146644 332.2 
L 239.350639 332.2 
L 239.350639 278.46393 
L 238.146644 278.46393 
z
" style="fill:#1f77b4;"/>
   </g>
   <g id="patch_119">
    <path clip-path="url(#p8cdd043f4e)" d="M 239.651638 332.2 
L 240.855632 332.2 
L 240.855632 275.905069 
L 239.651638 275.905069 
z
" style="fill:#1f77b4;"/>
   </g>
   <g id="patch_120">
    <path clip-path="url(#p8cdd043f4e)" d="M 241.156631 332.2 
L 242.360626 332.2 
L 242.360626 275.905069 
L 241.156631 275.905069 
z
" style="fill:#1f77b4;"/>
   </g>
   <g id="patch_121">
    <path clip-path="url(#p8cdd043f4e)" d="M 242.661624 332.2 
L 243.865619 332.2 
L 243.865619 275.052116 
L 242.661624 275.052116 
z
" style="fill:#1f77b4;"/>
   </g>
   <g id="patch_122">
    <path clip-path="url(#p8cdd043f4e)" d="M 244.166618 332.2 
L 245.370613 332.2 
L 245.370613 272.493255 
L 244.166618 272.493255 
z
" style="fill:#1f77b4;"/>
   </g>
   <g id="patch_123">
    <path clip-path="url(#p8cdd043f4e)" d="M 245.671611 332.2 
L 246.875606 332.2 
L 246.875606 271.640302 
L 245.671611 271.640302 
z
" style="fill:#1f77b4;"/>
   </g>
   <g id="patch_124">
    <path clip-path="url(#p8cdd043f4e)" d="M 247.176605 332.2 
L 248.380599 332.2 
L 248.380599 270.787348 
L 247.176605 270.787348 
z
" style="fill:#1f77b4;"/>
   </g>
   <g id="patch_125">
    <path clip-path="url(#p8cdd043f4e)" d="M 248.681598 332.2 
L 249.885593 332.2 
L 249.885593 269.081441 
L 248.681598 269.081441 
z
" style="fill:#1f77b4;"/>
   </g>
   <g id="patch_126">
    <path clip-path="url(#p8cdd043f4e)" d="M 250.186592 332.2 
L 251.390586 332.2 
L 251.390586 269.081441 
L 250.186592 269.081441 
z
" style="fill:#1f77b4;"/>
   </g>
   <g id="patch_127">
    <path clip-path="url(#p8cdd043f4e)" d="M 251.691585 332.2 
L 252.89558 332.2 
L 252.89558 268.228488 
L 251.691585 268.228488 
z
" style="fill:#1f77b4;"/>
   </g>
   <g id="patch_128">
    <path clip-path="url(#p8cdd043f4e)" d="M 253.196578 332.2 
L 254.400573 332.2 
L 254.400573 267.375534 
L 253.196578 267.375534 
z
" style="fill:#1f77b4;"/>
   </g>
   <g id="patch_129">
    <path clip-path="url(#p8cdd043f4e)" d="M 254.701572 332.2 
L 255.905567 332.2 
L 255.905567 261.40486 
L 254.701572 261.40486 
z
" style="fill:#1f77b4;"/>
   </g>
   <g id="patch_130">
    <path clip-path="url(#p8cdd043f4e)" d="M 256.206565 332.2 
L 257.41056 332.2 
L 257.41056 261.40486 
L 256.206565 261.40486 
z
" style="fill:#1f77b4;"/>
   </g>
   <g id="patch_131">
    <path clip-path="url(#p8cdd043f4e)" d="M 257.711559 332.2 
L 258.915553 332.2 
L 258.915553 261.40486 
L 257.711559 261.40486 
z
" style="fill:#1f77b4;"/>
   </g>
   <g id="patch_132">
    <path clip-path="url(#p8cdd043f4e)" d="M 259.216552 332.2 
L 260.420547 332.2 
L 260.420547 260.551906 
L 259.216552 260.551906 
z
" style="fill:#1f77b4;"/>
   </g>
   <g id="patch_133">
    <path clip-path="url(#p8cdd043f4e)" d="M 260.721546 332.2 
L 261.92554 332.2 
L 261.92554 260.551906 
L 260.721546 260.551906 
z
" style="fill:#1f77b4;"/>
   </g>
   <g id="patch_134">
    <path clip-path="url(#p8cdd043f4e)" d="M 262.226539 332.2 
L 263.430534 332.2 
L 263.430534 259.698953 
L 262.226539 259.698953 
z
" style="fill:#1f77b4;"/>
   </g>
   <g id="patch_135">
    <path clip-path="url(#p8cdd043f4e)" d="M 263.731532 332.2 
L 264.935527 332.2 
L 264.935527 258.845999 
L 263.731532 258.845999 
z
" style="fill:#1f77b4;"/>
   </g>
   <g id="patch_136">
    <path clip-path="url(#p8cdd043f4e)" d="M 265.236526 332.2 
L 266.440521 332.2 
L 266.440521 257.993046 
L 265.236526 257.993046 
z
" style="fill:#1f77b4;"/>
   </g>
   <g id="patch_137">
    <path clip-path="url(#p8cdd043f4e)" d="M 266.741519 332.2 
L 267.945514 332.2 
L 267.945514 257.993046 
L 266.741519 257.993046 
z
" style="fill:#1f77b4;"/>
   </g>
   <g id="patch_138">
    <path clip-path="url(#p8cdd043f4e)" d="M 268.246513 332.2 
L 269.450507 332.2 
L 269.450507 252.875325 
L 268.246513 252.875325 
z
" style="fill:#1f77b4;"/>
   </g>
   <g id="patch_139">
    <path clip-path="url(#p8cdd043f4e)" d="M 269.751506 332.2 
L 270.955501 332.2 
L 270.955501 251.169418 
L 269.751506 251.169418 
z
" style="fill:#1f77b4;"/>
   </g>
   <g id="patch_140">
    <path clip-path="url(#p8cdd043f4e)" d="M 271.256499 332.2 
L 272.460494 332.2 
L 272.460494 250.316464 
L 271.256499 250.316464 
z
" style="fill:#1f77b4;"/>
   </g>
   <g id="patch_141">
    <path clip-path="url(#p8cdd043f4e)" d="M 272.761493 332.2 
L 273.965488 332.2 
L 273.965488 246.051697 
L 272.761493 246.051697 
z
" style="fill:#1f77b4;"/>
   </g>
   <g id="patch_142">
    <path clip-path="url(#p8cdd043f4e)" d="M 274.266486 332.2 
L 275.470481 332.2 
L 275.470481 246.051697 
L 274.266486 246.051697 
z
" style="fill:#1f77b4;"/>
   </g>
   <g id="patch_143">
    <path clip-path="url(#p8cdd043f4e)" d="M 275.77148 332.2 
L 276.975474 332.2 
L 276.975474 233.257394 
L 275.77148 233.257394 
z
" style="fill:#1f77b4;"/>
   </g>
   <g id="patch_144">
    <path clip-path="url(#p8cdd043f4e)" d="M 277.276473 332.2 
L 278.480468 332.2 
L 278.480468 229.84558 
L 277.276473 229.84558 
z
" style="fill:#1f77b4;"/>
   </g>
   <g id="patch_145">
    <path clip-path="url(#p8cdd043f4e)" d="M 278.781467 332.2 
L 279.985461 332.2 
L 279.985461 217.051278 
L 278.781467 217.051278 
z
" style="fill:#1f77b4;"/>
   </g>
   <g id="patch_146">
    <path clip-path="url(#p8cdd043f4e)" d="M 280.28646 332.2 
L 281.490455 332.2 
L 281.490455 211.080603 
L 280.28646 211.080603 
z
" style="fill:#1f77b4;"/>
   </g>
   <g id="patch_147">
    <path clip-path="url(#p8cdd043f4e)" d="M 281.791453 332.2 
L 282.995448 332.2 
L 282.995448 209.374696 
L 281.791453 209.374696 
z
" style="fill:#1f77b4;"/>
   </g>
   <g id="patch_148">
    <path clip-path="url(#p8cdd043f4e)" d="M 283.296447 332.2 
L 284.500442 332.2 
L 284.500442 202.551068 
L 283.296447 202.551068 
z
" style="fill:#1f77b4;"/>
   </g>
   <g id="patch_149">
    <path clip-path="url(#p8cdd043f4e)" d="M 284.80144 332.2 
L 286.005435 332.2 
L 286.005435 201.698115 
L 284.80144 201.698115 
z
" style="fill:#1f77b4;"/>
   </g>
   <g id="patch_150">
    <path clip-path="url(#p8cdd043f4e)" d="M 286.306434 332.2 
L 287.510428 332.2 
L 287.510428 199.139254 
L 286.306434 199.139254 
z
" style="fill:#1f77b4;"/>
   </g>
   <g id="patch_151">
    <path clip-path="url(#p8cdd043f4e)" d="M 287.811427 332.2 
L 289.015422 332.2 
L 289.015422 194.874487 
L 287.811427 194.874487 
z
" style="fill:#1f77b4;"/>
   </g>
   <g id="patch_152">
    <path clip-path="url(#p8cdd043f4e)" d="M 289.316421 332.2 
L 290.520415 332.2 
L 290.520415 41.342857 
L 289.316421 41.342857 
z
" style="fill:#1f77b4;"/>
   </g>
   <g id="matplotlib.axis_1">
    <g id="xtick_1">
     <g id="line2d_1">
      <defs>
       <path d="M 0 0 
L 0 3.5 
" id="mc649d39498" style="stroke:#000000;stroke-width:0.8;"/>
      </defs>
      <g>
       <use style="stroke:#000000;stroke-width:0.8;" x="65.674398" xlink:href="#mc649d39498" y="332.2"/>
      </g>
     </g>
     <g id="text_1">
      <!-- 0 -->
      <g transform="translate(62.493148 346.798438)scale(0.1 -0.1)">
       <defs>
        <path d="M 31.78125 66.40625 
Q 24.171875 66.40625 20.328125 58.90625 
Q 16.5 51.421875 16.5 36.375 
Q 16.5 21.390625 20.328125 13.890625 
Q 24.171875 6.390625 31.78125 6.390625 
Q 39.453125 6.390625 43.28125 13.890625 
Q 47.125 21.390625 47.125 36.375 
Q 47.125 51.421875 43.28125 58.90625 
Q 39.453125 66.40625 31.78125 66.40625 
z
M 31.78125 74.21875 
Q 44.046875 74.21875 50.515625 64.515625 
Q 56.984375 54.828125 56.984375 36.375 
Q 56.984375 17.96875 50.515625 8.265625 
Q 44.046875 -1.421875 31.78125 -1.421875 
Q 19.53125 -1.421875 13.0625 8.265625 
Q 6.59375 17.96875 6.59375 36.375 
Q 6.59375 54.828125 13.0625 64.515625 
Q 19.53125 74.21875 31.78125 74.21875 
z
" id="DejaVuSans-48"/>
       </defs>
       <use xlink:href="#DejaVuSans-48"/>
      </g>
     </g>
    </g>
    <g id="xtick_2">
     <g id="line2d_2">
      <g>
       <use style="stroke:#000000;stroke-width:0.8;" x="103.299234" xlink:href="#mc649d39498" y="332.2"/>
      </g>
     </g>
     <g id="text_2">
      <!-- 25 -->
      <g transform="translate(96.936734 346.798438)scale(0.1 -0.1)">
       <defs>
        <path d="M 19.1875 8.296875 
L 53.609375 8.296875 
L 53.609375 0 
L 7.328125 0 
L 7.328125 8.296875 
Q 12.9375 14.109375 22.625 23.890625 
Q 32.328125 33.6875 34.8125 36.53125 
Q 39.546875 41.84375 41.421875 45.53125 
Q 43.3125 49.21875 43.3125 52.78125 
Q 43.3125 58.59375 39.234375 62.25 
Q 35.15625 65.921875 28.609375 65.921875 
Q 23.96875 65.921875 18.8125 64.3125 
Q 13.671875 62.703125 7.8125 59.421875 
L 7.8125 69.390625 
Q 13.765625 71.78125 18.9375 73 
Q 24.125 74.21875 28.421875 74.21875 
Q 39.75 74.21875 46.484375 68.546875 
Q 53.21875 62.890625 53.21875 53.421875 
Q 53.21875 48.921875 51.53125 44.890625 
Q 49.859375 40.875 45.40625 35.40625 
Q 44.1875 33.984375 37.640625 27.21875 
Q 31.109375 20.453125 19.1875 8.296875 
z
" id="DejaVuSans-50"/>
        <path d="M 10.796875 72.90625 
L 49.515625 72.90625 
L 49.515625 64.59375 
L 19.828125 64.59375 
L 19.828125 46.734375 
Q 21.96875 47.46875 24.109375 47.828125 
Q 26.265625 48.1875 28.421875 48.1875 
Q 40.625 48.1875 47.75 41.5 
Q 54.890625 34.8125 54.890625 23.390625 
Q 54.890625 11.625 47.5625 5.09375 
Q 40.234375 -1.421875 26.90625 -1.421875 
Q 22.3125 -1.421875 17.546875 -0.640625 
Q 12.796875 0.140625 7.71875 1.703125 
L 7.71875 11.625 
Q 12.109375 9.234375 16.796875 8.0625 
Q 21.484375 6.890625 26.703125 6.890625 
Q 35.15625 6.890625 40.078125 11.328125 
Q 45.015625 15.765625 45.015625 23.390625 
Q 45.015625 31 40.078125 35.4375 
Q 35.15625 39.890625 26.703125 39.890625 
Q 22.75 39.890625 18.8125 39.015625 
Q 14.890625 38.140625 10.796875 36.28125 
z
" id="DejaVuSans-53"/>
       </defs>
       <use xlink:href="#DejaVuSans-50"/>
       <use x="63.623047" xlink:href="#DejaVuSans-53"/>
      </g>
     </g>
    </g>
    <g id="xtick_3">
     <g id="line2d_3">
      <g>
       <use style="stroke:#000000;stroke-width:0.8;" x="140.924069" xlink:href="#mc649d39498" y="332.2"/>
      </g>
     </g>
     <g id="text_3">
      <!-- 50 -->
      <g transform="translate(134.561569 346.798438)scale(0.1 -0.1)">
       <use xlink:href="#DejaVuSans-53"/>
       <use x="63.623047" xlink:href="#DejaVuSans-48"/>
      </g>
     </g>
    </g>
    <g id="xtick_4">
     <g id="line2d_4">
      <g>
       <use style="stroke:#000000;stroke-width:0.8;" x="178.548905" xlink:href="#mc649d39498" y="332.2"/>
      </g>
     </g>
     <g id="text_4">
      <!-- 75 -->
      <g transform="translate(172.186405 346.798438)scale(0.1 -0.1)">
       <defs>
        <path d="M 8.203125 72.90625 
L 55.078125 72.90625 
L 55.078125 68.703125 
L 28.609375 0 
L 18.3125 0 
L 43.21875 64.59375 
L 8.203125 64.59375 
z
" id="DejaVuSans-55"/>
       </defs>
       <use xlink:href="#DejaVuSans-55"/>
       <use x="63.623047" xlink:href="#DejaVuSans-53"/>
      </g>
     </g>
    </g>
    <g id="xtick_5">
     <g id="line2d_5">
      <g>
       <use style="stroke:#000000;stroke-width:0.8;" x="216.17374" xlink:href="#mc649d39498" y="332.2"/>
      </g>
     </g>
     <g id="text_5">
      <!-- 100 -->
      <g transform="translate(206.62999 346.798438)scale(0.1 -0.1)">
       <defs>
        <path d="M 12.40625 8.296875 
L 28.515625 8.296875 
L 28.515625 63.921875 
L 10.984375 60.40625 
L 10.984375 69.390625 
L 28.421875 72.90625 
L 38.28125 72.90625 
L 38.28125 8.296875 
L 54.390625 8.296875 
L 54.390625 0 
L 12.40625 0 
z
" id="DejaVuSans-49"/>
       </defs>
       <use xlink:href="#DejaVuSans-49"/>
       <use x="63.623047" xlink:href="#DejaVuSans-48"/>
       <use x="127.246094" xlink:href="#DejaVuSans-48"/>
      </g>
     </g>
    </g>
    <g id="xtick_6">
     <g id="line2d_6">
      <g>
       <use style="stroke:#000000;stroke-width:0.8;" x="253.798576" xlink:href="#mc649d39498" y="332.2"/>
      </g>
     </g>
     <g id="text_6">
      <!-- 125 -->
      <g transform="translate(244.254826 346.798438)scale(0.1 -0.1)">
       <use xlink:href="#DejaVuSans-49"/>
       <use x="63.623047" xlink:href="#DejaVuSans-50"/>
       <use x="127.246094" xlink:href="#DejaVuSans-53"/>
      </g>
     </g>
    </g>
    <g id="xtick_7">
     <g id="line2d_7">
      <g>
       <use style="stroke:#000000;stroke-width:0.8;" x="291.423411" xlink:href="#mc649d39498" y="332.2"/>
      </g>
     </g>
     <g id="text_7">
      <!-- 150 -->
      <g transform="translate(281.879661 346.798438)scale(0.1 -0.1)">
       <use xlink:href="#DejaVuSans-49"/>
       <use x="63.623047" xlink:href="#DejaVuSans-53"/>
       <use x="127.246094" xlink:href="#DejaVuSans-48"/>
      </g>
     </g>
    </g>
   </g>
   <g id="matplotlib.axis_2">
    <g id="ytick_1">
     <g id="line2d_8">
      <defs>
       <path d="M 0 0 
L -3.5 0 
" id="ma907b8ddf7" style="stroke:#000000;stroke-width:0.8;"/>
      </defs>
      <g>
       <use style="stroke:#000000;stroke-width:0.8;" x="53.8" xlink:href="#ma907b8ddf7" y="332.2"/>
      </g>
     </g>
     <g id="text_8">
      <!-- 0 -->
      <g transform="translate(40.4375 335.999219)scale(0.1 -0.1)">
       <use xlink:href="#DejaVuSans-48"/>
      </g>
     </g>
    </g>
    <g id="ytick_2">
     <g id="line2d_9">
      <g>
       <use style="stroke:#000000;stroke-width:0.8;" x="53.8" xlink:href="#ma907b8ddf7" y="289.552325"/>
      </g>
     </g>
     <g id="text_9">
      <!-- 50 -->
      <g transform="translate(34.075 293.351544)scale(0.1 -0.1)">
       <use xlink:href="#DejaVuSans-53"/>
       <use x="63.623047" xlink:href="#DejaVuSans-48"/>
      </g>
     </g>
    </g>
    <g id="ytick_3">
     <g id="line2d_10">
      <g>
       <use style="stroke:#000000;stroke-width:0.8;" x="53.8" xlink:href="#ma907b8ddf7" y="246.90465"/>
      </g>
     </g>
     <g id="text_10">
      <!-- 100 -->
      <g transform="translate(27.7125 250.703869)scale(0.1 -0.1)">
       <use xlink:href="#DejaVuSans-49"/>
       <use x="63.623047" xlink:href="#DejaVuSans-48"/>
       <use x="127.246094" xlink:href="#DejaVuSans-48"/>
      </g>
     </g>
    </g>
    <g id="ytick_4">
     <g id="line2d_11">
      <g>
       <use style="stroke:#000000;stroke-width:0.8;" x="53.8" xlink:href="#ma907b8ddf7" y="204.256975"/>
      </g>
     </g>
     <g id="text_11">
      <!-- 150 -->
      <g transform="translate(27.7125 208.056194)scale(0.1 -0.1)">
       <use xlink:href="#DejaVuSans-49"/>
       <use x="63.623047" xlink:href="#DejaVuSans-53"/>
       <use x="127.246094" xlink:href="#DejaVuSans-48"/>
      </g>
     </g>
    </g>
    <g id="ytick_5">
     <g id="line2d_12">
      <g>
       <use style="stroke:#000000;stroke-width:0.8;" x="53.8" xlink:href="#ma907b8ddf7" y="161.6093"/>
      </g>
     </g>
     <g id="text_12">
      <!-- 200 -->
      <g transform="translate(27.7125 165.408519)scale(0.1 -0.1)">
       <use xlink:href="#DejaVuSans-50"/>
       <use x="63.623047" xlink:href="#DejaVuSans-48"/>
       <use x="127.246094" xlink:href="#DejaVuSans-48"/>
      </g>
     </g>
    </g>
    <g id="ytick_6">
     <g id="line2d_13">
      <g>
       <use style="stroke:#000000;stroke-width:0.8;" x="53.8" xlink:href="#ma907b8ddf7" y="118.961625"/>
      </g>
     </g>
     <g id="text_13">
      <!-- 250 -->
      <g transform="translate(27.7125 122.760844)scale(0.1 -0.1)">
       <use xlink:href="#DejaVuSans-50"/>
       <use x="63.623047" xlink:href="#DejaVuSans-53"/>
       <use x="127.246094" xlink:href="#DejaVuSans-48"/>
      </g>
     </g>
    </g>
    <g id="ytick_7">
     <g id="line2d_14">
      <g>
       <use style="stroke:#000000;stroke-width:0.8;" x="53.8" xlink:href="#ma907b8ddf7" y="76.313951"/>
      </g>
     </g>
     <g id="text_14">
      <!-- 300 -->
      <g transform="translate(27.7125 80.113169)scale(0.1 -0.1)">
       <defs>
        <path d="M 40.578125 39.3125 
Q 47.65625 37.796875 51.625 33 
Q 55.609375 28.21875 55.609375 21.1875 
Q 55.609375 10.40625 48.1875 4.484375 
Q 40.765625 -1.421875 27.09375 -1.421875 
Q 22.515625 -1.421875 17.65625 -0.515625 
Q 12.796875 0.390625 7.625 2.203125 
L 7.625 11.71875 
Q 11.71875 9.328125 16.59375 8.109375 
Q 21.484375 6.890625 26.8125 6.890625 
Q 36.078125 6.890625 40.9375 10.546875 
Q 45.796875 14.203125 45.796875 21.1875 
Q 45.796875 27.640625 41.28125 31.265625 
Q 36.765625 34.90625 28.71875 34.90625 
L 20.21875 34.90625 
L 20.21875 43.015625 
L 29.109375 43.015625 
Q 36.375 43.015625 40.234375 45.921875 
Q 44.09375 48.828125 44.09375 54.296875 
Q 44.09375 59.90625 40.109375 62.90625 
Q 36.140625 65.921875 28.71875 65.921875 
Q 24.65625 65.921875 20.015625 65.03125 
Q 15.375 64.15625 9.8125 62.3125 
L 9.8125 71.09375 
Q 15.4375 72.65625 20.34375 73.4375 
Q 25.25 74.21875 29.59375 74.21875 
Q 40.828125 74.21875 47.359375 69.109375 
Q 53.90625 64.015625 53.90625 55.328125 
Q 53.90625 49.265625 50.4375 45.09375 
Q 46.96875 40.921875 40.578125 39.3125 
z
" id="DejaVuSans-51"/>
       </defs>
       <use xlink:href="#DejaVuSans-51"/>
       <use x="63.623047" xlink:href="#DejaVuSans-48"/>
       <use x="127.246094" xlink:href="#DejaVuSans-48"/>
      </g>
     </g>
    </g>
    <g id="ytick_8">
     <g id="line2d_15">
      <g>
       <use style="stroke:#000000;stroke-width:0.8;" x="53.8" xlink:href="#ma907b8ddf7" y="33.666276"/>
      </g>
     </g>
     <g id="text_15">
      <!-- 350 -->
      <g transform="translate(27.7125 37.465494)scale(0.1 -0.1)">
       <use xlink:href="#DejaVuSans-51"/>
       <use x="63.623047" xlink:href="#DejaVuSans-53"/>
       <use x="127.246094" xlink:href="#DejaVuSans-48"/>
      </g>
     </g>
    </g>
    <g id="text_16">
     <!-- Number of pairs -->
     <g transform="translate(21.216875 227.945313)rotate(-90)scale(0.12 -0.12)">
      <defs>
       <path d="M 9.8125 72.90625 
L 23.09375 72.90625 
L 55.421875 11.921875 
L 55.421875 72.90625 
L 64.984375 72.90625 
L 64.984375 0 
L 51.703125 0 
L 19.390625 60.984375 
L 19.390625 0 
L 9.8125 0 
z
" id="DejaVuSans-78"/>
       <path d="M 8.5 21.578125 
L 8.5 54.6875 
L 17.484375 54.6875 
L 17.484375 21.921875 
Q 17.484375 14.15625 20.5 10.265625 
Q 23.53125 6.390625 29.59375 6.390625 
Q 36.859375 6.390625 41.078125 11.03125 
Q 45.3125 15.671875 45.3125 23.6875 
L 45.3125 54.6875 
L 54.296875 54.6875 
L 54.296875 0 
L 45.3125 0 
L 45.3125 8.40625 
Q 42.046875 3.421875 37.71875 1 
Q 33.40625 -1.421875 27.6875 -1.421875 
Q 18.265625 -1.421875 13.375 4.4375 
Q 8.5 10.296875 8.5 21.578125 
z
M 31.109375 56 
z
" id="DejaVuSans-117"/>
       <path d="M 52 44.1875 
Q 55.375 50.25 60.0625 53.125 
Q 64.75 56 71.09375 56 
Q 79.640625 56 84.28125 50.015625 
Q 88.921875 44.046875 88.921875 33.015625 
L 88.921875 0 
L 79.890625 0 
L 79.890625 32.71875 
Q 79.890625 40.578125 77.09375 44.375 
Q 74.3125 48.1875 68.609375 48.1875 
Q 61.625 48.1875 57.5625 43.546875 
Q 53.515625 38.921875 53.515625 30.90625 
L 53.515625 0 
L 44.484375 0 
L 44.484375 32.71875 
Q 44.484375 40.625 41.703125 44.40625 
Q 38.921875 48.1875 33.109375 48.1875 
Q 26.21875 48.1875 22.15625 43.53125 
Q 18.109375 38.875 18.109375 30.90625 
L 18.109375 0 
L 9.078125 0 
L 9.078125 54.6875 
L 18.109375 54.6875 
L 18.109375 46.1875 
Q 21.1875 51.21875 25.484375 53.609375 
Q 29.78125 56 35.6875 56 
Q 41.65625 56 45.828125 52.96875 
Q 50 49.953125 52 44.1875 
z
" id="DejaVuSans-109"/>
       <path d="M 48.6875 27.296875 
Q 48.6875 37.203125 44.609375 42.84375 
Q 40.53125 48.484375 33.40625 48.484375 
Q 26.265625 48.484375 22.1875 42.84375 
Q 18.109375 37.203125 18.109375 27.296875 
Q 18.109375 17.390625 22.1875 11.75 
Q 26.265625 6.109375 33.40625 6.109375 
Q 40.53125 6.109375 44.609375 11.75 
Q 48.6875 17.390625 48.6875 27.296875 
z
M 18.109375 46.390625 
Q 20.953125 51.265625 25.265625 53.625 
Q 29.59375 56 35.59375 56 
Q 45.5625 56 51.78125 48.09375 
Q 58.015625 40.1875 58.015625 27.296875 
Q 58.015625 14.40625 51.78125 6.484375 
Q 45.5625 -1.421875 35.59375 -1.421875 
Q 29.59375 -1.421875 25.265625 0.953125 
Q 20.953125 3.328125 18.109375 8.203125 
L 18.109375 0 
L 9.078125 0 
L 9.078125 75.984375 
L 18.109375 75.984375 
z
" id="DejaVuSans-98"/>
       <path d="M 56.203125 29.59375 
L 56.203125 25.203125 
L 14.890625 25.203125 
Q 15.484375 15.921875 20.484375 11.0625 
Q 25.484375 6.203125 34.421875 6.203125 
Q 39.59375 6.203125 44.453125 7.46875 
Q 49.3125 8.734375 54.109375 11.28125 
L 54.109375 2.78125 
Q 49.265625 0.734375 44.1875 -0.34375 
Q 39.109375 -1.421875 33.890625 -1.421875 
Q 20.796875 -1.421875 13.15625 6.1875 
Q 5.515625 13.8125 5.515625 26.8125 
Q 5.515625 40.234375 12.765625 48.109375 
Q 20.015625 56 32.328125 56 
Q 43.359375 56 49.78125 48.890625 
Q 56.203125 41.796875 56.203125 29.59375 
z
M 47.21875 32.234375 
Q 47.125 39.59375 43.09375 43.984375 
Q 39.0625 48.390625 32.421875 48.390625 
Q 24.90625 48.390625 20.390625 44.140625 
Q 15.875 39.890625 15.1875 32.171875 
z
" id="DejaVuSans-101"/>
       <path d="M 41.109375 46.296875 
Q 39.59375 47.171875 37.8125 47.578125 
Q 36.03125 48 33.890625 48 
Q 26.265625 48 22.1875 43.046875 
Q 18.109375 38.09375 18.109375 28.8125 
L 18.109375 0 
L 9.078125 0 
L 9.078125 54.6875 
L 18.109375 54.6875 
L 18.109375 46.1875 
Q 20.953125 51.171875 25.484375 53.578125 
Q 30.03125 56 36.53125 56 
Q 37.453125 56 38.578125 55.875 
Q 39.703125 55.765625 41.0625 55.515625 
z
" id="DejaVuSans-114"/>
       <path id="DejaVuSans-32"/>
       <path d="M 30.609375 48.390625 
Q 23.390625 48.390625 19.1875 42.75 
Q 14.984375 37.109375 14.984375 27.296875 
Q 14.984375 17.484375 19.15625 11.84375 
Q 23.34375 6.203125 30.609375 6.203125 
Q 37.796875 6.203125 41.984375 11.859375 
Q 46.1875 17.53125 46.1875 27.296875 
Q 46.1875 37.015625 41.984375 42.703125 
Q 37.796875 48.390625 30.609375 48.390625 
z
M 30.609375 56 
Q 42.328125 56 49.015625 48.375 
Q 55.71875 40.765625 55.71875 27.296875 
Q 55.71875 13.875 49.015625 6.21875 
Q 42.328125 -1.421875 30.609375 -1.421875 
Q 18.84375 -1.421875 12.171875 6.21875 
Q 5.515625 13.875 5.515625 27.296875 
Q 5.515625 40.765625 12.171875 48.375 
Q 18.84375 56 30.609375 56 
z
" id="DejaVuSans-111"/>
       <path d="M 37.109375 75.984375 
L 37.109375 68.5 
L 28.515625 68.5 
Q 23.6875 68.5 21.796875 66.546875 
Q 19.921875 64.59375 19.921875 59.515625 
L 19.921875 54.6875 
L 34.71875 54.6875 
L 34.71875 47.703125 
L 19.921875 47.703125 
L 19.921875 0 
L 10.890625 0 
L 10.890625 47.703125 
L 2.296875 47.703125 
L 2.296875 54.6875 
L 10.890625 54.6875 
L 10.890625 58.5 
Q 10.890625 67.625 15.140625 71.796875 
Q 19.390625 75.984375 28.609375 75.984375 
z
" id="DejaVuSans-102"/>
       <path d="M 18.109375 8.203125 
L 18.109375 -20.796875 
L 9.078125 -20.796875 
L 9.078125 54.6875 
L 18.109375 54.6875 
L 18.109375 46.390625 
Q 20.953125 51.265625 25.265625 53.625 
Q 29.59375 56 35.59375 56 
Q 45.5625 56 51.78125 48.09375 
Q 58.015625 40.1875 58.015625 27.296875 
Q 58.015625 14.40625 51.78125 6.484375 
Q 45.5625 -1.421875 35.59375 -1.421875 
Q 29.59375 -1.421875 25.265625 0.953125 
Q 20.953125 3.328125 18.109375 8.203125 
z
M 48.6875 27.296875 
Q 48.6875 37.203125 44.609375 42.84375 
Q 40.53125 48.484375 33.40625 48.484375 
Q 26.265625 48.484375 22.1875 42.84375 
Q 18.109375 37.203125 18.109375 27.296875 
Q 18.109375 17.390625 22.1875 11.75 
Q 26.265625 6.109375 33.40625 6.109375 
Q 40.53125 6.109375 44.609375 11.75 
Q 48.6875 17.390625 48.6875 27.296875 
z
" id="DejaVuSans-112"/>
       <path d="M 34.28125 27.484375 
Q 23.390625 27.484375 19.1875 25 
Q 14.984375 22.515625 14.984375 16.5 
Q 14.984375 11.71875 18.140625 8.90625 
Q 21.296875 6.109375 26.703125 6.109375 
Q 34.1875 6.109375 38.703125 11.40625 
Q 43.21875 16.703125 43.21875 25.484375 
L 43.21875 27.484375 
z
M 52.203125 31.203125 
L 52.203125 0 
L 43.21875 0 
L 43.21875 8.296875 
Q 40.140625 3.328125 35.546875 0.953125 
Q 30.953125 -1.421875 24.3125 -1.421875 
Q 15.921875 -1.421875 10.953125 3.296875 
Q 6 8.015625 6 15.921875 
Q 6 25.140625 12.171875 29.828125 
Q 18.359375 34.515625 30.609375 34.515625 
L 43.21875 34.515625 
L 43.21875 35.40625 
Q 43.21875 41.609375 39.140625 45 
Q 35.0625 48.390625 27.6875 48.390625 
Q 23 48.390625 18.546875 47.265625 
Q 14.109375 46.140625 10.015625 43.890625 
L 10.015625 52.203125 
Q 14.9375 54.109375 19.578125 55.046875 
Q 24.21875 56 28.609375 56 
Q 40.484375 56 46.34375 49.84375 
Q 52.203125 43.703125 52.203125 31.203125 
z
" id="DejaVuSans-97"/>
       <path d="M 9.421875 54.6875 
L 18.40625 54.6875 
L 18.40625 0 
L 9.421875 0 
z
M 9.421875 75.984375 
L 18.40625 75.984375 
L 18.40625 64.59375 
L 9.421875 64.59375 
z
" id="DejaVuSans-105"/>
       <path d="M 44.28125 53.078125 
L 44.28125 44.578125 
Q 40.484375 46.53125 36.375 47.5 
Q 32.28125 48.484375 27.875 48.484375 
Q 21.1875 48.484375 17.84375 46.4375 
Q 14.5 44.390625 14.5 40.28125 
Q 14.5 37.15625 16.890625 35.375 
Q 19.28125 33.59375 26.515625 31.984375 
L 29.59375 31.296875 
Q 39.15625 29.25 43.1875 25.515625 
Q 47.21875 21.78125 47.21875 15.09375 
Q 47.21875 7.46875 41.1875 3.015625 
Q 35.15625 -1.421875 24.609375 -1.421875 
Q 20.21875 -1.421875 15.453125 -0.5625 
Q 10.6875 0.296875 5.421875 2 
L 5.421875 11.28125 
Q 10.40625 8.6875 15.234375 7.390625 
Q 20.0625 6.109375 24.8125 6.109375 
Q 31.15625 6.109375 34.5625 8.28125 
Q 37.984375 10.453125 37.984375 14.40625 
Q 37.984375 18.0625 35.515625 20.015625 
Q 33.0625 21.96875 24.703125 23.78125 
L 21.578125 24.515625 
Q 13.234375 26.265625 9.515625 29.90625 
Q 5.8125 33.546875 5.8125 39.890625 
Q 5.8125 47.609375 11.28125 51.796875 
Q 16.75 56 26.8125 56 
Q 31.78125 56 36.171875 55.265625 
Q 40.578125 54.546875 44.28125 53.078125 
z
" id="DejaVuSans-115"/>
      </defs>
      <use xlink:href="#DejaVuSans-78"/>
      <use x="74.804688" xlink:href="#DejaVuSans-117"/>
      <use x="138.183594" xlink:href="#DejaVuSans-109"/>
      <use x="235.595703" xlink:href="#DejaVuSans-98"/>
      <use x="299.072266" xlink:href="#DejaVuSans-101"/>
      <use x="360.595703" xlink:href="#DejaVuSans-114"/>
      <use x="401.708984" xlink:href="#DejaVuSans-32"/>
      <use x="433.496094" xlink:href="#DejaVuSans-111"/>
      <use x="494.677734" xlink:href="#DejaVuSans-102"/>
      <use x="529.882812" xlink:href="#DejaVuSans-32"/>
      <use x="561.669922" xlink:href="#DejaVuSans-112"/>
      <use x="625.146484" xlink:href="#DejaVuSans-97"/>
      <use x="686.425781" xlink:href="#DejaVuSans-105"/>
      <use x="714.208984" xlink:href="#DejaVuSans-114"/>
      <use x="755.322266" xlink:href="#DejaVuSans-115"/>
     </g>
    </g>
   </g>
   <g id="patch_153">
    <path d="M 53.8 332.2 
L 53.8 26.8 
" style="fill:none;stroke:#000000;stroke-linecap:square;stroke-linejoin:miter;stroke-width:0.8;"/>
   </g>
   <g id="patch_154">
    <path d="M 301.792816 332.2 
L 301.792816 26.8 
" style="fill:none;stroke:#000000;stroke-linecap:square;stroke-linejoin:miter;stroke-width:0.8;"/>
   </g>
   <g id="patch_155">
    <path d="M 53.8 332.2 
L 301.792816 332.2 
" style="fill:none;stroke:#000000;stroke-linecap:square;stroke-linejoin:miter;stroke-width:0.8;"/>
   </g>
   <g id="patch_156">
    <path d="M 53.8 26.8 
L 301.792816 26.8 
" style="fill:none;stroke:#000000;stroke-linecap:square;stroke-linejoin:miter;stroke-width:0.8;"/>
   </g>
   <g id="text_17">
    <!-- en -->
    <g transform="translate(170.302033 20.8)scale(0.12 -0.12)">
     <defs>
      <path d="M 54.890625 33.015625 
L 54.890625 0 
L 45.90625 0 
L 45.90625 32.71875 
Q 45.90625 40.484375 42.875 44.328125 
Q 39.84375 48.1875 33.796875 48.1875 
Q 26.515625 48.1875 22.3125 43.546875 
Q 18.109375 38.921875 18.109375 30.90625 
L 18.109375 0 
L 9.078125 0 
L 9.078125 54.6875 
L 18.109375 54.6875 
L 18.109375 46.1875 
Q 21.34375 51.125 25.703125 53.5625 
Q 30.078125 56 35.796875 56 
Q 45.21875 56 50.046875 50.171875 
Q 54.890625 44.34375 54.890625 33.015625 
z
" id="DejaVuSans-110"/>
     </defs>
     <use xlink:href="#DejaVuSans-101"/>
     <use x="61.523438" xlink:href="#DejaVuSans-110"/>
    </g>
   </g>
  </g>
  <g id="axes_2">
   <g id="patch_157">
    <path d="M 333.602395 332.2 
L 581.595211 332.2 
L 581.595211 26.8 
L 333.602395 26.8 
z
" style="fill:#ffffff;"/>
   </g>
   <g id="patch_158">
    <path clip-path="url(#pe75add995d)" d="M 344.874795 332.2 
L 346.07879 332.2 
L 346.07879 306.908075 
L 344.874795 306.908075 
z
" style="fill:#1f77b4;"/>
   </g>
   <g id="patch_159">
    <path clip-path="url(#pe75add995d)" d="M 346.379789 332.2 
L 347.583784 332.2 
L 347.583784 302.692754 
L 346.379789 302.692754 
z
" style="fill:#1f77b4;"/>
   </g>
   <g id="patch_160">
    <path clip-path="url(#pe75add995d)" d="M 347.884782 332.2 
L 349.088777 332.2 
L 349.088777 302.692754 
L 347.884782 302.692754 
z
" style="fill:#1f77b4;"/>
   </g>
   <g id="patch_161">
    <path clip-path="url(#pe75add995d)" d="M 349.389776 332.2 
L 350.59377 332.2 
L 350.59377 298.477433 
L 349.389776 298.477433 
z
" style="fill:#1f77b4;"/>
   </g>
   <g id="patch_162">
    <path clip-path="url(#pe75add995d)" d="M 350.894769 332.2 
L 352.098764 332.2 
L 352.098764 298.477433 
L 350.894769 298.477433 
z
" style="fill:#1f77b4;"/>
   </g>
   <g id="patch_163">
    <path clip-path="url(#pe75add995d)" d="M 352.399762 332.2 
L 353.603757 332.2 
L 353.603757 294.262112 
L 352.399762 294.262112 
z
" style="fill:#1f77b4;"/>
   </g>
   <g id="patch_164">
    <path clip-path="url(#pe75add995d)" d="M 353.904756 332.2 
L 355.108751 332.2 
L 355.108751 294.262112 
L 353.904756 294.262112 
z
" style="fill:#1f77b4;"/>
   </g>
   <g id="patch_165">
    <path clip-path="url(#pe75add995d)" d="M 355.409749 332.2 
L 356.613744 332.2 
L 356.613744 290.046791 
L 355.409749 290.046791 
z
" style="fill:#1f77b4;"/>
   </g>
   <g id="patch_166">
    <path clip-path="url(#pe75add995d)" d="M 356.914743 332.2 
L 358.118738 332.2 
L 358.118738 290.046791 
L 356.914743 290.046791 
z
" style="fill:#1f77b4;"/>
   </g>
   <g id="patch_167">
    <path clip-path="url(#pe75add995d)" d="M 358.419736 332.2 
L 359.623731 332.2 
L 359.623731 290.046791 
L 358.419736 290.046791 
z
" style="fill:#1f77b4;"/>
   </g>
   <g id="patch_168">
    <path clip-path="url(#pe75add995d)" d="M 359.92473 332.2 
L 361.128724 332.2 
L 361.128724 285.83147 
L 359.92473 285.83147 
z
" style="fill:#1f77b4;"/>
   </g>
   <g id="patch_169">
    <path clip-path="url(#pe75add995d)" d="M 361.429723 332.2 
L 362.633718 332.2 
L 362.633718 285.83147 
L 361.429723 285.83147 
z
" style="fill:#1f77b4;"/>
   </g>
   <g id="patch_170">
    <path clip-path="url(#pe75add995d)" d="M 362.934716 332.2 
L 364.138711 332.2 
L 364.138711 285.83147 
L 362.934716 285.83147 
z
" style="fill:#1f77b4;"/>
   </g>
   <g id="patch_171">
    <path clip-path="url(#pe75add995d)" d="M 364.43971 332.2 
L 365.643705 332.2 
L 365.643705 285.83147 
L 364.43971 285.83147 
z
" style="fill:#1f77b4;"/>
   </g>
   <g id="patch_172">
    <path clip-path="url(#pe75add995d)" d="M 365.944703 332.2 
L 367.148698 332.2 
L 367.148698 281.616149 
L 365.944703 281.616149 
z
" style="fill:#1f77b4;"/>
   </g>
   <g id="patch_173">
    <path clip-path="url(#pe75add995d)" d="M 367.449697 332.2 
L 368.653691 332.2 
L 368.653691 281.616149 
L 367.449697 281.616149 
z
" style="fill:#1f77b4;"/>
   </g>
   <g id="patch_174">
    <path clip-path="url(#pe75add995d)" d="M 368.95469 332.2 
L 370.158685 332.2 
L 370.158685 281.616149 
L 368.95469 281.616149 
z
" style="fill:#1f77b4;"/>
   </g>
   <g id="patch_175">
    <path clip-path="url(#pe75add995d)" d="M 370.459684 332.2 
L 371.663678 332.2 
L 371.663678 281.616149 
L 370.459684 281.616149 
z
" style="fill:#1f77b4;"/>
   </g>
   <g id="patch_176">
    <path clip-path="url(#pe75add995d)" d="M 371.964677 332.2 
L 373.168672 332.2 
L 373.168672 281.616149 
L 371.964677 281.616149 
z
" style="fill:#1f77b4;"/>
   </g>
   <g id="patch_177">
    <path clip-path="url(#pe75add995d)" d="M 373.46967 332.2 
L 374.673665 332.2 
L 374.673665 281.616149 
L 373.46967 281.616149 
z
" style="fill:#1f77b4;"/>
   </g>
   <g id="patch_178">
    <path clip-path="url(#pe75add995d)" d="M 374.974664 332.2 
L 376.178659 332.2 
L 376.178659 281.616149 
L 374.974664 281.616149 
z
" style="fill:#1f77b4;"/>
   </g>
   <g id="patch_179">
    <path clip-path="url(#pe75add995d)" d="M 376.479657 332.2 
L 377.683652 332.2 
L 377.683652 281.616149 
L 376.479657 281.616149 
z
" style="fill:#1f77b4;"/>
   </g>
   <g id="patch_180">
    <path clip-path="url(#pe75add995d)" d="M 377.984651 332.2 
L 379.188645 332.2 
L 379.188645 277.400828 
L 377.984651 277.400828 
z
" style="fill:#1f77b4;"/>
   </g>
   <g id="patch_181">
    <path clip-path="url(#pe75add995d)" d="M 379.489644 332.2 
L 380.693639 332.2 
L 380.693639 277.400828 
L 379.489644 277.400828 
z
" style="fill:#1f77b4;"/>
   </g>
   <g id="patch_182">
    <path clip-path="url(#pe75add995d)" d="M 380.994638 332.2 
L 382.198632 332.2 
L 382.198632 277.400828 
L 380.994638 277.400828 
z
" style="fill:#1f77b4;"/>
   </g>
   <g id="patch_183">
    <path clip-path="url(#pe75add995d)" d="M 382.499631 332.2 
L 383.703626 332.2 
L 383.703626 277.400828 
L 382.499631 277.400828 
z
" style="fill:#1f77b4;"/>
   </g>
   <g id="patch_184">
    <path clip-path="url(#pe75add995d)" d="M 384.004624 332.2 
L 385.208619 332.2 
L 385.208619 277.400828 
L 384.004624 277.400828 
z
" style="fill:#1f77b4;"/>
   </g>
   <g id="patch_185">
    <path clip-path="url(#pe75add995d)" d="M 385.509618 332.2 
L 386.713613 332.2 
L 386.713613 277.400828 
L 385.509618 277.400828 
z
" style="fill:#1f77b4;"/>
   </g>
   <g id="patch_186">
    <path clip-path="url(#pe75add995d)" d="M 387.014611 332.2 
L 388.218606 332.2 
L 388.218606 277.400828 
L 387.014611 277.400828 
z
" style="fill:#1f77b4;"/>
   </g>
   <g id="patch_187">
    <path clip-path="url(#pe75add995d)" d="M 388.519605 332.2 
L 389.723599 332.2 
L 389.723599 273.185507 
L 388.519605 273.185507 
z
" style="fill:#1f77b4;"/>
   </g>
   <g id="patch_188">
    <path clip-path="url(#pe75add995d)" d="M 390.024598 332.2 
L 391.228593 332.2 
L 391.228593 273.185507 
L 390.024598 273.185507 
z
" style="fill:#1f77b4;"/>
   </g>
   <g id="patch_189">
    <path clip-path="url(#pe75add995d)" d="M 391.529591 332.2 
L 392.733586 332.2 
L 392.733586 273.185507 
L 391.529591 273.185507 
z
" style="fill:#1f77b4;"/>
   </g>
   <g id="patch_190">
    <path clip-path="url(#pe75add995d)" d="M 393.034585 332.2 
L 394.23858 332.2 
L 394.23858 273.185507 
L 393.034585 273.185507 
z
" style="fill:#1f77b4;"/>
   </g>
   <g id="patch_191">
    <path clip-path="url(#pe75add995d)" d="M 394.539578 332.2 
L 395.743573 332.2 
L 395.743573 273.185507 
L 394.539578 273.185507 
z
" style="fill:#1f77b4;"/>
   </g>
   <g id="patch_192">
    <path clip-path="url(#pe75add995d)" d="M 396.044572 332.2 
L 397.248566 332.2 
L 397.248566 273.185507 
L 396.044572 273.185507 
z
" style="fill:#1f77b4;"/>
   </g>
   <g id="patch_193">
    <path clip-path="url(#pe75add995d)" d="M 397.549565 332.2 
L 398.75356 332.2 
L 398.75356 273.185507 
L 397.549565 273.185507 
z
" style="fill:#1f77b4;"/>
   </g>
   <g id="patch_194">
    <path clip-path="url(#pe75add995d)" d="M 399.054559 332.2 
L 400.258553 332.2 
L 400.258553 273.185507 
L 399.054559 273.185507 
z
" style="fill:#1f77b4;"/>
   </g>
   <g id="patch_195">
    <path clip-path="url(#pe75add995d)" d="M 400.559552 332.2 
L 401.763547 332.2 
L 401.763547 273.185507 
L 400.559552 273.185507 
z
" style="fill:#1f77b4;"/>
   </g>
   <g id="patch_196">
    <path clip-path="url(#pe75add995d)" d="M 402.064545 332.2 
L 403.26854 332.2 
L 403.26854 273.185507 
L 402.064545 273.185507 
z
" style="fill:#1f77b4;"/>
   </g>
   <g id="patch_197">
    <path clip-path="url(#pe75add995d)" d="M 403.569539 332.2 
L 404.773534 332.2 
L 404.773534 268.970186 
L 403.569539 268.970186 
z
" style="fill:#1f77b4;"/>
   </g>
   <g id="patch_198">
    <path clip-path="url(#pe75add995d)" d="M 405.074532 332.2 
L 406.278527 332.2 
L 406.278527 268.970186 
L 405.074532 268.970186 
z
" style="fill:#1f77b4;"/>
   </g>
   <g id="patch_199">
    <path clip-path="url(#pe75add995d)" d="M 406.579526 332.2 
L 407.78352 332.2 
L 407.78352 268.970186 
L 406.579526 268.970186 
z
" style="fill:#1f77b4;"/>
   </g>
   <g id="patch_200">
    <path clip-path="url(#pe75add995d)" d="M 408.084519 332.2 
L 409.288514 332.2 
L 409.288514 268.970186 
L 408.084519 268.970186 
z
" style="fill:#1f77b4;"/>
   </g>
   <g id="patch_201">
    <path clip-path="url(#pe75add995d)" d="M 409.589513 332.2 
L 410.793507 332.2 
L 410.793507 268.970186 
L 409.589513 268.970186 
z
" style="fill:#1f77b4;"/>
   </g>
   <g id="patch_202">
    <path clip-path="url(#pe75add995d)" d="M 411.094506 332.2 
L 412.298501 332.2 
L 412.298501 264.754865 
L 411.094506 264.754865 
z
" style="fill:#1f77b4;"/>
   </g>
   <g id="patch_203">
    <path clip-path="url(#pe75add995d)" d="M 412.599499 332.2 
L 413.803494 332.2 
L 413.803494 264.754865 
L 412.599499 264.754865 
z
" style="fill:#1f77b4;"/>
   </g>
   <g id="patch_204">
    <path clip-path="url(#pe75add995d)" d="M 414.104493 332.2 
L 415.308488 332.2 
L 415.308488 264.754865 
L 414.104493 264.754865 
z
" style="fill:#1f77b4;"/>
   </g>
   <g id="patch_205">
    <path clip-path="url(#pe75add995d)" d="M 415.609486 332.2 
L 416.813481 332.2 
L 416.813481 264.754865 
L 415.609486 264.754865 
z
" style="fill:#1f77b4;"/>
   </g>
   <g id="patch_206">
    <path clip-path="url(#pe75add995d)" d="M 417.11448 332.2 
L 418.318474 332.2 
L 418.318474 264.754865 
L 417.11448 264.754865 
z
" style="fill:#1f77b4;"/>
   </g>
   <g id="patch_207">
    <path clip-path="url(#pe75add995d)" d="M 418.619473 332.2 
L 419.823468 332.2 
L 419.823468 264.754865 
L 418.619473 264.754865 
z
" style="fill:#1f77b4;"/>
   </g>
   <g id="patch_208">
    <path clip-path="url(#pe75add995d)" d="M 420.124466 332.2 
L 421.328461 332.2 
L 421.328461 264.754865 
L 420.124466 264.754865 
z
" style="fill:#1f77b4;"/>
   </g>
   <g id="patch_209">
    <path clip-path="url(#pe75add995d)" d="M 421.62946 332.2 
L 422.833455 332.2 
L 422.833455 264.754865 
L 421.62946 264.754865 
z
" style="fill:#1f77b4;"/>
   </g>
   <g id="patch_210">
    <path clip-path="url(#pe75add995d)" d="M 423.134453 332.2 
L 424.338448 332.2 
L 424.338448 260.539545 
L 423.134453 260.539545 
z
" style="fill:#1f77b4;"/>
   </g>
   <g id="patch_211">
    <path clip-path="url(#pe75add995d)" d="M 424.639447 332.2 
L 425.843441 332.2 
L 425.843441 260.539545 
L 424.639447 260.539545 
z
" style="fill:#1f77b4;"/>
   </g>
   <g id="patch_212">
    <path clip-path="url(#pe75add995d)" d="M 426.14444 332.2 
L 427.348435 332.2 
L 427.348435 260.539545 
L 426.14444 260.539545 
z
" style="fill:#1f77b4;"/>
   </g>
   <g id="patch_213">
    <path clip-path="url(#pe75add995d)" d="M 427.649434 332.2 
L 428.853428 332.2 
L 428.853428 260.539545 
L 427.649434 260.539545 
z
" style="fill:#1f77b4;"/>
   </g>
   <g id="patch_214">
    <path clip-path="url(#pe75add995d)" d="M 429.154427 332.2 
L 430.358422 332.2 
L 430.358422 260.539545 
L 429.154427 260.539545 
z
" style="fill:#1f77b4;"/>
   </g>
   <g id="patch_215">
    <path clip-path="url(#pe75add995d)" d="M 430.65942 332.2 
L 431.863415 332.2 
L 431.863415 260.539545 
L 430.65942 260.539545 
z
" style="fill:#1f77b4;"/>
   </g>
   <g id="patch_216">
    <path clip-path="url(#pe75add995d)" d="M 432.164414 332.2 
L 433.368409 332.2 
L 433.368409 256.324224 
L 432.164414 256.324224 
z
" style="fill:#1f77b4;"/>
   </g>
   <g id="patch_217">
    <path clip-path="url(#pe75add995d)" d="M 433.669407 332.2 
L 434.873402 332.2 
L 434.873402 256.324224 
L 433.669407 256.324224 
z
" style="fill:#1f77b4;"/>
   </g>
   <g id="patch_218">
    <path clip-path="url(#pe75add995d)" d="M 435.174401 332.2 
L 436.378395 332.2 
L 436.378395 256.324224 
L 435.174401 256.324224 
z
" style="fill:#1f77b4;"/>
   </g>
   <g id="patch_219">
    <path clip-path="url(#pe75add995d)" d="M 436.679394 332.2 
L 437.883389 332.2 
L 437.883389 256.324224 
L 436.679394 256.324224 
z
" style="fill:#1f77b4;"/>
   </g>
   <g id="patch_220">
    <path clip-path="url(#pe75add995d)" d="M 438.184388 332.2 
L 439.388382 332.2 
L 439.388382 256.324224 
L 438.184388 256.324224 
z
" style="fill:#1f77b4;"/>
   </g>
   <g id="patch_221">
    <path clip-path="url(#pe75add995d)" d="M 439.689381 332.2 
L 440.893376 332.2 
L 440.893376 256.324224 
L 439.689381 256.324224 
z
" style="fill:#1f77b4;"/>
   </g>
   <g id="patch_222">
    <path clip-path="url(#pe75add995d)" d="M 441.194374 332.2 
L 442.398369 332.2 
L 442.398369 252.108903 
L 441.194374 252.108903 
z
" style="fill:#1f77b4;"/>
   </g>
   <g id="patch_223">
    <path clip-path="url(#pe75add995d)" d="M 442.699368 332.2 
L 443.903363 332.2 
L 443.903363 252.108903 
L 442.699368 252.108903 
z
" style="fill:#1f77b4;"/>
   </g>
   <g id="patch_224">
    <path clip-path="url(#pe75add995d)" d="M 444.204361 332.2 
L 445.408356 332.2 
L 445.408356 252.108903 
L 444.204361 252.108903 
z
" style="fill:#1f77b4;"/>
   </g>
   <g id="patch_225">
    <path clip-path="url(#pe75add995d)" d="M 445.709355 332.2 
L 446.913349 332.2 
L 446.913349 252.108903 
L 445.709355 252.108903 
z
" style="fill:#1f77b4;"/>
   </g>
   <g id="patch_226">
    <path clip-path="url(#pe75add995d)" d="M 447.214348 332.2 
L 448.418343 332.2 
L 448.418343 247.893582 
L 447.214348 247.893582 
z
" style="fill:#1f77b4;"/>
   </g>
   <g id="patch_227">
    <path clip-path="url(#pe75add995d)" d="M 448.719341 332.2 
L 449.923336 332.2 
L 449.923336 247.893582 
L 448.719341 247.893582 
z
" style="fill:#1f77b4;"/>
   </g>
   <g id="patch_228">
    <path clip-path="url(#pe75add995d)" d="M 450.224335 332.2 
L 451.42833 332.2 
L 451.42833 247.893582 
L 450.224335 247.893582 
z
" style="fill:#1f77b4;"/>
   </g>
   <g id="patch_229">
    <path clip-path="url(#pe75add995d)" d="M 451.729328 332.2 
L 452.933323 332.2 
L 452.933323 247.893582 
L 451.729328 247.893582 
z
" style="fill:#1f77b4;"/>
   </g>
   <g id="patch_230">
    <path clip-path="url(#pe75add995d)" d="M 453.234322 332.2 
L 454.438316 332.2 
L 454.438316 247.893582 
L 453.234322 247.893582 
z
" style="fill:#1f77b4;"/>
   </g>
   <g id="patch_231">
    <path clip-path="url(#pe75add995d)" d="M 454.739315 332.2 
L 455.94331 332.2 
L 455.94331 247.893582 
L 454.739315 247.893582 
z
" style="fill:#1f77b4;"/>
   </g>
   <g id="patch_232">
    <path clip-path="url(#pe75add995d)" d="M 456.244309 332.2 
L 457.448303 332.2 
L 457.448303 247.893582 
L 456.244309 247.893582 
z
" style="fill:#1f77b4;"/>
   </g>
   <g id="patch_233">
    <path clip-path="url(#pe75add995d)" d="M 457.749302 332.2 
L 458.953297 332.2 
L 458.953297 247.893582 
L 457.749302 247.893582 
z
" style="fill:#1f77b4;"/>
   </g>
   <g id="patch_234">
    <path clip-path="url(#pe75add995d)" d="M 459.254295 332.2 
L 460.45829 332.2 
L 460.45829 247.893582 
L 459.254295 247.893582 
z
" style="fill:#1f77b4;"/>
   </g>
   <g id="patch_235">
    <path clip-path="url(#pe75add995d)" d="M 460.759289 332.2 
L 461.963284 332.2 
L 461.963284 247.893582 
L 460.759289 247.893582 
z
" style="fill:#1f77b4;"/>
   </g>
   <g id="patch_236">
    <path clip-path="url(#pe75add995d)" d="M 462.264282 332.2 
L 463.468277 332.2 
L 463.468277 243.678261 
L 462.264282 243.678261 
z
" style="fill:#1f77b4;"/>
   </g>
   <g id="patch_237">
    <path clip-path="url(#pe75add995d)" d="M 463.769276 332.2 
L 464.97327 332.2 
L 464.97327 243.678261 
L 463.769276 243.678261 
z
" style="fill:#1f77b4;"/>
   </g>
   <g id="patch_238">
    <path clip-path="url(#pe75add995d)" d="M 465.274269 332.2 
L 466.478264 332.2 
L 466.478264 243.678261 
L 465.274269 243.678261 
z
" style="fill:#1f77b4;"/>
   </g>
   <g id="patch_239">
    <path clip-path="url(#pe75add995d)" d="M 466.779263 332.2 
L 467.983257 332.2 
L 467.983257 243.678261 
L 466.779263 243.678261 
z
" style="fill:#1f77b4;"/>
   </g>
   <g id="patch_240">
    <path clip-path="url(#pe75add995d)" d="M 468.284256 332.2 
L 469.488251 332.2 
L 469.488251 243.678261 
L 468.284256 243.678261 
z
" style="fill:#1f77b4;"/>
   </g>
   <g id="patch_241">
    <path clip-path="url(#pe75add995d)" d="M 469.789249 332.2 
L 470.993244 332.2 
L 470.993244 239.46294 
L 469.789249 239.46294 
z
" style="fill:#1f77b4;"/>
   </g>
   <g id="patch_242">
    <path clip-path="url(#pe75add995d)" d="M 471.294243 332.2 
L 472.498238 332.2 
L 472.498238 239.46294 
L 471.294243 239.46294 
z
" style="fill:#1f77b4;"/>
   </g>
   <g id="patch_243">
    <path clip-path="url(#pe75add995d)" d="M 472.799236 332.2 
L 474.003231 332.2 
L 474.003231 235.247619 
L 472.799236 235.247619 
z
" style="fill:#1f77b4;"/>
   </g>
   <g id="patch_244">
    <path clip-path="url(#pe75add995d)" d="M 474.30423 332.2 
L 475.508224 332.2 
L 475.508224 235.247619 
L 474.30423 235.247619 
z
" style="fill:#1f77b4;"/>
   </g>
   <g id="patch_245">
    <path clip-path="url(#pe75add995d)" d="M 475.809223 332.2 
L 477.013218 332.2 
L 477.013218 235.247619 
L 475.809223 235.247619 
z
" style="fill:#1f77b4;"/>
   </g>
   <g id="patch_246">
    <path clip-path="url(#pe75add995d)" d="M 477.314216 332.2 
L 478.518211 332.2 
L 478.518211 235.247619 
L 477.314216 235.247619 
z
" style="fill:#1f77b4;"/>
   </g>
   <g id="patch_247">
    <path clip-path="url(#pe75add995d)" d="M 478.81921 332.2 
L 480.023205 332.2 
L 480.023205 235.247619 
L 478.81921 235.247619 
z
" style="fill:#1f77b4;"/>
   </g>
   <g id="patch_248">
    <path clip-path="url(#pe75add995d)" d="M 480.324203 332.2 
L 481.528198 332.2 
L 481.528198 235.247619 
L 480.324203 235.247619 
z
" style="fill:#1f77b4;"/>
   </g>
   <g id="patch_249">
    <path clip-path="url(#pe75add995d)" d="M 481.829197 332.2 
L 483.033191 332.2 
L 483.033191 231.032298 
L 481.829197 231.032298 
z
" style="fill:#1f77b4;"/>
   </g>
   <g id="patch_250">
    <path clip-path="url(#pe75add995d)" d="M 483.33419 332.2 
L 484.538185 332.2 
L 484.538185 231.032298 
L 483.33419 231.032298 
z
" style="fill:#1f77b4;"/>
   </g>
   <g id="patch_251">
    <path clip-path="url(#pe75add995d)" d="M 484.839184 332.2 
L 486.043178 332.2 
L 486.043178 231.032298 
L 484.839184 231.032298 
z
" style="fill:#1f77b4;"/>
   </g>
   <g id="patch_252">
    <path clip-path="url(#pe75add995d)" d="M 486.344177 332.2 
L 487.548172 332.2 
L 487.548172 231.032298 
L 486.344177 231.032298 
z
" style="fill:#1f77b4;"/>
   </g>
   <g id="patch_253">
    <path clip-path="url(#pe75add995d)" d="M 487.84917 332.2 
L 489.053165 332.2 
L 489.053165 231.032298 
L 487.84917 231.032298 
z
" style="fill:#1f77b4;"/>
   </g>
   <g id="patch_254">
    <path clip-path="url(#pe75add995d)" d="M 489.354164 332.2 
L 490.558159 332.2 
L 490.558159 231.032298 
L 489.354164 231.032298 
z
" style="fill:#1f77b4;"/>
   </g>
   <g id="patch_255">
    <path clip-path="url(#pe75add995d)" d="M 490.859157 332.2 
L 492.063152 332.2 
L 492.063152 231.032298 
L 490.859157 231.032298 
z
" style="fill:#1f77b4;"/>
   </g>
   <g id="patch_256">
    <path clip-path="url(#pe75add995d)" d="M 492.364151 332.2 
L 493.568145 332.2 
L 493.568145 231.032298 
L 492.364151 231.032298 
z
" style="fill:#1f77b4;"/>
   </g>
   <g id="patch_257">
    <path clip-path="url(#pe75add995d)" d="M 493.869144 332.2 
L 495.073139 332.2 
L 495.073139 226.816977 
L 493.869144 226.816977 
z
" style="fill:#1f77b4;"/>
   </g>
   <g id="patch_258">
    <path clip-path="url(#pe75add995d)" d="M 495.374138 332.2 
L 496.578132 332.2 
L 496.578132 226.816977 
L 495.374138 226.816977 
z
" style="fill:#1f77b4;"/>
   </g>
   <g id="patch_259">
    <path clip-path="url(#pe75add995d)" d="M 496.879131 332.2 
L 498.083126 332.2 
L 498.083126 226.816977 
L 496.879131 226.816977 
z
" style="fill:#1f77b4;"/>
   </g>
   <g id="patch_260">
    <path clip-path="url(#pe75add995d)" d="M 498.384124 332.2 
L 499.588119 332.2 
L 499.588119 226.816977 
L 498.384124 226.816977 
z
" style="fill:#1f77b4;"/>
   </g>
   <g id="patch_261">
    <path clip-path="url(#pe75add995d)" d="M 499.889118 332.2 
L 501.093113 332.2 
L 501.093113 222.601656 
L 499.889118 222.601656 
z
" style="fill:#1f77b4;"/>
   </g>
   <g id="patch_262">
    <path clip-path="url(#pe75add995d)" d="M 501.394111 332.2 
L 502.598106 332.2 
L 502.598106 222.601656 
L 501.394111 222.601656 
z
" style="fill:#1f77b4;"/>
   </g>
   <g id="patch_263">
    <path clip-path="url(#pe75add995d)" d="M 502.899105 332.2 
L 504.103099 332.2 
L 504.103099 222.601656 
L 502.899105 222.601656 
z
" style="fill:#1f77b4;"/>
   </g>
   <g id="patch_264">
    <path clip-path="url(#pe75add995d)" d="M 504.404098 332.2 
L 505.608093 332.2 
L 505.608093 222.601656 
L 504.404098 222.601656 
z
" style="fill:#1f77b4;"/>
   </g>
   <g id="patch_265">
    <path clip-path="url(#pe75add995d)" d="M 505.909092 332.2 
L 507.113086 332.2 
L 507.113086 218.386335 
L 505.909092 218.386335 
z
" style="fill:#1f77b4;"/>
   </g>
   <g id="patch_266">
    <path clip-path="url(#pe75add995d)" d="M 507.414085 332.2 
L 508.61808 332.2 
L 508.61808 218.386335 
L 507.414085 218.386335 
z
" style="fill:#1f77b4;"/>
   </g>
   <g id="patch_267">
    <path clip-path="url(#pe75add995d)" d="M 508.919078 332.2 
L 510.123073 332.2 
L 510.123073 218.386335 
L 508.919078 218.386335 
z
" style="fill:#1f77b4;"/>
   </g>
   <g id="patch_268">
    <path clip-path="url(#pe75add995d)" d="M 510.424072 332.2 
L 511.628067 332.2 
L 511.628067 218.386335 
L 510.424072 218.386335 
z
" style="fill:#1f77b4;"/>
   </g>
   <g id="patch_269">
    <path clip-path="url(#pe75add995d)" d="M 511.929065 332.2 
L 513.13306 332.2 
L 513.13306 218.386335 
L 511.929065 218.386335 
z
" style="fill:#1f77b4;"/>
   </g>
   <g id="patch_270">
    <path clip-path="url(#pe75add995d)" d="M 513.434059 332.2 
L 514.638053 332.2 
L 514.638053 218.386335 
L 513.434059 218.386335 
z
" style="fill:#1f77b4;"/>
   </g>
   <g id="patch_271">
    <path clip-path="url(#pe75add995d)" d="M 514.939052 332.2 
L 516.143047 332.2 
L 516.143047 218.386335 
L 514.939052 218.386335 
z
" style="fill:#1f77b4;"/>
   </g>
   <g id="patch_272">
    <path clip-path="url(#pe75add995d)" d="M 516.444045 332.2 
L 517.64804 332.2 
L 517.64804 214.171014 
L 516.444045 214.171014 
z
" style="fill:#1f77b4;"/>
   </g>
   <g id="patch_273">
    <path clip-path="url(#pe75add995d)" d="M 517.949039 332.2 
L 519.153034 332.2 
L 519.153034 214.171014 
L 517.949039 214.171014 
z
" style="fill:#1f77b4;"/>
   </g>
   <g id="patch_274">
    <path clip-path="url(#pe75add995d)" d="M 519.454032 332.2 
L 520.658027 332.2 
L 520.658027 214.171014 
L 519.454032 214.171014 
z
" style="fill:#1f77b4;"/>
   </g>
   <g id="patch_275">
    <path clip-path="url(#pe75add995d)" d="M 520.959026 332.2 
L 522.16302 332.2 
L 522.16302 209.955694 
L 520.959026 209.955694 
z
" style="fill:#1f77b4;"/>
   </g>
   <g id="patch_276">
    <path clip-path="url(#pe75add995d)" d="M 522.464019 332.2 
L 523.668014 332.2 
L 523.668014 209.955694 
L 522.464019 209.955694 
z
" style="fill:#1f77b4;"/>
   </g>
   <g id="patch_277">
    <path clip-path="url(#pe75add995d)" d="M 523.969013 332.2 
L 525.173007 332.2 
L 525.173007 209.955694 
L 523.969013 209.955694 
z
" style="fill:#1f77b4;"/>
   </g>
   <g id="patch_278">
    <path clip-path="url(#pe75add995d)" d="M 525.474006 332.2 
L 526.678001 332.2 
L 526.678001 209.955694 
L 525.474006 209.955694 
z
" style="fill:#1f77b4;"/>
   </g>
   <g id="patch_279">
    <path clip-path="url(#pe75add995d)" d="M 526.978999 332.2 
L 528.182994 332.2 
L 528.182994 209.955694 
L 526.978999 209.955694 
z
" style="fill:#1f77b4;"/>
   </g>
   <g id="patch_280">
    <path clip-path="url(#pe75add995d)" d="M 528.483993 332.2 
L 529.687988 332.2 
L 529.687988 205.740373 
L 528.483993 205.740373 
z
" style="fill:#1f77b4;"/>
   </g>
   <g id="patch_281">
    <path clip-path="url(#pe75add995d)" d="M 529.988986 332.2 
L 531.192981 332.2 
L 531.192981 201.525052 
L 529.988986 201.525052 
z
" style="fill:#1f77b4;"/>
   </g>
   <g id="patch_282">
    <path clip-path="url(#pe75add995d)" d="M 531.49398 332.2 
L 532.697974 332.2 
L 532.697974 201.525052 
L 531.49398 201.525052 
z
" style="fill:#1f77b4;"/>
   </g>
   <g id="patch_283">
    <path clip-path="url(#pe75add995d)" d="M 532.998973 332.2 
L 534.202968 332.2 
L 534.202968 197.309731 
L 532.998973 197.309731 
z
" style="fill:#1f77b4;"/>
   </g>
   <g id="patch_284">
    <path clip-path="url(#pe75add995d)" d="M 534.503967 332.2 
L 535.707961 332.2 
L 535.707961 197.309731 
L 534.503967 197.309731 
z
" style="fill:#1f77b4;"/>
   </g>
   <g id="patch_285">
    <path clip-path="url(#pe75add995d)" d="M 536.00896 332.2 
L 537.212955 332.2 
L 537.212955 197.309731 
L 536.00896 197.309731 
z
" style="fill:#1f77b4;"/>
   </g>
   <g id="patch_286">
    <path clip-path="url(#pe75add995d)" d="M 537.513953 332.2 
L 538.717948 332.2 
L 538.717948 193.09441 
L 537.513953 193.09441 
z
" style="fill:#1f77b4;"/>
   </g>
   <g id="patch_287">
    <path clip-path="url(#pe75add995d)" d="M 539.018947 332.2 
L 540.222942 332.2 
L 540.222942 193.09441 
L 539.018947 193.09441 
z
" style="fill:#1f77b4;"/>
   </g>
   <g id="patch_288">
    <path clip-path="url(#pe75add995d)" d="M 540.52394 332.2 
L 541.727935 332.2 
L 541.727935 184.663768 
L 540.52394 184.663768 
z
" style="fill:#1f77b4;"/>
   </g>
   <g id="patch_289">
    <path clip-path="url(#pe75add995d)" d="M 542.028934 332.2 
L 543.232928 332.2 
L 543.232928 184.663768 
L 542.028934 184.663768 
z
" style="fill:#1f77b4;"/>
   </g>
   <g id="patch_290">
    <path clip-path="url(#pe75add995d)" d="M 543.533927 332.2 
L 544.737922 332.2 
L 544.737922 184.663768 
L 543.533927 184.663768 
z
" style="fill:#1f77b4;"/>
   </g>
   <g id="patch_291">
    <path clip-path="url(#pe75add995d)" d="M 545.03892 332.2 
L 546.242915 332.2 
L 546.242915 184.663768 
L 545.03892 184.663768 
z
" style="fill:#1f77b4;"/>
   </g>
   <g id="patch_292">
    <path clip-path="url(#pe75add995d)" d="M 546.543914 332.2 
L 547.747909 332.2 
L 547.747909 180.448447 
L 546.543914 180.448447 
z
" style="fill:#1f77b4;"/>
   </g>
   <g id="patch_293">
    <path clip-path="url(#pe75add995d)" d="M 548.048907 332.2 
L 549.252902 332.2 
L 549.252902 176.233126 
L 548.048907 176.233126 
z
" style="fill:#1f77b4;"/>
   </g>
   <g id="patch_294">
    <path clip-path="url(#pe75add995d)" d="M 549.553901 332.2 
L 550.757895 332.2 
L 550.757895 176.233126 
L 549.553901 176.233126 
z
" style="fill:#1f77b4;"/>
   </g>
   <g id="patch_295">
    <path clip-path="url(#pe75add995d)" d="M 551.058894 332.2 
L 552.262889 332.2 
L 552.262889 176.233126 
L 551.058894 176.233126 
z
" style="fill:#1f77b4;"/>
   </g>
   <g id="patch_296">
    <path clip-path="url(#pe75add995d)" d="M 552.563888 332.2 
L 553.767882 332.2 
L 553.767882 172.017805 
L 552.563888 172.017805 
z
" style="fill:#1f77b4;"/>
   </g>
   <g id="patch_297">
    <path clip-path="url(#pe75add995d)" d="M 554.068881 332.2 
L 555.272876 332.2 
L 555.272876 163.587164 
L 554.068881 163.587164 
z
" style="fill:#1f77b4;"/>
   </g>
   <g id="patch_298">
    <path clip-path="url(#pe75add995d)" d="M 555.573874 332.2 
L 556.777869 332.2 
L 556.777869 159.371843 
L 555.573874 159.371843 
z
" style="fill:#1f77b4;"/>
   </g>
   <g id="patch_299">
    <path clip-path="url(#pe75add995d)" d="M 557.078868 332.2 
L 558.282863 332.2 
L 558.282863 150.941201 
L 557.078868 150.941201 
z
" style="fill:#1f77b4;"/>
   </g>
   <g id="patch_300">
    <path clip-path="url(#pe75add995d)" d="M 558.583861 332.2 
L 559.787856 332.2 
L 559.787856 150.941201 
L 558.583861 150.941201 
z
" style="fill:#1f77b4;"/>
   </g>
   <g id="patch_301">
    <path clip-path="url(#pe75add995d)" d="M 560.088855 332.2 
L 561.292849 332.2 
L 561.292849 146.72588 
L 560.088855 146.72588 
z
" style="fill:#1f77b4;"/>
   </g>
   <g id="patch_302">
    <path clip-path="url(#pe75add995d)" d="M 561.593848 332.2 
L 562.797843 332.2 
L 562.797843 146.72588 
L 561.593848 146.72588 
z
" style="fill:#1f77b4;"/>
   </g>
   <g id="patch_303">
    <path clip-path="url(#pe75add995d)" d="M 563.098842 332.2 
L 564.302836 332.2 
L 564.302836 134.079917 
L 563.098842 134.079917 
z
" style="fill:#1f77b4;"/>
   </g>
   <g id="patch_304">
    <path clip-path="url(#pe75add995d)" d="M 564.603835 332.2 
L 565.80783 332.2 
L 565.80783 108.787992 
L 564.603835 108.787992 
z
" style="fill:#1f77b4;"/>
   </g>
   <g id="patch_305">
    <path clip-path="url(#pe75add995d)" d="M 566.108828 332.2 
L 567.312823 332.2 
L 567.312823 96.142029 
L 566.108828 96.142029 
z
" style="fill:#1f77b4;"/>
   </g>
   <g id="patch_306">
    <path clip-path="url(#pe75add995d)" d="M 567.613822 332.2 
L 568.817817 332.2 
L 568.817817 83.496066 
L 567.613822 83.496066 
z
" style="fill:#1f77b4;"/>
   </g>
   <g id="patch_307">
    <path clip-path="url(#pe75add995d)" d="M 569.118815 332.2 
L 570.32281 332.2 
L 570.32281 41.342857 
L 569.118815 41.342857 
z
" style="fill:#1f77b4;"/>
   </g>
   <g id="matplotlib.axis_3">
    <g id="xtick_8">
     <g id="line2d_16">
      <g>
       <use style="stroke:#000000;stroke-width:0.8;" x="345.476793" xlink:href="#mc649d39498" y="332.2"/>
      </g>
     </g>
     <g id="text_18">
      <!-- 0 -->
      <g transform="translate(342.295543 346.798438)scale(0.1 -0.1)">
       <use xlink:href="#DejaVuSans-48"/>
      </g>
     </g>
    </g>
    <g id="xtick_9">
     <g id="line2d_17">
      <g>
       <use style="stroke:#000000;stroke-width:0.8;" x="383.101628" xlink:href="#mc649d39498" y="332.2"/>
      </g>
     </g>
     <g id="text_19">
      <!-- 25 -->
      <g transform="translate(376.739128 346.798438)scale(0.1 -0.1)">
       <use xlink:href="#DejaVuSans-50"/>
       <use x="63.623047" xlink:href="#DejaVuSans-53"/>
      </g>
     </g>
    </g>
    <g id="xtick_10">
     <g id="line2d_18">
      <g>
       <use style="stroke:#000000;stroke-width:0.8;" x="420.726464" xlink:href="#mc649d39498" y="332.2"/>
      </g>
     </g>
     <g id="text_20">
      <!-- 50 -->
      <g transform="translate(414.363964 346.798438)scale(0.1 -0.1)">
       <use xlink:href="#DejaVuSans-53"/>
       <use x="63.623047" xlink:href="#DejaVuSans-48"/>
      </g>
     </g>
    </g>
    <g id="xtick_11">
     <g id="line2d_19">
      <g>
       <use style="stroke:#000000;stroke-width:0.8;" x="458.351299" xlink:href="#mc649d39498" y="332.2"/>
      </g>
     </g>
     <g id="text_21">
      <!-- 75 -->
      <g transform="translate(451.988799 346.798438)scale(0.1 -0.1)">
       <use xlink:href="#DejaVuSans-55"/>
       <use x="63.623047" xlink:href="#DejaVuSans-53"/>
      </g>
     </g>
    </g>
    <g id="xtick_12">
     <g id="line2d_20">
      <g>
       <use style="stroke:#000000;stroke-width:0.8;" x="495.976135" xlink:href="#mc649d39498" y="332.2"/>
      </g>
     </g>
     <g id="text_22">
      <!-- 100 -->
      <g transform="translate(486.432385 346.798438)scale(0.1 -0.1)">
       <use xlink:href="#DejaVuSans-49"/>
       <use x="63.623047" xlink:href="#DejaVuSans-48"/>
       <use x="127.246094" xlink:href="#DejaVuSans-48"/>
      </g>
     </g>
    </g>
    <g id="xtick_13">
     <g id="line2d_21">
      <g>
       <use style="stroke:#000000;stroke-width:0.8;" x="533.60097" xlink:href="#mc649d39498" y="332.2"/>
      </g>
     </g>
     <g id="text_23">
      <!-- 125 -->
      <g transform="translate(524.05722 346.798438)scale(0.1 -0.1)">
       <use xlink:href="#DejaVuSans-49"/>
       <use x="63.623047" xlink:href="#DejaVuSans-50"/>
       <use x="127.246094" xlink:href="#DejaVuSans-53"/>
      </g>
     </g>
    </g>
    <g id="xtick_14">
     <g id="line2d_22">
      <g>
       <use style="stroke:#000000;stroke-width:0.8;" x="571.225806" xlink:href="#mc649d39498" y="332.2"/>
      </g>
     </g>
     <g id="text_24">
      <!-- 150 -->
      <g transform="translate(561.682056 346.798438)scale(0.1 -0.1)">
       <use xlink:href="#DejaVuSans-49"/>
       <use x="63.623047" xlink:href="#DejaVuSans-53"/>
       <use x="127.246094" xlink:href="#DejaVuSans-48"/>
      </g>
     </g>
    </g>
   </g>
   <g id="matplotlib.axis_4">
    <g id="ytick_9">
     <g id="line2d_23">
      <g>
       <use style="stroke:#000000;stroke-width:0.8;" x="333.602395" xlink:href="#ma907b8ddf7" y="332.2"/>
      </g>
     </g>
     <g id="text_25">
      <!-- 0 -->
      <g transform="translate(320.239895 335.999219)scale(0.1 -0.1)">
       <use xlink:href="#DejaVuSans-48"/>
      </g>
     </g>
    </g>
    <g id="ytick_10">
     <g id="line2d_24">
      <g>
       <use style="stroke:#000000;stroke-width:0.8;" x="333.602395" xlink:href="#ma907b8ddf7" y="290.046791"/>
      </g>
     </g>
     <g id="text_26">
      <!-- 10 -->
      <g transform="translate(313.877395 293.84601)scale(0.1 -0.1)">
       <use xlink:href="#DejaVuSans-49"/>
       <use x="63.623047" xlink:href="#DejaVuSans-48"/>
      </g>
     </g>
    </g>
    <g id="ytick_11">
     <g id="line2d_25">
      <g>
       <use style="stroke:#000000;stroke-width:0.8;" x="333.602395" xlink:href="#ma907b8ddf7" y="247.893582"/>
      </g>
     </g>
     <g id="text_27">
      <!-- 20 -->
      <g transform="translate(313.877395 251.692801)scale(0.1 -0.1)">
       <use xlink:href="#DejaVuSans-50"/>
       <use x="63.623047" xlink:href="#DejaVuSans-48"/>
      </g>
     </g>
    </g>
    <g id="ytick_12">
     <g id="line2d_26">
      <g>
       <use style="stroke:#000000;stroke-width:0.8;" x="333.602395" xlink:href="#ma907b8ddf7" y="205.740373"/>
      </g>
     </g>
     <g id="text_28">
      <!-- 30 -->
      <g transform="translate(313.877395 209.539591)scale(0.1 -0.1)">
       <use xlink:href="#DejaVuSans-51"/>
       <use x="63.623047" xlink:href="#DejaVuSans-48"/>
      </g>
     </g>
    </g>
    <g id="ytick_13">
     <g id="line2d_27">
      <g>
       <use style="stroke:#000000;stroke-width:0.8;" x="333.602395" xlink:href="#ma907b8ddf7" y="163.587164"/>
      </g>
     </g>
     <g id="text_29">
      <!-- 40 -->
      <g transform="translate(313.877395 167.386382)scale(0.1 -0.1)">
       <defs>
        <path d="M 37.796875 64.3125 
L 12.890625 25.390625 
L 37.796875 25.390625 
z
M 35.203125 72.90625 
L 47.609375 72.90625 
L 47.609375 25.390625 
L 58.015625 25.390625 
L 58.015625 17.1875 
L 47.609375 17.1875 
L 47.609375 0 
L 37.796875 0 
L 37.796875 17.1875 
L 4.890625 17.1875 
L 4.890625 26.703125 
z
" id="DejaVuSans-52"/>
       </defs>
       <use xlink:href="#DejaVuSans-52"/>
       <use x="63.623047" xlink:href="#DejaVuSans-48"/>
      </g>
     </g>
    </g>
    <g id="ytick_14">
     <g id="line2d_28">
      <g>
       <use style="stroke:#000000;stroke-width:0.8;" x="333.602395" xlink:href="#ma907b8ddf7" y="121.433954"/>
      </g>
     </g>
     <g id="text_30">
      <!-- 50 -->
      <g transform="translate(313.877395 125.233173)scale(0.1 -0.1)">
       <use xlink:href="#DejaVuSans-53"/>
       <use x="63.623047" xlink:href="#DejaVuSans-48"/>
      </g>
     </g>
    </g>
    <g id="ytick_15">
     <g id="line2d_29">
      <g>
       <use style="stroke:#000000;stroke-width:0.8;" x="333.602395" xlink:href="#ma907b8ddf7" y="79.280745"/>
      </g>
     </g>
     <g id="text_31">
      <!-- 60 -->
      <g transform="translate(313.877395 83.079964)scale(0.1 -0.1)">
       <defs>
        <path d="M 33.015625 40.375 
Q 26.375 40.375 22.484375 35.828125 
Q 18.609375 31.296875 18.609375 23.390625 
Q 18.609375 15.53125 22.484375 10.953125 
Q 26.375 6.390625 33.015625 6.390625 
Q 39.65625 6.390625 43.53125 10.953125 
Q 47.40625 15.53125 47.40625 23.390625 
Q 47.40625 31.296875 43.53125 35.828125 
Q 39.65625 40.375 33.015625 40.375 
z
M 52.59375 71.296875 
L 52.59375 62.3125 
Q 48.875 64.0625 45.09375 64.984375 
Q 41.3125 65.921875 37.59375 65.921875 
Q 27.828125 65.921875 22.671875 59.328125 
Q 17.53125 52.734375 16.796875 39.40625 
Q 19.671875 43.65625 24.015625 45.921875 
Q 28.375 48.1875 33.59375 48.1875 
Q 44.578125 48.1875 50.953125 41.515625 
Q 57.328125 34.859375 57.328125 23.390625 
Q 57.328125 12.15625 50.6875 5.359375 
Q 44.046875 -1.421875 33.015625 -1.421875 
Q 20.359375 -1.421875 13.671875 8.265625 
Q 6.984375 17.96875 6.984375 36.375 
Q 6.984375 53.65625 15.1875 63.9375 
Q 23.390625 74.21875 37.203125 74.21875 
Q 40.921875 74.21875 44.703125 73.484375 
Q 48.484375 72.75 52.59375 71.296875 
z
" id="DejaVuSans-54"/>
       </defs>
       <use xlink:href="#DejaVuSans-54"/>
       <use x="63.623047" xlink:href="#DejaVuSans-48"/>
      </g>
     </g>
    </g>
    <g id="ytick_16">
     <g id="line2d_30">
      <g>
       <use style="stroke:#000000;stroke-width:0.8;" x="333.602395" xlink:href="#ma907b8ddf7" y="37.127536"/>
      </g>
     </g>
     <g id="text_32">
      <!-- 70 -->
      <g transform="translate(313.877395 40.926755)scale(0.1 -0.1)">
       <use xlink:href="#DejaVuSans-55"/>
       <use x="63.623047" xlink:href="#DejaVuSans-48"/>
      </g>
     </g>
    </g>
   </g>
   <g id="patch_308">
    <path d="M 333.602395 332.2 
L 333.602395 26.8 
" style="fill:none;stroke:#000000;stroke-linecap:square;stroke-linejoin:miter;stroke-width:0.8;"/>
   </g>
   <g id="patch_309">
    <path d="M 581.595211 332.2 
L 581.595211 26.8 
" style="fill:none;stroke:#000000;stroke-linecap:square;stroke-linejoin:miter;stroke-width:0.8;"/>
   </g>
   <g id="patch_310">
    <path d="M 333.602395 332.2 
L 581.595211 332.2 
" style="fill:none;stroke:#000000;stroke-linecap:square;stroke-linejoin:miter;stroke-width:0.8;"/>
   </g>
   <g id="patch_311">
    <path d="M 333.602395 26.8 
L 581.595211 26.8 
" style="fill:none;stroke:#000000;stroke-linecap:square;stroke-linejoin:miter;stroke-width:0.8;"/>
   </g>
   <g id="text_33">
    <!-- de -->
    <g transform="translate(450.097865 20.8)scale(0.12 -0.12)">
     <defs>
      <path d="M 45.40625 46.390625 
L 45.40625 75.984375 
L 54.390625 75.984375 
L 54.390625 0 
L 45.40625 0 
L 45.40625 8.203125 
Q 42.578125 3.328125 38.25 0.953125 
Q 33.9375 -1.421875 27.875 -1.421875 
Q 17.96875 -1.421875 11.734375 6.484375 
Q 5.515625 14.40625 5.515625 27.296875 
Q 5.515625 40.1875 11.734375 48.09375 
Q 17.96875 56 27.875 56 
Q 33.9375 56 38.25 53.625 
Q 42.578125 51.265625 45.40625 46.390625 
z
M 14.796875 27.296875 
Q 14.796875 17.390625 18.875 11.75 
Q 22.953125 6.109375 30.078125 6.109375 
Q 37.203125 6.109375 41.296875 11.75 
Q 45.40625 17.390625 45.40625 27.296875 
Q 45.40625 37.203125 41.296875 42.84375 
Q 37.203125 48.484375 30.078125 48.484375 
Q 22.953125 48.484375 18.875 42.84375 
Q 14.796875 37.203125 14.796875 27.296875 
z
" id="DejaVuSans-100"/>
     </defs>
     <use xlink:href="#DejaVuSans-100"/>
     <use x="63.476562" xlink:href="#DejaVuSans-101"/>
    </g>
   </g>
  </g>
 </g>
 <defs>
  <clipPath id="p8cdd043f4e">
   <rect height="305.4" width="247.992816" x="53.8" y="26.8"/>
  </clipPath>
  <clipPath id="pe75add995d">
   <rect height="305.4" width="247.992816" x="333.602395" y="26.8"/>
  </clipPath>
 </defs>
</svg>
