<?xml version="1.0" encoding="utf-8" standalone="no"?>
<!DOCTYPE svg PUBLIC "-//W3C//DTD SVG 1.1//EN"
  "http://www.w3.org/Graphics/SVG/1.1/DTD/svg11.dtd">
<!-- Created with matplotlib (https://matplotlib.org/) -->
<svg height="360pt" version="1.1" viewBox="0 0 1152 360" width="1152pt" xmlns="http://www.w3.org/2000/svg" xmlns:xlink="http://www.w3.org/1999/xlink">
 <metadata>
  <rdf:RDF xmlns:cc="http://creativecommons.org/ns#" xmlns:dc="http://purl.org/dc/elements/1.1/" xmlns:rdf="http://www.w3.org/1999/02/22-rdf-syntax-ns#">
   <cc:Work>
    <dc:type rdf:resource="http://purl.org/dc/dcmitype/StillImage"/>
    <dc:date>2021-04-23T10:44:23.846988</dc:date>
    <dc:format>image/svg+xml</dc:format>
    <dc:creator>
     <cc:Agent>
      <dc:title>Matplotlib v3.3.2, https://matplotlib.org/</dc:title>
     </cc:Agent>
    </dc:creator>
   </cc:Work>
  </rdf:RDF>
 </metadata>
 <defs>
  <style type="text/css">*{stroke-linecap:butt;stroke-linejoin:round;}</style>
 </defs>
 <g id="figure_1">
  <g id="patch_1">
   <path d="M 0 360 
L 1152 360 
L 1152 0 
L 0 0 
z
" style="fill:none;"/>
  </g>
  <g id="axes_1">
   <g id="patch_2">
    <path d="M 53.925 332.2 
L 301.792816 332.2 
L 301.792816 26.8 
L 53.925 26.8 
z
" style="fill:#ffffff;"/>
   </g>
   <g id="patch_3">
    <path clip-path="url(#p8b2f81c204)" d="M 65.191719 332.2 
L 66.395107 332.2 
L 66.395107 322.867685 
L 65.191719 322.867685 
z
" style="fill:#1f77b4;"/>
   </g>
   <g id="patch_4">
    <path clip-path="url(#p8b2f81c204)" d="M 66.695954 332.2 
L 67.899342 332.2 
L 67.899342 322.867685 
L 66.695954 322.867685 
z
" style="fill:#1f77b4;"/>
   </g>
   <g id="patch_5">
    <path clip-path="url(#p8b2f81c204)" d="M 68.200189 332.2 
L 69.403576 332.2 
L 69.403576 322.867685 
L 68.200189 322.867685 
z
" style="fill:#1f77b4;"/>
   </g>
   <g id="patch_6">
    <path clip-path="url(#p8b2f81c204)" d="M 69.704423 332.2 
L 70.907811 332.2 
L 70.907811 322.867685 
L 69.704423 322.867685 
z
" style="fill:#1f77b4;"/>
   </g>
   <g id="patch_7">
    <path clip-path="url(#p8b2f81c204)" d="M 71.208658 332.2 
L 72.412046 332.2 
L 72.412046 322.867685 
L 71.208658 322.867685 
z
" style="fill:#1f77b4;"/>
   </g>
   <g id="patch_8">
    <path clip-path="url(#p8b2f81c204)" d="M 72.712893 332.2 
L 73.916281 332.2 
L 73.916281 322.867685 
L 72.712893 322.867685 
z
" style="fill:#1f77b4;"/>
   </g>
   <g id="patch_9">
    <path clip-path="url(#p8b2f81c204)" d="M 74.217128 332.2 
L 75.420516 332.2 
L 75.420516 322.867685 
L 74.217128 322.867685 
z
" style="fill:#1f77b4;"/>
   </g>
   <g id="patch_10">
    <path clip-path="url(#p8b2f81c204)" d="M 75.721363 332.2 
L 76.924751 332.2 
L 76.924751 322.867685 
L 75.721363 322.867685 
z
" style="fill:#1f77b4;"/>
   </g>
   <g id="patch_11">
    <path clip-path="url(#p8b2f81c204)" d="M 77.225598 332.2 
L 78.428985 332.2 
L 78.428985 322.867685 
L 77.225598 322.867685 
z
" style="fill:#1f77b4;"/>
   </g>
   <g id="patch_12">
    <path clip-path="url(#p8b2f81c204)" d="M 78.729832 332.2 
L 79.93322 332.2 
L 79.93322 322.867685 
L 78.729832 322.867685 
z
" style="fill:#1f77b4;"/>
   </g>
   <g id="patch_13">
    <path clip-path="url(#p8b2f81c204)" d="M 80.234067 332.2 
L 81.437455 332.2 
L 81.437455 322.867685 
L 80.234067 322.867685 
z
" style="fill:#1f77b4;"/>
   </g>
   <g id="patch_14">
    <path clip-path="url(#p8b2f81c204)" d="M 81.738302 332.2 
L 82.94169 332.2 
L 82.94169 322.867685 
L 81.738302 322.867685 
z
" style="fill:#1f77b4;"/>
   </g>
   <g id="patch_15">
    <path clip-path="url(#p8b2f81c204)" d="M 83.242537 332.2 
L 84.445925 332.2 
L 84.445925 322.867685 
L 83.242537 322.867685 
z
" style="fill:#1f77b4;"/>
   </g>
   <g id="patch_16">
    <path clip-path="url(#p8b2f81c204)" d="M 84.746772 332.2 
L 85.95016 332.2 
L 85.95016 322.867685 
L 84.746772 322.867685 
z
" style="fill:#1f77b4;"/>
   </g>
   <g id="patch_17">
    <path clip-path="url(#p8b2f81c204)" d="M 86.251007 332.2 
L 87.454394 332.2 
L 87.454394 322.867685 
L 86.251007 322.867685 
z
" style="fill:#1f77b4;"/>
   </g>
   <g id="patch_18">
    <path clip-path="url(#p8b2f81c204)" d="M 87.755241 332.2 
L 88.958629 332.2 
L 88.958629 322.867685 
L 87.755241 322.867685 
z
" style="fill:#1f77b4;"/>
   </g>
   <g id="patch_19">
    <path clip-path="url(#p8b2f81c204)" d="M 89.259476 332.2 
L 90.462864 332.2 
L 90.462864 322.867685 
L 89.259476 322.867685 
z
" style="fill:#1f77b4;"/>
   </g>
   <g id="patch_20">
    <path clip-path="url(#p8b2f81c204)" d="M 90.763711 332.2 
L 91.967099 332.2 
L 91.967099 322.867685 
L 90.763711 322.867685 
z
" style="fill:#1f77b4;"/>
   </g>
   <g id="patch_21">
    <path clip-path="url(#p8b2f81c204)" d="M 92.267946 332.2 
L 93.471334 332.2 
L 93.471334 322.867685 
L 92.267946 322.867685 
z
" style="fill:#1f77b4;"/>
   </g>
   <g id="patch_22">
    <path clip-path="url(#p8b2f81c204)" d="M 93.772181 332.2 
L 94.975569 332.2 
L 94.975569 322.867685 
L 93.772181 322.867685 
z
" style="fill:#1f77b4;"/>
   </g>
   <g id="patch_23">
    <path clip-path="url(#p8b2f81c204)" d="M 95.276416 332.2 
L 96.479803 332.2 
L 96.479803 322.867685 
L 95.276416 322.867685 
z
" style="fill:#1f77b4;"/>
   </g>
   <g id="patch_24">
    <path clip-path="url(#p8b2f81c204)" d="M 96.78065 332.2 
L 97.984038 332.2 
L 97.984038 322.867685 
L 96.78065 322.867685 
z
" style="fill:#1f77b4;"/>
   </g>
   <g id="patch_25">
    <path clip-path="url(#p8b2f81c204)" d="M 98.284885 332.2 
L 99.488273 332.2 
L 99.488273 322.867685 
L 98.284885 322.867685 
z
" style="fill:#1f77b4;"/>
   </g>
   <g id="patch_26">
    <path clip-path="url(#p8b2f81c204)" d="M 99.78912 332.2 
L 100.992508 332.2 
L 100.992508 322.867685 
L 99.78912 322.867685 
z
" style="fill:#1f77b4;"/>
   </g>
   <g id="patch_27">
    <path clip-path="url(#p8b2f81c204)" d="M 101.293355 332.2 
L 102.496743 332.2 
L 102.496743 322.867685 
L 101.293355 322.867685 
z
" style="fill:#1f77b4;"/>
   </g>
   <g id="patch_28">
    <path clip-path="url(#p8b2f81c204)" d="M 102.79759 332.2 
L 104.000978 332.2 
L 104.000978 322.867685 
L 102.79759 322.867685 
z
" style="fill:#1f77b4;"/>
   </g>
   <g id="patch_29">
    <path clip-path="url(#p8b2f81c204)" d="M 104.301825 332.2 
L 105.505212 332.2 
L 105.505212 322.867685 
L 104.301825 322.867685 
z
" style="fill:#1f77b4;"/>
   </g>
   <g id="patch_30">
    <path clip-path="url(#p8b2f81c204)" d="M 105.806059 332.2 
L 107.009447 332.2 
L 107.009447 322.867685 
L 105.806059 322.867685 
z
" style="fill:#1f77b4;"/>
   </g>
   <g id="patch_31">
    <path clip-path="url(#p8b2f81c204)" d="M 107.310294 332.2 
L 108.513682 332.2 
L 108.513682 322.867685 
L 107.310294 322.867685 
z
" style="fill:#1f77b4;"/>
   </g>
   <g id="patch_32">
    <path clip-path="url(#p8b2f81c204)" d="M 108.814529 332.2 
L 110.017917 332.2 
L 110.017917 322.867685 
L 108.814529 322.867685 
z
" style="fill:#1f77b4;"/>
   </g>
   <g id="patch_33">
    <path clip-path="url(#p8b2f81c204)" d="M 110.318764 332.2 
L 111.522152 332.2 
L 111.522152 322.867685 
L 110.318764 322.867685 
z
" style="fill:#1f77b4;"/>
   </g>
   <g id="patch_34">
    <path clip-path="url(#p8b2f81c204)" d="M 111.822999 332.2 
L 113.026387 332.2 
L 113.026387 322.867685 
L 111.822999 322.867685 
z
" style="fill:#1f77b4;"/>
   </g>
   <g id="patch_35">
    <path clip-path="url(#p8b2f81c204)" d="M 113.327234 332.2 
L 114.530621 332.2 
L 114.530621 322.867685 
L 113.327234 322.867685 
z
" style="fill:#1f77b4;"/>
   </g>
   <g id="patch_36">
    <path clip-path="url(#p8b2f81c204)" d="M 114.831468 332.2 
L 116.034856 332.2 
L 116.034856 322.867685 
L 114.831468 322.867685 
z
" style="fill:#1f77b4;"/>
   </g>
   <g id="patch_37">
    <path clip-path="url(#p8b2f81c204)" d="M 116.335703 332.2 
L 117.539091 332.2 
L 117.539091 322.867685 
L 116.335703 322.867685 
z
" style="fill:#1f77b4;"/>
   </g>
   <g id="patch_38">
    <path clip-path="url(#p8b2f81c204)" d="M 117.839938 332.2 
L 119.043326 332.2 
L 119.043326 322.867685 
L 117.839938 322.867685 
z
" style="fill:#1f77b4;"/>
   </g>
   <g id="patch_39">
    <path clip-path="url(#p8b2f81c204)" d="M 119.344173 332.2 
L 120.547561 332.2 
L 120.547561 322.867685 
L 119.344173 322.867685 
z
" style="fill:#1f77b4;"/>
   </g>
   <g id="patch_40">
    <path clip-path="url(#p8b2f81c204)" d="M 120.848408 332.2 
L 122.051796 332.2 
L 122.051796 322.867685 
L 120.848408 322.867685 
z
" style="fill:#1f77b4;"/>
   </g>
   <g id="patch_41">
    <path clip-path="url(#p8b2f81c204)" d="M 122.352643 332.2 
L 123.55603 332.2 
L 123.55603 322.867685 
L 122.352643 322.867685 
z
" style="fill:#1f77b4;"/>
   </g>
   <g id="patch_42">
    <path clip-path="url(#p8b2f81c204)" d="M 123.856877 332.2 
L 125.060265 332.2 
L 125.060265 322.867685 
L 123.856877 322.867685 
z
" style="fill:#1f77b4;"/>
   </g>
   <g id="patch_43">
    <path clip-path="url(#p8b2f81c204)" d="M 125.361112 332.2 
L 126.5645 332.2 
L 126.5645 321.312299 
L 125.361112 321.312299 
z
" style="fill:#1f77b4;"/>
   </g>
   <g id="patch_44">
    <path clip-path="url(#p8b2f81c204)" d="M 126.865347 332.2 
L 128.068735 332.2 
L 128.068735 321.312299 
L 126.865347 321.312299 
z
" style="fill:#1f77b4;"/>
   </g>
   <g id="patch_45">
    <path clip-path="url(#p8b2f81c204)" d="M 128.369582 332.2 
L 129.57297 332.2 
L 129.57297 321.312299 
L 128.369582 321.312299 
z
" style="fill:#1f77b4;"/>
   </g>
   <g id="patch_46">
    <path clip-path="url(#p8b2f81c204)" d="M 129.873817 332.2 
L 131.077205 332.2 
L 131.077205 321.312299 
L 129.873817 321.312299 
z
" style="fill:#1f77b4;"/>
   </g>
   <g id="patch_47">
    <path clip-path="url(#p8b2f81c204)" d="M 131.378052 332.2 
L 132.581439 332.2 
L 132.581439 321.312299 
L 131.378052 321.312299 
z
" style="fill:#1f77b4;"/>
   </g>
   <g id="patch_48">
    <path clip-path="url(#p8b2f81c204)" d="M 132.882286 332.2 
L 134.085674 332.2 
L 134.085674 321.312299 
L 132.882286 321.312299 
z
" style="fill:#1f77b4;"/>
   </g>
   <g id="patch_49">
    <path clip-path="url(#p8b2f81c204)" d="M 134.386521 332.2 
L 135.589909 332.2 
L 135.589909 321.312299 
L 134.386521 321.312299 
z
" style="fill:#1f77b4;"/>
   </g>
   <g id="patch_50">
    <path clip-path="url(#p8b2f81c204)" d="M 135.890756 332.2 
L 137.094144 332.2 
L 137.094144 321.312299 
L 135.890756 321.312299 
z
" style="fill:#1f77b4;"/>
   </g>
   <g id="patch_51">
    <path clip-path="url(#p8b2f81c204)" d="M 137.394991 332.2 
L 138.598379 332.2 
L 138.598379 321.312299 
L 137.394991 321.312299 
z
" style="fill:#1f77b4;"/>
   </g>
   <g id="patch_52">
    <path clip-path="url(#p8b2f81c204)" d="M 138.899226 332.2 
L 140.102614 332.2 
L 140.102614 321.312299 
L 138.899226 321.312299 
z
" style="fill:#1f77b4;"/>
   </g>
   <g id="patch_53">
    <path clip-path="url(#p8b2f81c204)" d="M 140.403461 332.2 
L 141.606848 332.2 
L 141.606848 321.312299 
L 140.403461 321.312299 
z
" style="fill:#1f77b4;"/>
   </g>
   <g id="patch_54">
    <path clip-path="url(#p8b2f81c204)" d="M 141.907695 332.2 
L 143.111083 332.2 
L 143.111083 321.312299 
L 141.907695 321.312299 
z
" style="fill:#1f77b4;"/>
   </g>
   <g id="patch_55">
    <path clip-path="url(#p8b2f81c204)" d="M 143.41193 332.2 
L 144.615318 332.2 
L 144.615318 321.312299 
L 143.41193 321.312299 
z
" style="fill:#1f77b4;"/>
   </g>
   <g id="patch_56">
    <path clip-path="url(#p8b2f81c204)" d="M 144.916165 332.2 
L 146.119553 332.2 
L 146.119553 321.312299 
L 144.916165 321.312299 
z
" style="fill:#1f77b4;"/>
   </g>
   <g id="patch_57">
    <path clip-path="url(#p8b2f81c204)" d="M 146.4204 332.2 
L 147.623788 332.2 
L 147.623788 321.312299 
L 146.4204 321.312299 
z
" style="fill:#1f77b4;"/>
   </g>
   <g id="patch_58">
    <path clip-path="url(#p8b2f81c204)" d="M 147.924635 332.2 
L 149.128023 332.2 
L 149.128023 321.312299 
L 147.924635 321.312299 
z
" style="fill:#1f77b4;"/>
   </g>
   <g id="patch_59">
    <path clip-path="url(#p8b2f81c204)" d="M 149.42887 332.2 
L 150.632258 332.2 
L 150.632258 321.312299 
L 149.42887 321.312299 
z
" style="fill:#1f77b4;"/>
   </g>
   <g id="patch_60">
    <path clip-path="url(#p8b2f81c204)" d="M 150.933104 332.2 
L 152.136492 332.2 
L 152.136492 321.312299 
L 150.933104 321.312299 
z
" style="fill:#1f77b4;"/>
   </g>
   <g id="patch_61">
    <path clip-path="url(#p8b2f81c204)" d="M 152.437339 332.2 
L 153.640727 332.2 
L 153.640727 321.312299 
L 152.437339 321.312299 
z
" style="fill:#1f77b4;"/>
   </g>
   <g id="patch_62">
    <path clip-path="url(#p8b2f81c204)" d="M 153.941574 332.2 
L 155.144962 332.2 
L 155.144962 321.312299 
L 153.941574 321.312299 
z
" style="fill:#1f77b4;"/>
   </g>
   <g id="patch_63">
    <path clip-path="url(#p8b2f81c204)" d="M 155.445809 332.2 
L 156.649197 332.2 
L 156.649197 321.312299 
L 155.445809 321.312299 
z
" style="fill:#1f77b4;"/>
   </g>
   <g id="patch_64">
    <path clip-path="url(#p8b2f81c204)" d="M 156.950044 332.2 
L 158.153432 332.2 
L 158.153432 321.312299 
L 156.950044 321.312299 
z
" style="fill:#1f77b4;"/>
   </g>
   <g id="patch_65">
    <path clip-path="url(#p8b2f81c204)" d="M 158.454279 332.2 
L 159.657667 332.2 
L 159.657667 321.312299 
L 158.454279 321.312299 
z
" style="fill:#1f77b4;"/>
   </g>
   <g id="patch_66">
    <path clip-path="url(#p8b2f81c204)" d="M 159.958513 332.2 
L 161.161901 332.2 
L 161.161901 321.312299 
L 159.958513 321.312299 
z
" style="fill:#1f77b4;"/>
   </g>
   <g id="patch_67">
    <path clip-path="url(#p8b2f81c204)" d="M 161.462748 332.2 
L 162.666136 332.2 
L 162.666136 321.312299 
L 161.462748 321.312299 
z
" style="fill:#1f77b4;"/>
   </g>
   <g id="patch_68">
    <path clip-path="url(#p8b2f81c204)" d="M 162.966983 332.2 
L 164.170371 332.2 
L 164.170371 321.312299 
L 162.966983 321.312299 
z
" style="fill:#1f77b4;"/>
   </g>
   <g id="patch_69">
    <path clip-path="url(#p8b2f81c204)" d="M 164.471218 332.2 
L 165.674606 332.2 
L 165.674606 321.312299 
L 164.471218 321.312299 
z
" style="fill:#1f77b4;"/>
   </g>
   <g id="patch_70">
    <path clip-path="url(#p8b2f81c204)" d="M 165.975453 332.2 
L 167.178841 332.2 
L 167.178841 321.312299 
L 165.975453 321.312299 
z
" style="fill:#1f77b4;"/>
   </g>
   <g id="patch_71">
    <path clip-path="url(#p8b2f81c204)" d="M 167.479688 332.2 
L 168.683076 332.2 
L 168.683076 321.312299 
L 167.479688 321.312299 
z
" style="fill:#1f77b4;"/>
   </g>
   <g id="patch_72">
    <path clip-path="url(#p8b2f81c204)" d="M 168.983922 332.2 
L 170.18731 332.2 
L 170.18731 321.312299 
L 168.983922 321.312299 
z
" style="fill:#1f77b4;"/>
   </g>
   <g id="patch_73">
    <path clip-path="url(#p8b2f81c204)" d="M 170.488157 332.2 
L 171.691545 332.2 
L 171.691545 321.312299 
L 170.488157 321.312299 
z
" style="fill:#1f77b4;"/>
   </g>
   <g id="patch_74">
    <path clip-path="url(#p8b2f81c204)" d="M 171.992392 332.2 
L 173.19578 332.2 
L 173.19578 319.756914 
L 171.992392 319.756914 
z
" style="fill:#1f77b4;"/>
   </g>
   <g id="patch_75">
    <path clip-path="url(#p8b2f81c204)" d="M 173.496627 332.2 
L 174.700015 332.2 
L 174.700015 319.756914 
L 173.496627 319.756914 
z
" style="fill:#1f77b4;"/>
   </g>
   <g id="patch_76">
    <path clip-path="url(#p8b2f81c204)" d="M 175.000862 332.2 
L 176.20425 332.2 
L 176.20425 319.756914 
L 175.000862 319.756914 
z
" style="fill:#1f77b4;"/>
   </g>
   <g id="patch_77">
    <path clip-path="url(#p8b2f81c204)" d="M 176.505097 332.2 
L 177.708485 332.2 
L 177.708485 319.756914 
L 176.505097 319.756914 
z
" style="fill:#1f77b4;"/>
   </g>
   <g id="patch_78">
    <path clip-path="url(#p8b2f81c204)" d="M 178.009331 332.2 
L 179.212719 332.2 
L 179.212719 319.756914 
L 178.009331 319.756914 
z
" style="fill:#1f77b4;"/>
   </g>
   <g id="patch_79">
    <path clip-path="url(#p8b2f81c204)" d="M 179.513566 332.2 
L 180.716954 332.2 
L 180.716954 319.756914 
L 179.513566 319.756914 
z
" style="fill:#1f77b4;"/>
   </g>
   <g id="patch_80">
    <path clip-path="url(#p8b2f81c204)" d="M 181.017801 332.2 
L 182.221189 332.2 
L 182.221189 319.756914 
L 181.017801 319.756914 
z
" style="fill:#1f77b4;"/>
   </g>
   <g id="patch_81">
    <path clip-path="url(#p8b2f81c204)" d="M 182.522036 332.2 
L 183.725424 332.2 
L 183.725424 319.756914 
L 182.522036 319.756914 
z
" style="fill:#1f77b4;"/>
   </g>
   <g id="patch_82">
    <path clip-path="url(#p8b2f81c204)" d="M 184.026271 332.2 
L 185.229659 332.2 
L 185.229659 319.756914 
L 184.026271 319.756914 
z
" style="fill:#1f77b4;"/>
   </g>
   <g id="patch_83">
    <path clip-path="url(#p8b2f81c204)" d="M 185.530506 332.2 
L 186.733894 332.2 
L 186.733894 319.756914 
L 185.530506 319.756914 
z
" style="fill:#1f77b4;"/>
   </g>
   <g id="patch_84">
    <path clip-path="url(#p8b2f81c204)" d="M 187.03474 332.2 
L 188.238128 332.2 
L 188.238128 319.756914 
L 187.03474 319.756914 
z
" style="fill:#1f77b4;"/>
   </g>
   <g id="patch_85">
    <path clip-path="url(#p8b2f81c204)" d="M 188.538975 332.2 
L 189.742363 332.2 
L 189.742363 319.756914 
L 188.538975 319.756914 
z
" style="fill:#1f77b4;"/>
   </g>
   <g id="patch_86">
    <path clip-path="url(#p8b2f81c204)" d="M 190.04321 332.2 
L 191.246598 332.2 
L 191.246598 319.756914 
L 190.04321 319.756914 
z
" style="fill:#1f77b4;"/>
   </g>
   <g id="patch_87">
    <path clip-path="url(#p8b2f81c204)" d="M 191.547445 332.2 
L 192.750833 332.2 
L 192.750833 319.756914 
L 191.547445 319.756914 
z
" style="fill:#1f77b4;"/>
   </g>
   <g id="patch_88">
    <path clip-path="url(#p8b2f81c204)" d="M 193.05168 332.2 
L 194.255068 332.2 
L 194.255068 319.756914 
L 193.05168 319.756914 
z
" style="fill:#1f77b4;"/>
   </g>
   <g id="patch_89">
    <path clip-path="url(#p8b2f81c204)" d="M 194.555915 332.2 
L 195.759303 332.2 
L 195.759303 319.756914 
L 194.555915 319.756914 
z
" style="fill:#1f77b4;"/>
   </g>
   <g id="patch_90">
    <path clip-path="url(#p8b2f81c204)" d="M 196.06015 332.2 
L 197.263537 332.2 
L 197.263537 319.756914 
L 196.06015 319.756914 
z
" style="fill:#1f77b4;"/>
   </g>
   <g id="patch_91">
    <path clip-path="url(#p8b2f81c204)" d="M 197.564384 332.2 
L 198.767772 332.2 
L 198.767772 319.756914 
L 197.564384 319.756914 
z
" style="fill:#1f77b4;"/>
   </g>
   <g id="patch_92">
    <path clip-path="url(#p8b2f81c204)" d="M 199.068619 332.2 
L 200.272007 332.2 
L 200.272007 319.756914 
L 199.068619 319.756914 
z
" style="fill:#1f77b4;"/>
   </g>
   <g id="patch_93">
    <path clip-path="url(#p8b2f81c204)" d="M 200.572854 332.2 
L 201.776242 332.2 
L 201.776242 319.756914 
L 200.572854 319.756914 
z
" style="fill:#1f77b4;"/>
   </g>
   <g id="patch_94">
    <path clip-path="url(#p8b2f81c204)" d="M 202.077089 332.2 
L 203.280477 332.2 
L 203.280477 319.756914 
L 202.077089 319.756914 
z
" style="fill:#1f77b4;"/>
   </g>
   <g id="patch_95">
    <path clip-path="url(#p8b2f81c204)" d="M 203.581324 332.2 
L 204.784712 332.2 
L 204.784712 318.201528 
L 203.581324 318.201528 
z
" style="fill:#1f77b4;"/>
   </g>
   <g id="patch_96">
    <path clip-path="url(#p8b2f81c204)" d="M 205.085559 332.2 
L 206.288946 332.2 
L 206.288946 318.201528 
L 205.085559 318.201528 
z
" style="fill:#1f77b4;"/>
   </g>
   <g id="patch_97">
    <path clip-path="url(#p8b2f81c204)" d="M 206.589793 332.2 
L 207.793181 332.2 
L 207.793181 318.201528 
L 206.589793 318.201528 
z
" style="fill:#1f77b4;"/>
   </g>
   <g id="patch_98">
    <path clip-path="url(#p8b2f81c204)" d="M 208.094028 332.2 
L 209.297416 332.2 
L 209.297416 318.201528 
L 208.094028 318.201528 
z
" style="fill:#1f77b4;"/>
   </g>
   <g id="patch_99">
    <path clip-path="url(#p8b2f81c204)" d="M 209.598263 332.2 
L 210.801651 332.2 
L 210.801651 318.201528 
L 209.598263 318.201528 
z
" style="fill:#1f77b4;"/>
   </g>
   <g id="patch_100">
    <path clip-path="url(#p8b2f81c204)" d="M 211.102498 332.2 
L 212.305886 332.2 
L 212.305886 318.201528 
L 211.102498 318.201528 
z
" style="fill:#1f77b4;"/>
   </g>
   <g id="patch_101">
    <path clip-path="url(#p8b2f81c204)" d="M 212.606733 332.2 
L 213.810121 332.2 
L 213.810121 318.201528 
L 212.606733 318.201528 
z
" style="fill:#1f77b4;"/>
   </g>
   <g id="patch_102">
    <path clip-path="url(#p8b2f81c204)" d="M 214.110968 332.2 
L 215.314355 332.2 
L 215.314355 318.201528 
L 214.110968 318.201528 
z
" style="fill:#1f77b4;"/>
   </g>
   <g id="patch_103">
    <path clip-path="url(#p8b2f81c204)" d="M 215.615202 332.2 
L 216.81859 332.2 
L 216.81859 318.201528 
L 215.615202 318.201528 
z
" style="fill:#1f77b4;"/>
   </g>
   <g id="patch_104">
    <path clip-path="url(#p8b2f81c204)" d="M 217.119437 332.2 
L 218.322825 332.2 
L 218.322825 316.646142 
L 217.119437 316.646142 
z
" style="fill:#1f77b4;"/>
   </g>
   <g id="patch_105">
    <path clip-path="url(#p8b2f81c204)" d="M 218.623672 332.2 
L 219.82706 332.2 
L 219.82706 316.646142 
L 218.623672 316.646142 
z
" style="fill:#1f77b4;"/>
   </g>
   <g id="patch_106">
    <path clip-path="url(#p8b2f81c204)" d="M 220.127907 332.2 
L 221.331295 332.2 
L 221.331295 316.646142 
L 220.127907 316.646142 
z
" style="fill:#1f77b4;"/>
   </g>
   <g id="patch_107">
    <path clip-path="url(#p8b2f81c204)" d="M 221.632142 332.2 
L 222.83553 332.2 
L 222.83553 316.646142 
L 221.632142 316.646142 
z
" style="fill:#1f77b4;"/>
   </g>
   <g id="patch_108">
    <path clip-path="url(#p8b2f81c204)" d="M 223.136377 332.2 
L 224.339764 332.2 
L 224.339764 316.646142 
L 223.136377 316.646142 
z
" style="fill:#1f77b4;"/>
   </g>
   <g id="patch_109">
    <path clip-path="url(#p8b2f81c204)" d="M 224.640611 332.2 
L 225.843999 332.2 
L 225.843999 316.646142 
L 224.640611 316.646142 
z
" style="fill:#1f77b4;"/>
   </g>
   <g id="patch_110">
    <path clip-path="url(#p8b2f81c204)" d="M 226.144846 332.2 
L 227.348234 332.2 
L 227.348234 316.646142 
L 226.144846 316.646142 
z
" style="fill:#1f77b4;"/>
   </g>
   <g id="patch_111">
    <path clip-path="url(#p8b2f81c204)" d="M 227.649081 332.2 
L 228.852469 332.2 
L 228.852469 316.646142 
L 227.649081 316.646142 
z
" style="fill:#1f77b4;"/>
   </g>
   <g id="patch_112">
    <path clip-path="url(#p8b2f81c204)" d="M 229.153316 332.2 
L 230.356704 332.2 
L 230.356704 316.646142 
L 229.153316 316.646142 
z
" style="fill:#1f77b4;"/>
   </g>
   <g id="patch_113">
    <path clip-path="url(#p8b2f81c204)" d="M 230.657551 332.2 
L 231.860939 332.2 
L 231.860939 315.090756 
L 230.657551 315.090756 
z
" style="fill:#1f77b4;"/>
   </g>
   <g id="patch_114">
    <path clip-path="url(#p8b2f81c204)" d="M 232.161786 332.2 
L 233.365173 332.2 
L 233.365173 315.090756 
L 232.161786 315.090756 
z
" style="fill:#1f77b4;"/>
   </g>
   <g id="patch_115">
    <path clip-path="url(#p8b2f81c204)" d="M 233.66602 332.2 
L 234.869408 332.2 
L 234.869408 315.090756 
L 233.66602 315.090756 
z
" style="fill:#1f77b4;"/>
   </g>
   <g id="patch_116">
    <path clip-path="url(#p8b2f81c204)" d="M 235.170255 332.2 
L 236.373643 332.2 
L 236.373643 315.090756 
L 235.170255 315.090756 
z
" style="fill:#1f77b4;"/>
   </g>
   <g id="patch_117">
    <path clip-path="url(#p8b2f81c204)" d="M 236.67449 332.2 
L 237.877878 332.2 
L 237.877878 315.090756 
L 236.67449 315.090756 
z
" style="fill:#1f77b4;"/>
   </g>
   <g id="patch_118">
    <path clip-path="url(#p8b2f81c204)" d="M 238.178725 332.2 
L 239.382113 332.2 
L 239.382113 315.090756 
L 238.178725 315.090756 
z
" style="fill:#1f77b4;"/>
   </g>
   <g id="patch_119">
    <path clip-path="url(#p8b2f81c204)" d="M 239.68296 332.2 
L 240.886348 332.2 
L 240.886348 315.090756 
L 239.68296 315.090756 
z
" style="fill:#1f77b4;"/>
   </g>
   <g id="patch_120">
    <path clip-path="url(#p8b2f81c204)" d="M 241.187195 332.2 
L 242.390582 332.2 
L 242.390582 313.535371 
L 241.187195 313.535371 
z
" style="fill:#1f77b4;"/>
   </g>
   <g id="patch_121">
    <path clip-path="url(#p8b2f81c204)" d="M 242.691429 332.2 
L 243.894817 332.2 
L 243.894817 313.535371 
L 242.691429 313.535371 
z
" style="fill:#1f77b4;"/>
   </g>
   <g id="patch_122">
    <path clip-path="url(#p8b2f81c204)" d="M 244.195664 332.2 
L 245.399052 332.2 
L 245.399052 313.535371 
L 244.195664 313.535371 
z
" style="fill:#1f77b4;"/>
   </g>
   <g id="patch_123">
    <path clip-path="url(#p8b2f81c204)" d="M 245.699899 332.2 
L 246.903287 332.2 
L 246.903287 313.535371 
L 245.699899 313.535371 
z
" style="fill:#1f77b4;"/>
   </g>
   <g id="patch_124">
    <path clip-path="url(#p8b2f81c204)" d="M 247.204134 332.2 
L 248.407522 332.2 
L 248.407522 311.979985 
L 247.204134 311.979985 
z
" style="fill:#1f77b4;"/>
   </g>
   <g id="patch_125">
    <path clip-path="url(#p8b2f81c204)" d="M 248.708369 332.2 
L 249.911757 332.2 
L 249.911757 310.424599 
L 248.708369 310.424599 
z
" style="fill:#1f77b4;"/>
   </g>
   <g id="patch_126">
    <path clip-path="url(#p8b2f81c204)" d="M 250.212604 332.2 
L 251.415991 332.2 
L 251.415991 310.424599 
L 250.212604 310.424599 
z
" style="fill:#1f77b4;"/>
   </g>
   <g id="patch_127">
    <path clip-path="url(#p8b2f81c204)" d="M 251.716838 332.2 
L 252.920226 332.2 
L 252.920226 310.424599 
L 251.716838 310.424599 
z
" style="fill:#1f77b4;"/>
   </g>
   <g id="patch_128">
    <path clip-path="url(#p8b2f81c204)" d="M 253.221073 332.2 
L 254.424461 332.2 
L 254.424461 310.424599 
L 253.221073 310.424599 
z
" style="fill:#1f77b4;"/>
   </g>
   <g id="patch_129">
    <path clip-path="url(#p8b2f81c204)" d="M 254.725308 332.2 
L 255.928696 332.2 
L 255.928696 310.424599 
L 254.725308 310.424599 
z
" style="fill:#1f77b4;"/>
   </g>
   <g id="patch_130">
    <path clip-path="url(#p8b2f81c204)" d="M 256.229543 332.2 
L 257.432931 332.2 
L 257.432931 308.869213 
L 256.229543 308.869213 
z
" style="fill:#1f77b4;"/>
   </g>
   <g id="patch_131">
    <path clip-path="url(#p8b2f81c204)" d="M 257.733778 332.2 
L 258.937166 332.2 
L 258.937166 308.869213 
L 257.733778 308.869213 
z
" style="fill:#1f77b4;"/>
   </g>
   <g id="patch_132">
    <path clip-path="url(#p8b2f81c204)" d="M 259.238013 332.2 
L 260.4414 332.2 
L 260.4414 307.313827 
L 259.238013 307.313827 
z
" style="fill:#1f77b4;"/>
   </g>
   <g id="patch_133">
    <path clip-path="url(#p8b2f81c204)" d="M 260.742247 332.2 
L 261.945635 332.2 
L 261.945635 307.313827 
L 260.742247 307.313827 
z
" style="fill:#1f77b4;"/>
   </g>
   <g id="patch_134">
    <path clip-path="url(#p8b2f81c204)" d="M 262.246482 332.2 
L 263.44987 332.2 
L 263.44987 305.758442 
L 262.246482 305.758442 
z
" style="fill:#1f77b4;"/>
   </g>
   <g id="patch_135">
    <path clip-path="url(#p8b2f81c204)" d="M 263.750717 332.2 
L 264.954105 332.2 
L 264.954105 305.758442 
L 263.750717 305.758442 
z
" style="fill:#1f77b4;"/>
   </g>
   <g id="patch_136">
    <path clip-path="url(#p8b2f81c204)" d="M 265.254952 332.2 
L 266.45834 332.2 
L 266.45834 302.64767 
L 265.254952 302.64767 
z
" style="fill:#1f77b4;"/>
   </g>
   <g id="patch_137">
    <path clip-path="url(#p8b2f81c204)" d="M 266.759187 332.2 
L 267.962575 332.2 
L 267.962575 299.536898 
L 266.759187 299.536898 
z
" style="fill:#1f77b4;"/>
   </g>
   <g id="patch_138">
    <path clip-path="url(#p8b2f81c204)" d="M 268.263422 332.2 
L 269.466809 332.2 
L 269.466809 299.536898 
L 268.263422 299.536898 
z
" style="fill:#1f77b4;"/>
   </g>
   <g id="patch_139">
    <path clip-path="url(#p8b2f81c204)" d="M 269.767656 332.2 
L 270.971044 332.2 
L 270.971044 297.981513 
L 269.767656 297.981513 
z
" style="fill:#1f77b4;"/>
   </g>
   <g id="patch_140">
    <path clip-path="url(#p8b2f81c204)" d="M 271.271891 332.2 
L 272.475279 332.2 
L 272.475279 296.426127 
L 271.271891 296.426127 
z
" style="fill:#1f77b4;"/>
   </g>
   <g id="patch_141">
    <path clip-path="url(#p8b2f81c204)" d="M 272.776126 332.2 
L 273.979514 332.2 
L 273.979514 294.870741 
L 272.776126 294.870741 
z
" style="fill:#1f77b4;"/>
   </g>
   <g id="patch_142">
    <path clip-path="url(#p8b2f81c204)" d="M 274.280361 332.2 
L 275.483749 332.2 
L 275.483749 288.649198 
L 274.280361 288.649198 
z
" style="fill:#1f77b4;"/>
   </g>
   <g id="patch_143">
    <path clip-path="url(#p8b2f81c204)" d="M 275.784596 332.2 
L 276.987984 332.2 
L 276.987984 287.093812 
L 275.784596 287.093812 
z
" style="fill:#1f77b4;"/>
   </g>
   <g id="patch_144">
    <path clip-path="url(#p8b2f81c204)" d="M 277.288831 332.2 
L 278.492218 332.2 
L 278.492218 282.427655 
L 277.288831 282.427655 
z
" style="fill:#1f77b4;"/>
   </g>
   <g id="patch_145">
    <path clip-path="url(#p8b2f81c204)" d="M 278.793065 332.2 
L 279.996453 332.2 
L 279.996453 277.761497 
L 278.793065 277.761497 
z
" style="fill:#1f77b4;"/>
   </g>
   <g id="patch_146">
    <path clip-path="url(#p8b2f81c204)" d="M 280.2973 332.2 
L 281.500688 332.2 
L 281.500688 277.761497 
L 280.2973 277.761497 
z
" style="fill:#1f77b4;"/>
   </g>
   <g id="patch_147">
    <path clip-path="url(#p8b2f81c204)" d="M 281.801535 332.2 
L 283.004923 332.2 
L 283.004923 268.429183 
L 281.801535 268.429183 
z
" style="fill:#1f77b4;"/>
   </g>
   <g id="patch_148">
    <path clip-path="url(#p8b2f81c204)" d="M 283.30577 332.2 
L 284.509158 332.2 
L 284.509158 268.429183 
L 283.30577 268.429183 
z
" style="fill:#1f77b4;"/>
   </g>
   <g id="patch_149">
    <path clip-path="url(#p8b2f81c204)" d="M 284.810005 332.2 
L 286.013393 332.2 
L 286.013393 260.652254 
L 284.810005 260.652254 
z
" style="fill:#1f77b4;"/>
   </g>
   <g id="patch_150">
    <path clip-path="url(#p8b2f81c204)" d="M 286.31424 332.2 
L 287.517627 332.2 
L 287.517627 259.096868 
L 286.31424 259.096868 
z
" style="fill:#1f77b4;"/>
   </g>
   <g id="patch_151">
    <path clip-path="url(#p8b2f81c204)" d="M 287.818474 332.2 
L 289.021862 332.2 
L 289.021862 255.986096 
L 287.818474 255.986096 
z
" style="fill:#1f77b4;"/>
   </g>
   <g id="patch_152">
    <path clip-path="url(#p8b2f81c204)" d="M 289.322709 332.2 
L 290.526097 332.2 
L 290.526097 41.342857 
L 289.322709 41.342857 
z
" style="fill:#1f77b4;"/>
   </g>
   <g id="matplotlib.axis_1">
    <g id="xtick_1">
     <g id="line2d_1">
      <defs>
       <path d="M 0 0 
L 0 3.5 
" id="md6ff71752d" style="stroke:#000000;stroke-width:0.8;"/>
      </defs>
      <g>
       <use style="stroke:#000000;stroke-width:0.8;" x="65.793413" xlink:href="#md6ff71752d" y="332.2"/>
      </g>
     </g>
     <g id="text_1">
      <!-- 0 -->
      <g transform="translate(62.612163 346.798438)scale(0.1 -0.1)">
       <defs>
        <path d="M 31.78125 66.40625 
Q 24.171875 66.40625 20.328125 58.90625 
Q 16.5 51.421875 16.5 36.375 
Q 16.5 21.390625 20.328125 13.890625 
Q 24.171875 6.390625 31.78125 6.390625 
Q 39.453125 6.390625 43.28125 13.890625 
Q 47.125 21.390625 47.125 36.375 
Q 47.125 51.421875 43.28125 58.90625 
Q 39.453125 66.40625 31.78125 66.40625 
z
M 31.78125 74.21875 
Q 44.046875 74.21875 50.515625 64.515625 
Q 56.984375 54.828125 56.984375 36.375 
Q 56.984375 17.96875 50.515625 8.265625 
Q 44.046875 -1.421875 31.78125 -1.421875 
Q 19.53125 -1.421875 13.0625 8.265625 
Q 6.59375 17.96875 6.59375 36.375 
Q 6.59375 54.828125 13.0625 64.515625 
Q 19.53125 74.21875 31.78125 74.21875 
z
" id="DejaVuSans-48"/>
       </defs>
       <use xlink:href="#DejaVuSans-48"/>
      </g>
     </g>
    </g>
    <g id="xtick_2">
     <g id="line2d_2">
      <g>
       <use style="stroke:#000000;stroke-width:0.8;" x="103.399284" xlink:href="#md6ff71752d" y="332.2"/>
      </g>
     </g>
     <g id="text_2">
      <!-- 25 -->
      <g transform="translate(97.036784 346.798438)scale(0.1 -0.1)">
       <defs>
        <path d="M 19.1875 8.296875 
L 53.609375 8.296875 
L 53.609375 0 
L 7.328125 0 
L 7.328125 8.296875 
Q 12.9375 14.109375 22.625 23.890625 
Q 32.328125 33.6875 34.8125 36.53125 
Q 39.546875 41.84375 41.421875 45.53125 
Q 43.3125 49.21875 43.3125 52.78125 
Q 43.3125 58.59375 39.234375 62.25 
Q 35.15625 65.921875 28.609375 65.921875 
Q 23.96875 65.921875 18.8125 64.3125 
Q 13.671875 62.703125 7.8125 59.421875 
L 7.8125 69.390625 
Q 13.765625 71.78125 18.9375 73 
Q 24.125 74.21875 28.421875 74.21875 
Q 39.75 74.21875 46.484375 68.546875 
Q 53.21875 62.890625 53.21875 53.421875 
Q 53.21875 48.921875 51.53125 44.890625 
Q 49.859375 40.875 45.40625 35.40625 
Q 44.1875 33.984375 37.640625 27.21875 
Q 31.109375 20.453125 19.1875 8.296875 
z
" id="DejaVuSans-50"/>
        <path d="M 10.796875 72.90625 
L 49.515625 72.90625 
L 49.515625 64.59375 
L 19.828125 64.59375 
L 19.828125 46.734375 
Q 21.96875 47.46875 24.109375 47.828125 
Q 26.265625 48.1875 28.421875 48.1875 
Q 40.625 48.1875 47.75 41.5 
Q 54.890625 34.8125 54.890625 23.390625 
Q 54.890625 11.625 47.5625 5.09375 
Q 40.234375 -1.421875 26.90625 -1.421875 
Q 22.3125 -1.421875 17.546875 -0.640625 
Q 12.796875 0.140625 7.71875 1.703125 
L 7.71875 11.625 
Q 12.109375 9.234375 16.796875 8.0625 
Q 21.484375 6.890625 26.703125 6.890625 
Q 35.15625 6.890625 40.078125 11.328125 
Q 45.015625 15.765625 45.015625 23.390625 
Q 45.015625 31 40.078125 35.4375 
Q 35.15625 39.890625 26.703125 39.890625 
Q 22.75 39.890625 18.8125 39.015625 
Q 14.890625 38.140625 10.796875 36.28125 
z
" id="DejaVuSans-53"/>
       </defs>
       <use xlink:href="#DejaVuSans-50"/>
       <use x="63.623047" xlink:href="#DejaVuSans-53"/>
      </g>
     </g>
    </g>
    <g id="xtick_3">
     <g id="line2d_3">
      <g>
       <use style="stroke:#000000;stroke-width:0.8;" x="141.005155" xlink:href="#md6ff71752d" y="332.2"/>
      </g>
     </g>
     <g id="text_3">
      <!-- 50 -->
      <g transform="translate(134.642655 346.798438)scale(0.1 -0.1)">
       <use xlink:href="#DejaVuSans-53"/>
       <use x="63.623047" xlink:href="#DejaVuSans-48"/>
      </g>
     </g>
    </g>
    <g id="xtick_4">
     <g id="line2d_4">
      <g>
       <use style="stroke:#000000;stroke-width:0.8;" x="178.611025" xlink:href="#md6ff71752d" y="332.2"/>
      </g>
     </g>
     <g id="text_4">
      <!-- 75 -->
      <g transform="translate(172.248525 346.798438)scale(0.1 -0.1)">
       <defs>
        <path d="M 8.203125 72.90625 
L 55.078125 72.90625 
L 55.078125 68.703125 
L 28.609375 0 
L 18.3125 0 
L 43.21875 64.59375 
L 8.203125 64.59375 
z
" id="DejaVuSans-55"/>
       </defs>
       <use xlink:href="#DejaVuSans-55"/>
       <use x="63.623047" xlink:href="#DejaVuSans-53"/>
      </g>
     </g>
    </g>
    <g id="xtick_5">
     <g id="line2d_5">
      <g>
       <use style="stroke:#000000;stroke-width:0.8;" x="216.216896" xlink:href="#md6ff71752d" y="332.2"/>
      </g>
     </g>
     <g id="text_5">
      <!-- 100 -->
      <g transform="translate(206.673146 346.798438)scale(0.1 -0.1)">
       <defs>
        <path d="M 12.40625 8.296875 
L 28.515625 8.296875 
L 28.515625 63.921875 
L 10.984375 60.40625 
L 10.984375 69.390625 
L 28.421875 72.90625 
L 38.28125 72.90625 
L 38.28125 8.296875 
L 54.390625 8.296875 
L 54.390625 0 
L 12.40625 0 
z
" id="DejaVuSans-49"/>
       </defs>
       <use xlink:href="#DejaVuSans-49"/>
       <use x="63.623047" xlink:href="#DejaVuSans-48"/>
       <use x="127.246094" xlink:href="#DejaVuSans-48"/>
      </g>
     </g>
    </g>
    <g id="xtick_6">
     <g id="line2d_6">
      <g>
       <use style="stroke:#000000;stroke-width:0.8;" x="253.822767" xlink:href="#md6ff71752d" y="332.2"/>
      </g>
     </g>
     <g id="text_6">
      <!-- 125 -->
      <g transform="translate(244.279017 346.798438)scale(0.1 -0.1)">
       <use xlink:href="#DejaVuSans-49"/>
       <use x="63.623047" xlink:href="#DejaVuSans-50"/>
       <use x="127.246094" xlink:href="#DejaVuSans-53"/>
      </g>
     </g>
    </g>
    <g id="xtick_7">
     <g id="line2d_7">
      <g>
       <use style="stroke:#000000;stroke-width:0.8;" x="291.428638" xlink:href="#md6ff71752d" y="332.2"/>
      </g>
     </g>
     <g id="text_7">
      <!-- 150 -->
      <g transform="translate(281.884888 346.798438)scale(0.1 -0.1)">
       <use xlink:href="#DejaVuSans-49"/>
       <use x="63.623047" xlink:href="#DejaVuSans-53"/>
       <use x="127.246094" xlink:href="#DejaVuSans-48"/>
      </g>
     </g>
    </g>
   </g>
   <g id="matplotlib.axis_2">
    <g id="ytick_1">
     <g id="line2d_8">
      <defs>
       <path d="M 0 0 
L -3.5 0 
" id="m8a3363ec0a" style="stroke:#000000;stroke-width:0.8;"/>
      </defs>
      <g>
       <use style="stroke:#000000;stroke-width:0.8;" x="53.925" xlink:href="#m8a3363ec0a" y="332.2"/>
      </g>
     </g>
     <g id="text_8">
      <!-- 0 -->
      <g transform="translate(40.5625 335.999219)scale(0.1 -0.1)">
       <use xlink:href="#DejaVuSans-48"/>
      </g>
     </g>
    </g>
    <g id="ytick_2">
     <g id="line2d_9">
      <g>
       <use style="stroke:#000000;stroke-width:0.8;" x="53.925" xlink:href="#m8a3363ec0a" y="293.315355"/>
      </g>
     </g>
     <g id="text_9">
      <!-- 25 -->
      <g transform="translate(34.2 297.114574)scale(0.1 -0.1)">
       <use xlink:href="#DejaVuSans-50"/>
       <use x="63.623047" xlink:href="#DejaVuSans-53"/>
      </g>
     </g>
    </g>
    <g id="ytick_3">
     <g id="line2d_10">
      <g>
       <use style="stroke:#000000;stroke-width:0.8;" x="53.925" xlink:href="#m8a3363ec0a" y="254.43071"/>
      </g>
     </g>
     <g id="text_10">
      <!-- 50 -->
      <g transform="translate(34.2 258.229929)scale(0.1 -0.1)">
       <use xlink:href="#DejaVuSans-53"/>
       <use x="63.623047" xlink:href="#DejaVuSans-48"/>
      </g>
     </g>
    </g>
    <g id="ytick_4">
     <g id="line2d_11">
      <g>
       <use style="stroke:#000000;stroke-width:0.8;" x="53.925" xlink:href="#m8a3363ec0a" y="215.546066"/>
      </g>
     </g>
     <g id="text_11">
      <!-- 75 -->
      <g transform="translate(34.2 219.345284)scale(0.1 -0.1)">
       <use xlink:href="#DejaVuSans-55"/>
       <use x="63.623047" xlink:href="#DejaVuSans-53"/>
      </g>
     </g>
    </g>
    <g id="ytick_5">
     <g id="line2d_12">
      <g>
       <use style="stroke:#000000;stroke-width:0.8;" x="53.925" xlink:href="#m8a3363ec0a" y="176.661421"/>
      </g>
     </g>
     <g id="text_12">
      <!-- 100 -->
      <g transform="translate(27.8375 180.46064)scale(0.1 -0.1)">
       <use xlink:href="#DejaVuSans-49"/>
       <use x="63.623047" xlink:href="#DejaVuSans-48"/>
       <use x="127.246094" xlink:href="#DejaVuSans-48"/>
      </g>
     </g>
    </g>
    <g id="ytick_6">
     <g id="line2d_13">
      <g>
       <use style="stroke:#000000;stroke-width:0.8;" x="53.925" xlink:href="#m8a3363ec0a" y="137.776776"/>
      </g>
     </g>
     <g id="text_13">
      <!-- 125 -->
      <g transform="translate(27.8375 141.575995)scale(0.1 -0.1)">
       <use xlink:href="#DejaVuSans-49"/>
       <use x="63.623047" xlink:href="#DejaVuSans-50"/>
       <use x="127.246094" xlink:href="#DejaVuSans-53"/>
      </g>
     </g>
    </g>
    <g id="ytick_7">
     <g id="line2d_14">
      <g>
       <use style="stroke:#000000;stroke-width:0.8;" x="53.925" xlink:href="#m8a3363ec0a" y="98.892131"/>
      </g>
     </g>
     <g id="text_14">
      <!-- 150 -->
      <g transform="translate(27.8375 102.69135)scale(0.1 -0.1)">
       <use xlink:href="#DejaVuSans-49"/>
       <use x="63.623047" xlink:href="#DejaVuSans-53"/>
       <use x="127.246094" xlink:href="#DejaVuSans-48"/>
      </g>
     </g>
    </g>
    <g id="ytick_8">
     <g id="line2d_15">
      <g>
       <use style="stroke:#000000;stroke-width:0.8;" x="53.925" xlink:href="#m8a3363ec0a" y="60.007487"/>
      </g>
     </g>
     <g id="text_15">
      <!-- 175 -->
      <g transform="translate(27.8375 63.806705)scale(0.1 -0.1)">
       <use xlink:href="#DejaVuSans-49"/>
       <use x="63.623047" xlink:href="#DejaVuSans-55"/>
       <use x="127.246094" xlink:href="#DejaVuSans-53"/>
      </g>
     </g>
    </g>
    <g id="text_16">
     <!-- Number of pairs -->
     <g transform="translate(21.341875 227.945313)rotate(-90)scale(0.12 -0.12)">
      <defs>
       <path d="M 9.8125 72.90625 
L 23.09375 72.90625 
L 55.421875 11.921875 
L 55.421875 72.90625 
L 64.984375 72.90625 
L 64.984375 0 
L 51.703125 0 
L 19.390625 60.984375 
L 19.390625 0 
L 9.8125 0 
z
" id="DejaVuSans-78"/>
       <path d="M 8.5 21.578125 
L 8.5 54.6875 
L 17.484375 54.6875 
L 17.484375 21.921875 
Q 17.484375 14.15625 20.5 10.265625 
Q 23.53125 6.390625 29.59375 6.390625 
Q 36.859375 6.390625 41.078125 11.03125 
Q 45.3125 15.671875 45.3125 23.6875 
L 45.3125 54.6875 
L 54.296875 54.6875 
L 54.296875 0 
L 45.3125 0 
L 45.3125 8.40625 
Q 42.046875 3.421875 37.71875 1 
Q 33.40625 -1.421875 27.6875 -1.421875 
Q 18.265625 -1.421875 13.375 4.4375 
Q 8.5 10.296875 8.5 21.578125 
z
M 31.109375 56 
z
" id="DejaVuSans-117"/>
       <path d="M 52 44.1875 
Q 55.375 50.25 60.0625 53.125 
Q 64.75 56 71.09375 56 
Q 79.640625 56 84.28125 50.015625 
Q 88.921875 44.046875 88.921875 33.015625 
L 88.921875 0 
L 79.890625 0 
L 79.890625 32.71875 
Q 79.890625 40.578125 77.09375 44.375 
Q 74.3125 48.1875 68.609375 48.1875 
Q 61.625 48.1875 57.5625 43.546875 
Q 53.515625 38.921875 53.515625 30.90625 
L 53.515625 0 
L 44.484375 0 
L 44.484375 32.71875 
Q 44.484375 40.625 41.703125 44.40625 
Q 38.921875 48.1875 33.109375 48.1875 
Q 26.21875 48.1875 22.15625 43.53125 
Q 18.109375 38.875 18.109375 30.90625 
L 18.109375 0 
L 9.078125 0 
L 9.078125 54.6875 
L 18.109375 54.6875 
L 18.109375 46.1875 
Q 21.1875 51.21875 25.484375 53.609375 
Q 29.78125 56 35.6875 56 
Q 41.65625 56 45.828125 52.96875 
Q 50 49.953125 52 44.1875 
z
" id="DejaVuSans-109"/>
       <path d="M 48.6875 27.296875 
Q 48.6875 37.203125 44.609375 42.84375 
Q 40.53125 48.484375 33.40625 48.484375 
Q 26.265625 48.484375 22.1875 42.84375 
Q 18.109375 37.203125 18.109375 27.296875 
Q 18.109375 17.390625 22.1875 11.75 
Q 26.265625 6.109375 33.40625 6.109375 
Q 40.53125 6.109375 44.609375 11.75 
Q 48.6875 17.390625 48.6875 27.296875 
z
M 18.109375 46.390625 
Q 20.953125 51.265625 25.265625 53.625 
Q 29.59375 56 35.59375 56 
Q 45.5625 56 51.78125 48.09375 
Q 58.015625 40.1875 58.015625 27.296875 
Q 58.015625 14.40625 51.78125 6.484375 
Q 45.5625 -1.421875 35.59375 -1.421875 
Q 29.59375 -1.421875 25.265625 0.953125 
Q 20.953125 3.328125 18.109375 8.203125 
L 18.109375 0 
L 9.078125 0 
L 9.078125 75.984375 
L 18.109375 75.984375 
z
" id="DejaVuSans-98"/>
       <path d="M 56.203125 29.59375 
L 56.203125 25.203125 
L 14.890625 25.203125 
Q 15.484375 15.921875 20.484375 11.0625 
Q 25.484375 6.203125 34.421875 6.203125 
Q 39.59375 6.203125 44.453125 7.46875 
Q 49.3125 8.734375 54.109375 11.28125 
L 54.109375 2.78125 
Q 49.265625 0.734375 44.1875 -0.34375 
Q 39.109375 -1.421875 33.890625 -1.421875 
Q 20.796875 -1.421875 13.15625 6.1875 
Q 5.515625 13.8125 5.515625 26.8125 
Q 5.515625 40.234375 12.765625 48.109375 
Q 20.015625 56 32.328125 56 
Q 43.359375 56 49.78125 48.890625 
Q 56.203125 41.796875 56.203125 29.59375 
z
M 47.21875 32.234375 
Q 47.125 39.59375 43.09375 43.984375 
Q 39.0625 48.390625 32.421875 48.390625 
Q 24.90625 48.390625 20.390625 44.140625 
Q 15.875 39.890625 15.1875 32.171875 
z
" id="DejaVuSans-101"/>
       <path d="M 41.109375 46.296875 
Q 39.59375 47.171875 37.8125 47.578125 
Q 36.03125 48 33.890625 48 
Q 26.265625 48 22.1875 43.046875 
Q 18.109375 38.09375 18.109375 28.8125 
L 18.109375 0 
L 9.078125 0 
L 9.078125 54.6875 
L 18.109375 54.6875 
L 18.109375 46.1875 
Q 20.953125 51.171875 25.484375 53.578125 
Q 30.03125 56 36.53125 56 
Q 37.453125 56 38.578125 55.875 
Q 39.703125 55.765625 41.0625 55.515625 
z
" id="DejaVuSans-114"/>
       <path id="DejaVuSans-32"/>
       <path d="M 30.609375 48.390625 
Q 23.390625 48.390625 19.1875 42.75 
Q 14.984375 37.109375 14.984375 27.296875 
Q 14.984375 17.484375 19.15625 11.84375 
Q 23.34375 6.203125 30.609375 6.203125 
Q 37.796875 6.203125 41.984375 11.859375 
Q 46.1875 17.53125 46.1875 27.296875 
Q 46.1875 37.015625 41.984375 42.703125 
Q 37.796875 48.390625 30.609375 48.390625 
z
M 30.609375 56 
Q 42.328125 56 49.015625 48.375 
Q 55.71875 40.765625 55.71875 27.296875 
Q 55.71875 13.875 49.015625 6.21875 
Q 42.328125 -1.421875 30.609375 -1.421875 
Q 18.84375 -1.421875 12.171875 6.21875 
Q 5.515625 13.875 5.515625 27.296875 
Q 5.515625 40.765625 12.171875 48.375 
Q 18.84375 56 30.609375 56 
z
" id="DejaVuSans-111"/>
       <path d="M 37.109375 75.984375 
L 37.109375 68.5 
L 28.515625 68.5 
Q 23.6875 68.5 21.796875 66.546875 
Q 19.921875 64.59375 19.921875 59.515625 
L 19.921875 54.6875 
L 34.71875 54.6875 
L 34.71875 47.703125 
L 19.921875 47.703125 
L 19.921875 0 
L 10.890625 0 
L 10.890625 47.703125 
L 2.296875 47.703125 
L 2.296875 54.6875 
L 10.890625 54.6875 
L 10.890625 58.5 
Q 10.890625 67.625 15.140625 71.796875 
Q 19.390625 75.984375 28.609375 75.984375 
z
" id="DejaVuSans-102"/>
       <path d="M 18.109375 8.203125 
L 18.109375 -20.796875 
L 9.078125 -20.796875 
L 9.078125 54.6875 
L 18.109375 54.6875 
L 18.109375 46.390625 
Q 20.953125 51.265625 25.265625 53.625 
Q 29.59375 56 35.59375 56 
Q 45.5625 56 51.78125 48.09375 
Q 58.015625 40.1875 58.015625 27.296875 
Q 58.015625 14.40625 51.78125 6.484375 
Q 45.5625 -1.421875 35.59375 -1.421875 
Q 29.59375 -1.421875 25.265625 0.953125 
Q 20.953125 3.328125 18.109375 8.203125 
z
M 48.6875 27.296875 
Q 48.6875 37.203125 44.609375 42.84375 
Q 40.53125 48.484375 33.40625 48.484375 
Q 26.265625 48.484375 22.1875 42.84375 
Q 18.109375 37.203125 18.109375 27.296875 
Q 18.109375 17.390625 22.1875 11.75 
Q 26.265625 6.109375 33.40625 6.109375 
Q 40.53125 6.109375 44.609375 11.75 
Q 48.6875 17.390625 48.6875 27.296875 
z
" id="DejaVuSans-112"/>
       <path d="M 34.28125 27.484375 
Q 23.390625 27.484375 19.1875 25 
Q 14.984375 22.515625 14.984375 16.5 
Q 14.984375 11.71875 18.140625 8.90625 
Q 21.296875 6.109375 26.703125 6.109375 
Q 34.1875 6.109375 38.703125 11.40625 
Q 43.21875 16.703125 43.21875 25.484375 
L 43.21875 27.484375 
z
M 52.203125 31.203125 
L 52.203125 0 
L 43.21875 0 
L 43.21875 8.296875 
Q 40.140625 3.328125 35.546875 0.953125 
Q 30.953125 -1.421875 24.3125 -1.421875 
Q 15.921875 -1.421875 10.953125 3.296875 
Q 6 8.015625 6 15.921875 
Q 6 25.140625 12.171875 29.828125 
Q 18.359375 34.515625 30.609375 34.515625 
L 43.21875 34.515625 
L 43.21875 35.40625 
Q 43.21875 41.609375 39.140625 45 
Q 35.0625 48.390625 27.6875 48.390625 
Q 23 48.390625 18.546875 47.265625 
Q 14.109375 46.140625 10.015625 43.890625 
L 10.015625 52.203125 
Q 14.9375 54.109375 19.578125 55.046875 
Q 24.21875 56 28.609375 56 
Q 40.484375 56 46.34375 49.84375 
Q 52.203125 43.703125 52.203125 31.203125 
z
" id="DejaVuSans-97"/>
       <path d="M 9.421875 54.6875 
L 18.40625 54.6875 
L 18.40625 0 
L 9.421875 0 
z
M 9.421875 75.984375 
L 18.40625 75.984375 
L 18.40625 64.59375 
L 9.421875 64.59375 
z
" id="DejaVuSans-105"/>
       <path d="M 44.28125 53.078125 
L 44.28125 44.578125 
Q 40.484375 46.53125 36.375 47.5 
Q 32.28125 48.484375 27.875 48.484375 
Q 21.1875 48.484375 17.84375 46.4375 
Q 14.5 44.390625 14.5 40.28125 
Q 14.5 37.15625 16.890625 35.375 
Q 19.28125 33.59375 26.515625 31.984375 
L 29.59375 31.296875 
Q 39.15625 29.25 43.1875 25.515625 
Q 47.21875 21.78125 47.21875 15.09375 
Q 47.21875 7.46875 41.1875 3.015625 
Q 35.15625 -1.421875 24.609375 -1.421875 
Q 20.21875 -1.421875 15.453125 -0.5625 
Q 10.6875 0.296875 5.421875 2 
L 5.421875 11.28125 
Q 10.40625 8.6875 15.234375 7.390625 
Q 20.0625 6.109375 24.8125 6.109375 
Q 31.15625 6.109375 34.5625 8.28125 
Q 37.984375 10.453125 37.984375 14.40625 
Q 37.984375 18.0625 35.515625 20.015625 
Q 33.0625 21.96875 24.703125 23.78125 
L 21.578125 24.515625 
Q 13.234375 26.265625 9.515625 29.90625 
Q 5.8125 33.546875 5.8125 39.890625 
Q 5.8125 47.609375 11.28125 51.796875 
Q 16.75 56 26.8125 56 
Q 31.78125 56 36.171875 55.265625 
Q 40.578125 54.546875 44.28125 53.078125 
z
" id="DejaVuSans-115"/>
      </defs>
      <use xlink:href="#DejaVuSans-78"/>
      <use x="74.804688" xlink:href="#DejaVuSans-117"/>
      <use x="138.183594" xlink:href="#DejaVuSans-109"/>
      <use x="235.595703" xlink:href="#DejaVuSans-98"/>
      <use x="299.072266" xlink:href="#DejaVuSans-101"/>
      <use x="360.595703" xlink:href="#DejaVuSans-114"/>
      <use x="401.708984" xlink:href="#DejaVuSans-32"/>
      <use x="433.496094" xlink:href="#DejaVuSans-111"/>
      <use x="494.677734" xlink:href="#DejaVuSans-102"/>
      <use x="529.882812" xlink:href="#DejaVuSans-32"/>
      <use x="561.669922" xlink:href="#DejaVuSans-112"/>
      <use x="625.146484" xlink:href="#DejaVuSans-97"/>
      <use x="686.425781" xlink:href="#DejaVuSans-105"/>
      <use x="714.208984" xlink:href="#DejaVuSans-114"/>
      <use x="755.322266" xlink:href="#DejaVuSans-115"/>
     </g>
    </g>
   </g>
   <g id="patch_153">
    <path d="M 53.925 332.2 
L 53.925 26.8 
" style="fill:none;stroke:#000000;stroke-linecap:square;stroke-linejoin:miter;stroke-width:0.8;"/>
   </g>
   <g id="patch_154">
    <path d="M 301.792816 332.2 
L 301.792816 26.8 
" style="fill:none;stroke:#000000;stroke-linecap:square;stroke-linejoin:miter;stroke-width:0.8;"/>
   </g>
   <g id="patch_155">
    <path d="M 53.925 332.2 
L 301.792816 332.2 
" style="fill:none;stroke:#000000;stroke-linecap:square;stroke-linejoin:miter;stroke-width:0.8;"/>
   </g>
   <g id="patch_156">
    <path d="M 53.925 26.8 
L 301.792816 26.8 
" style="fill:none;stroke:#000000;stroke-linecap:square;stroke-linejoin:miter;stroke-width:0.8;"/>
   </g>
   <g id="text_17">
    <!-- en -->
    <g transform="translate(170.364533 20.8)scale(0.12 -0.12)">
     <defs>
      <path d="M 54.890625 33.015625 
L 54.890625 0 
L 45.90625 0 
L 45.90625 32.71875 
Q 45.90625 40.484375 42.875 44.328125 
Q 39.84375 48.1875 33.796875 48.1875 
Q 26.515625 48.1875 22.3125 43.546875 
Q 18.109375 38.921875 18.109375 30.90625 
L 18.109375 0 
L 9.078125 0 
L 9.078125 54.6875 
L 18.109375 54.6875 
L 18.109375 46.1875 
Q 21.34375 51.125 25.703125 53.5625 
Q 30.078125 56 35.796875 56 
Q 45.21875 56 50.046875 50.171875 
Q 54.890625 44.34375 54.890625 33.015625 
z
" id="DejaVuSans-110"/>
     </defs>
     <use xlink:href="#DejaVuSans-101"/>
     <use x="61.523438" xlink:href="#DejaVuSans-110"/>
    </g>
   </g>
  </g>
  <g id="axes_2">
   <g id="patch_157">
    <path d="M 333.727395 332.2 
L 581.595211 332.2 
L 581.595211 26.8 
L 333.727395 26.8 
z
" style="fill:#ffffff;"/>
   </g>
   <g id="patch_158">
    <path clip-path="url(#p016e13a457)" d="M 344.994114 332.2 
L 346.197501 332.2 
L 346.197501 298.63956 
L 344.994114 298.63956 
z
" style="fill:#1f77b4;"/>
   </g>
   <g id="patch_159">
    <path clip-path="url(#p016e13a457)" d="M 346.498348 332.2 
L 347.701736 332.2 
L 347.701736 298.63956 
L 346.498348 298.63956 
z
" style="fill:#1f77b4;"/>
   </g>
   <g id="patch_160">
    <path clip-path="url(#p016e13a457)" d="M 348.002583 332.2 
L 349.205971 332.2 
L 349.205971 298.63956 
L 348.002583 298.63956 
z
" style="fill:#1f77b4;"/>
   </g>
   <g id="patch_161">
    <path clip-path="url(#p016e13a457)" d="M 349.506818 332.2 
L 350.710206 332.2 
L 350.710206 298.63956 
L 349.506818 298.63956 
z
" style="fill:#1f77b4;"/>
   </g>
   <g id="patch_162">
    <path clip-path="url(#p016e13a457)" d="M 351.011053 332.2 
L 352.214441 332.2 
L 352.214441 298.63956 
L 351.011053 298.63956 
z
" style="fill:#1f77b4;"/>
   </g>
   <g id="patch_163">
    <path clip-path="url(#p016e13a457)" d="M 352.515288 332.2 
L 353.718676 332.2 
L 353.718676 298.63956 
L 352.515288 298.63956 
z
" style="fill:#1f77b4;"/>
   </g>
   <g id="patch_164">
    <path clip-path="url(#p016e13a457)" d="M 354.019523 332.2 
L 355.22291 332.2 
L 355.22291 298.63956 
L 354.019523 298.63956 
z
" style="fill:#1f77b4;"/>
   </g>
   <g id="patch_165">
    <path clip-path="url(#p016e13a457)" d="M 355.523757 332.2 
L 356.727145 332.2 
L 356.727145 298.63956 
L 355.523757 298.63956 
z
" style="fill:#1f77b4;"/>
   </g>
   <g id="patch_166">
    <path clip-path="url(#p016e13a457)" d="M 357.027992 332.2 
L 358.23138 332.2 
L 358.23138 298.63956 
L 357.027992 298.63956 
z
" style="fill:#1f77b4;"/>
   </g>
   <g id="patch_167">
    <path clip-path="url(#p016e13a457)" d="M 358.532227 332.2 
L 359.735615 332.2 
L 359.735615 298.63956 
L 358.532227 298.63956 
z
" style="fill:#1f77b4;"/>
   </g>
   <g id="patch_168">
    <path clip-path="url(#p016e13a457)" d="M 360.036462 332.2 
L 361.23985 332.2 
L 361.23985 298.63956 
L 360.036462 298.63956 
z
" style="fill:#1f77b4;"/>
   </g>
   <g id="patch_169">
    <path clip-path="url(#p016e13a457)" d="M 361.540697 332.2 
L 362.744085 332.2 
L 362.744085 298.63956 
L 361.540697 298.63956 
z
" style="fill:#1f77b4;"/>
   </g>
   <g id="patch_170">
    <path clip-path="url(#p016e13a457)" d="M 363.044932 332.2 
L 364.248319 332.2 
L 364.248319 298.63956 
L 363.044932 298.63956 
z
" style="fill:#1f77b4;"/>
   </g>
   <g id="patch_171">
    <path clip-path="url(#p016e13a457)" d="M 364.549166 332.2 
L 365.752554 332.2 
L 365.752554 298.63956 
L 364.549166 298.63956 
z
" style="fill:#1f77b4;"/>
   </g>
   <g id="patch_172">
    <path clip-path="url(#p016e13a457)" d="M 366.053401 332.2 
L 367.256789 332.2 
L 367.256789 298.63956 
L 366.053401 298.63956 
z
" style="fill:#1f77b4;"/>
   </g>
   <g id="patch_173">
    <path clip-path="url(#p016e13a457)" d="M 367.557636 332.2 
L 368.761024 332.2 
L 368.761024 298.63956 
L 367.557636 298.63956 
z
" style="fill:#1f77b4;"/>
   </g>
   <g id="patch_174">
    <path clip-path="url(#p016e13a457)" d="M 369.061871 332.2 
L 370.265259 332.2 
L 370.265259 298.63956 
L 369.061871 298.63956 
z
" style="fill:#1f77b4;"/>
   </g>
   <g id="patch_175">
    <path clip-path="url(#p016e13a457)" d="M 370.566106 332.2 
L 371.769494 332.2 
L 371.769494 298.63956 
L 370.566106 298.63956 
z
" style="fill:#1f77b4;"/>
   </g>
   <g id="patch_176">
    <path clip-path="url(#p016e13a457)" d="M 372.070341 332.2 
L 373.273728 332.2 
L 373.273728 298.63956 
L 372.070341 298.63956 
z
" style="fill:#1f77b4;"/>
   </g>
   <g id="patch_177">
    <path clip-path="url(#p016e13a457)" d="M 373.574575 332.2 
L 374.777963 332.2 
L 374.777963 298.63956 
L 373.574575 298.63956 
z
" style="fill:#1f77b4;"/>
   </g>
   <g id="patch_178">
    <path clip-path="url(#p016e13a457)" d="M 375.07881 332.2 
L 376.282198 332.2 
L 376.282198 298.63956 
L 375.07881 298.63956 
z
" style="fill:#1f77b4;"/>
   </g>
   <g id="patch_179">
    <path clip-path="url(#p016e13a457)" d="M 376.583045 332.2 
L 377.786433 332.2 
L 377.786433 298.63956 
L 376.583045 298.63956 
z
" style="fill:#1f77b4;"/>
   </g>
   <g id="patch_180">
    <path clip-path="url(#p016e13a457)" d="M 378.08728 332.2 
L 379.290668 332.2 
L 379.290668 298.63956 
L 378.08728 298.63956 
z
" style="fill:#1f77b4;"/>
   </g>
   <g id="patch_181">
    <path clip-path="url(#p016e13a457)" d="M 379.591515 332.2 
L 380.794903 332.2 
L 380.794903 298.63956 
L 379.591515 298.63956 
z
" style="fill:#1f77b4;"/>
   </g>
   <g id="patch_182">
    <path clip-path="url(#p016e13a457)" d="M 381.09575 332.2 
L 382.299137 332.2 
L 382.299137 298.63956 
L 381.09575 298.63956 
z
" style="fill:#1f77b4;"/>
   </g>
   <g id="patch_183">
    <path clip-path="url(#p016e13a457)" d="M 382.599984 332.2 
L 383.803372 332.2 
L 383.803372 298.63956 
L 382.599984 298.63956 
z
" style="fill:#1f77b4;"/>
   </g>
   <g id="patch_184">
    <path clip-path="url(#p016e13a457)" d="M 384.104219 332.2 
L 385.307607 332.2 
L 385.307607 298.63956 
L 384.104219 298.63956 
z
" style="fill:#1f77b4;"/>
   </g>
   <g id="patch_185">
    <path clip-path="url(#p016e13a457)" d="M 385.608454 332.2 
L 386.811842 332.2 
L 386.811842 298.63956 
L 385.608454 298.63956 
z
" style="fill:#1f77b4;"/>
   </g>
   <g id="patch_186">
    <path clip-path="url(#p016e13a457)" d="M 387.112689 332.2 
L 388.316077 332.2 
L 388.316077 298.63956 
L 387.112689 298.63956 
z
" style="fill:#1f77b4;"/>
   </g>
   <g id="patch_187">
    <path clip-path="url(#p016e13a457)" d="M 388.616924 332.2 
L 389.820312 332.2 
L 389.820312 298.63956 
L 388.616924 298.63956 
z
" style="fill:#1f77b4;"/>
   </g>
   <g id="patch_188">
    <path clip-path="url(#p016e13a457)" d="M 390.121159 332.2 
L 391.324546 332.2 
L 391.324546 298.63956 
L 390.121159 298.63956 
z
" style="fill:#1f77b4;"/>
   </g>
   <g id="patch_189">
    <path clip-path="url(#p016e13a457)" d="M 391.625393 332.2 
L 392.828781 332.2 
L 392.828781 287.452747 
L 391.625393 287.452747 
z
" style="fill:#1f77b4;"/>
   </g>
   <g id="patch_190">
    <path clip-path="url(#p016e13a457)" d="M 393.129628 332.2 
L 394.333016 332.2 
L 394.333016 287.452747 
L 393.129628 287.452747 
z
" style="fill:#1f77b4;"/>
   </g>
   <g id="patch_191">
    <path clip-path="url(#p016e13a457)" d="M 394.633863 332.2 
L 395.837251 332.2 
L 395.837251 287.452747 
L 394.633863 287.452747 
z
" style="fill:#1f77b4;"/>
   </g>
   <g id="patch_192">
    <path clip-path="url(#p016e13a457)" d="M 396.138098 332.2 
L 397.341486 332.2 
L 397.341486 287.452747 
L 396.138098 287.452747 
z
" style="fill:#1f77b4;"/>
   </g>
   <g id="patch_193">
    <path clip-path="url(#p016e13a457)" d="M 397.642333 332.2 
L 398.845721 332.2 
L 398.845721 287.452747 
L 397.642333 287.452747 
z
" style="fill:#1f77b4;"/>
   </g>
   <g id="patch_194">
    <path clip-path="url(#p016e13a457)" d="M 399.146568 332.2 
L 400.349955 332.2 
L 400.349955 287.452747 
L 399.146568 287.452747 
z
" style="fill:#1f77b4;"/>
   </g>
   <g id="patch_195">
    <path clip-path="url(#p016e13a457)" d="M 400.650802 332.2 
L 401.85419 332.2 
L 401.85419 287.452747 
L 400.650802 287.452747 
z
" style="fill:#1f77b4;"/>
   </g>
   <g id="patch_196">
    <path clip-path="url(#p016e13a457)" d="M 402.155037 332.2 
L 403.358425 332.2 
L 403.358425 287.452747 
L 402.155037 287.452747 
z
" style="fill:#1f77b4;"/>
   </g>
   <g id="patch_197">
    <path clip-path="url(#p016e13a457)" d="M 403.659272 332.2 
L 404.86266 332.2 
L 404.86266 287.452747 
L 403.659272 287.452747 
z
" style="fill:#1f77b4;"/>
   </g>
   <g id="patch_198">
    <path clip-path="url(#p016e13a457)" d="M 405.163507 332.2 
L 406.366895 332.2 
L 406.366895 287.452747 
L 405.163507 287.452747 
z
" style="fill:#1f77b4;"/>
   </g>
   <g id="patch_199">
    <path clip-path="url(#p016e13a457)" d="M 406.667742 332.2 
L 407.87113 332.2 
L 407.87113 287.452747 
L 406.667742 287.452747 
z
" style="fill:#1f77b4;"/>
   </g>
   <g id="patch_200">
    <path clip-path="url(#p016e13a457)" d="M 408.171977 332.2 
L 409.375364 332.2 
L 409.375364 287.452747 
L 408.171977 287.452747 
z
" style="fill:#1f77b4;"/>
   </g>
   <g id="patch_201">
    <path clip-path="url(#p016e13a457)" d="M 409.676211 332.2 
L 410.879599 332.2 
L 410.879599 287.452747 
L 409.676211 287.452747 
z
" style="fill:#1f77b4;"/>
   </g>
   <g id="patch_202">
    <path clip-path="url(#p016e13a457)" d="M 411.180446 332.2 
L 412.383834 332.2 
L 412.383834 287.452747 
L 411.180446 287.452747 
z
" style="fill:#1f77b4;"/>
   </g>
   <g id="patch_203">
    <path clip-path="url(#p016e13a457)" d="M 412.684681 332.2 
L 413.888069 332.2 
L 413.888069 287.452747 
L 412.684681 287.452747 
z
" style="fill:#1f77b4;"/>
   </g>
   <g id="patch_204">
    <path clip-path="url(#p016e13a457)" d="M 414.188916 332.2 
L 415.392304 332.2 
L 415.392304 287.452747 
L 414.188916 287.452747 
z
" style="fill:#1f77b4;"/>
   </g>
   <g id="patch_205">
    <path clip-path="url(#p016e13a457)" d="M 415.693151 332.2 
L 416.896539 332.2 
L 416.896539 287.452747 
L 415.693151 287.452747 
z
" style="fill:#1f77b4;"/>
   </g>
   <g id="patch_206">
    <path clip-path="url(#p016e13a457)" d="M 417.197386 332.2 
L 418.400773 332.2 
L 418.400773 287.452747 
L 417.197386 287.452747 
z
" style="fill:#1f77b4;"/>
   </g>
   <g id="patch_207">
    <path clip-path="url(#p016e13a457)" d="M 418.70162 332.2 
L 419.905008 332.2 
L 419.905008 287.452747 
L 418.70162 287.452747 
z
" style="fill:#1f77b4;"/>
   </g>
   <g id="patch_208">
    <path clip-path="url(#p016e13a457)" d="M 420.205855 332.2 
L 421.409243 332.2 
L 421.409243 287.452747 
L 420.205855 287.452747 
z
" style="fill:#1f77b4;"/>
   </g>
   <g id="patch_209">
    <path clip-path="url(#p016e13a457)" d="M 421.71009 332.2 
L 422.913478 332.2 
L 422.913478 287.452747 
L 421.71009 287.452747 
z
" style="fill:#1f77b4;"/>
   </g>
   <g id="patch_210">
    <path clip-path="url(#p016e13a457)" d="M 423.214325 332.2 
L 424.417713 332.2 
L 424.417713 287.452747 
L 423.214325 287.452747 
z
" style="fill:#1f77b4;"/>
   </g>
   <g id="patch_211">
    <path clip-path="url(#p016e13a457)" d="M 424.71856 332.2 
L 425.921948 332.2 
L 425.921948 287.452747 
L 424.71856 287.452747 
z
" style="fill:#1f77b4;"/>
   </g>
   <g id="patch_212">
    <path clip-path="url(#p016e13a457)" d="M 426.222795 332.2 
L 427.426182 332.2 
L 427.426182 287.452747 
L 426.222795 287.452747 
z
" style="fill:#1f77b4;"/>
   </g>
   <g id="patch_213">
    <path clip-path="url(#p016e13a457)" d="M 427.727029 332.2 
L 428.930417 332.2 
L 428.930417 276.265934 
L 427.727029 276.265934 
z
" style="fill:#1f77b4;"/>
   </g>
   <g id="patch_214">
    <path clip-path="url(#p016e13a457)" d="M 429.231264 332.2 
L 430.434652 332.2 
L 430.434652 276.265934 
L 429.231264 276.265934 
z
" style="fill:#1f77b4;"/>
   </g>
   <g id="patch_215">
    <path clip-path="url(#p016e13a457)" d="M 430.735499 332.2 
L 431.938887 332.2 
L 431.938887 276.265934 
L 430.735499 276.265934 
z
" style="fill:#1f77b4;"/>
   </g>
   <g id="patch_216">
    <path clip-path="url(#p016e13a457)" d="M 432.239734 332.2 
L 433.443122 332.2 
L 433.443122 276.265934 
L 432.239734 276.265934 
z
" style="fill:#1f77b4;"/>
   </g>
   <g id="patch_217">
    <path clip-path="url(#p016e13a457)" d="M 433.743969 332.2 
L 434.947357 332.2 
L 434.947357 276.265934 
L 433.743969 276.265934 
z
" style="fill:#1f77b4;"/>
   </g>
   <g id="patch_218">
    <path clip-path="url(#p016e13a457)" d="M 435.248204 332.2 
L 436.451592 332.2 
L 436.451592 276.265934 
L 435.248204 276.265934 
z
" style="fill:#1f77b4;"/>
   </g>
   <g id="patch_219">
    <path clip-path="url(#p016e13a457)" d="M 436.752438 332.2 
L 437.955826 332.2 
L 437.955826 276.265934 
L 436.752438 276.265934 
z
" style="fill:#1f77b4;"/>
   </g>
   <g id="patch_220">
    <path clip-path="url(#p016e13a457)" d="M 438.256673 332.2 
L 439.460061 332.2 
L 439.460061 276.265934 
L 438.256673 276.265934 
z
" style="fill:#1f77b4;"/>
   </g>
   <g id="patch_221">
    <path clip-path="url(#p016e13a457)" d="M 439.760908 332.2 
L 440.964296 332.2 
L 440.964296 276.265934 
L 439.760908 276.265934 
z
" style="fill:#1f77b4;"/>
   </g>
   <g id="patch_222">
    <path clip-path="url(#p016e13a457)" d="M 441.265143 332.2 
L 442.468531 332.2 
L 442.468531 276.265934 
L 441.265143 276.265934 
z
" style="fill:#1f77b4;"/>
   </g>
   <g id="patch_223">
    <path clip-path="url(#p016e13a457)" d="M 442.769378 332.2 
L 443.972766 332.2 
L 443.972766 276.265934 
L 442.769378 276.265934 
z
" style="fill:#1f77b4;"/>
   </g>
   <g id="patch_224">
    <path clip-path="url(#p016e13a457)" d="M 444.273613 332.2 
L 445.477001 332.2 
L 445.477001 276.265934 
L 444.273613 276.265934 
z
" style="fill:#1f77b4;"/>
   </g>
   <g id="patch_225">
    <path clip-path="url(#p016e13a457)" d="M 445.777847 332.2 
L 446.981235 332.2 
L 446.981235 276.265934 
L 445.777847 276.265934 
z
" style="fill:#1f77b4;"/>
   </g>
   <g id="patch_226">
    <path clip-path="url(#p016e13a457)" d="M 447.282082 332.2 
L 448.48547 332.2 
L 448.48547 276.265934 
L 447.282082 276.265934 
z
" style="fill:#1f77b4;"/>
   </g>
   <g id="patch_227">
    <path clip-path="url(#p016e13a457)" d="M 448.786317 332.2 
L 449.989705 332.2 
L 449.989705 276.265934 
L 448.786317 276.265934 
z
" style="fill:#1f77b4;"/>
   </g>
   <g id="patch_228">
    <path clip-path="url(#p016e13a457)" d="M 450.290552 332.2 
L 451.49394 332.2 
L 451.49394 276.265934 
L 450.290552 276.265934 
z
" style="fill:#1f77b4;"/>
   </g>
   <g id="patch_229">
    <path clip-path="url(#p016e13a457)" d="M 451.794787 332.2 
L 452.998175 332.2 
L 452.998175 276.265934 
L 451.794787 276.265934 
z
" style="fill:#1f77b4;"/>
   </g>
   <g id="patch_230">
    <path clip-path="url(#p016e13a457)" d="M 453.299022 332.2 
L 454.50241 332.2 
L 454.50241 276.265934 
L 453.299022 276.265934 
z
" style="fill:#1f77b4;"/>
   </g>
   <g id="patch_231">
    <path clip-path="url(#p016e13a457)" d="M 454.803256 332.2 
L 456.006644 332.2 
L 456.006644 276.265934 
L 454.803256 276.265934 
z
" style="fill:#1f77b4;"/>
   </g>
   <g id="patch_232">
    <path clip-path="url(#p016e13a457)" d="M 456.307491 332.2 
L 457.510879 332.2 
L 457.510879 276.265934 
L 456.307491 276.265934 
z
" style="fill:#1f77b4;"/>
   </g>
   <g id="patch_233">
    <path clip-path="url(#p016e13a457)" d="M 457.811726 332.2 
L 459.015114 332.2 
L 459.015114 276.265934 
L 457.811726 276.265934 
z
" style="fill:#1f77b4;"/>
   </g>
   <g id="patch_234">
    <path clip-path="url(#p016e13a457)" d="M 459.315961 332.2 
L 460.519349 332.2 
L 460.519349 276.265934 
L 459.315961 276.265934 
z
" style="fill:#1f77b4;"/>
   </g>
   <g id="patch_235">
    <path clip-path="url(#p016e13a457)" d="M 460.820196 332.2 
L 462.023584 332.2 
L 462.023584 276.265934 
L 460.820196 276.265934 
z
" style="fill:#1f77b4;"/>
   </g>
   <g id="patch_236">
    <path clip-path="url(#p016e13a457)" d="M 462.324431 332.2 
L 463.527819 332.2 
L 463.527819 276.265934 
L 462.324431 276.265934 
z
" style="fill:#1f77b4;"/>
   </g>
   <g id="patch_237">
    <path clip-path="url(#p016e13a457)" d="M 463.828665 332.2 
L 465.032053 332.2 
L 465.032053 276.265934 
L 463.828665 276.265934 
z
" style="fill:#1f77b4;"/>
   </g>
   <g id="patch_238">
    <path clip-path="url(#p016e13a457)" d="M 465.3329 332.2 
L 466.536288 332.2 
L 466.536288 276.265934 
L 465.3329 276.265934 
z
" style="fill:#1f77b4;"/>
   </g>
   <g id="patch_239">
    <path clip-path="url(#p016e13a457)" d="M 466.837135 332.2 
L 468.040523 332.2 
L 468.040523 276.265934 
L 466.837135 276.265934 
z
" style="fill:#1f77b4;"/>
   </g>
   <g id="patch_240">
    <path clip-path="url(#p016e13a457)" d="M 468.34137 332.2 
L 469.544758 332.2 
L 469.544758 276.265934 
L 468.34137 276.265934 
z
" style="fill:#1f77b4;"/>
   </g>
   <g id="patch_241">
    <path clip-path="url(#p016e13a457)" d="M 469.845605 332.2 
L 471.048993 332.2 
L 471.048993 276.265934 
L 469.845605 276.265934 
z
" style="fill:#1f77b4;"/>
   </g>
   <g id="patch_242">
    <path clip-path="url(#p016e13a457)" d="M 471.34984 332.2 
L 472.553228 332.2 
L 472.553228 276.265934 
L 471.34984 276.265934 
z
" style="fill:#1f77b4;"/>
   </g>
   <g id="patch_243">
    <path clip-path="url(#p016e13a457)" d="M 472.854074 332.2 
L 474.057462 332.2 
L 474.057462 276.265934 
L 472.854074 276.265934 
z
" style="fill:#1f77b4;"/>
   </g>
   <g id="patch_244">
    <path clip-path="url(#p016e13a457)" d="M 474.358309 332.2 
L 475.561697 332.2 
L 475.561697 265.079121 
L 474.358309 265.079121 
z
" style="fill:#1f77b4;"/>
   </g>
   <g id="patch_245">
    <path clip-path="url(#p016e13a457)" d="M 475.862544 332.2 
L 477.065932 332.2 
L 477.065932 265.079121 
L 475.862544 265.079121 
z
" style="fill:#1f77b4;"/>
   </g>
   <g id="patch_246">
    <path clip-path="url(#p016e13a457)" d="M 477.366779 332.2 
L 478.570167 332.2 
L 478.570167 265.079121 
L 477.366779 265.079121 
z
" style="fill:#1f77b4;"/>
   </g>
   <g id="patch_247">
    <path clip-path="url(#p016e13a457)" d="M 478.871014 332.2 
L 480.074402 332.2 
L 480.074402 265.079121 
L 478.871014 265.079121 
z
" style="fill:#1f77b4;"/>
   </g>
   <g id="patch_248">
    <path clip-path="url(#p016e13a457)" d="M 480.375249 332.2 
L 481.578637 332.2 
L 481.578637 265.079121 
L 480.375249 265.079121 
z
" style="fill:#1f77b4;"/>
   </g>
   <g id="patch_249">
    <path clip-path="url(#p016e13a457)" d="M 481.879484 332.2 
L 483.082871 332.2 
L 483.082871 265.079121 
L 481.879484 265.079121 
z
" style="fill:#1f77b4;"/>
   </g>
   <g id="patch_250">
    <path clip-path="url(#p016e13a457)" d="M 483.383718 332.2 
L 484.587106 332.2 
L 484.587106 265.079121 
L 483.383718 265.079121 
z
" style="fill:#1f77b4;"/>
   </g>
   <g id="patch_251">
    <path clip-path="url(#p016e13a457)" d="M 484.887953 332.2 
L 486.091341 332.2 
L 486.091341 265.079121 
L 484.887953 265.079121 
z
" style="fill:#1f77b4;"/>
   </g>
   <g id="patch_252">
    <path clip-path="url(#p016e13a457)" d="M 486.392188 332.2 
L 487.595576 332.2 
L 487.595576 265.079121 
L 486.392188 265.079121 
z
" style="fill:#1f77b4;"/>
   </g>
   <g id="patch_253">
    <path clip-path="url(#p016e13a457)" d="M 487.896423 332.2 
L 489.099811 332.2 
L 489.099811 265.079121 
L 487.896423 265.079121 
z
" style="fill:#1f77b4;"/>
   </g>
   <g id="patch_254">
    <path clip-path="url(#p016e13a457)" d="M 489.400658 332.2 
L 490.604046 332.2 
L 490.604046 265.079121 
L 489.400658 265.079121 
z
" style="fill:#1f77b4;"/>
   </g>
   <g id="patch_255">
    <path clip-path="url(#p016e13a457)" d="M 490.904893 332.2 
L 492.10828 332.2 
L 492.10828 265.079121 
L 490.904893 265.079121 
z
" style="fill:#1f77b4;"/>
   </g>
   <g id="patch_256">
    <path clip-path="url(#p016e13a457)" d="M 492.409127 332.2 
L 493.612515 332.2 
L 493.612515 265.079121 
L 492.409127 265.079121 
z
" style="fill:#1f77b4;"/>
   </g>
   <g id="patch_257">
    <path clip-path="url(#p016e13a457)" d="M 493.913362 332.2 
L 495.11675 332.2 
L 495.11675 265.079121 
L 493.913362 265.079121 
z
" style="fill:#1f77b4;"/>
   </g>
   <g id="patch_258">
    <path clip-path="url(#p016e13a457)" d="M 495.417597 332.2 
L 496.620985 332.2 
L 496.620985 265.079121 
L 495.417597 265.079121 
z
" style="fill:#1f77b4;"/>
   </g>
   <g id="patch_259">
    <path clip-path="url(#p016e13a457)" d="M 496.921832 332.2 
L 498.12522 332.2 
L 498.12522 265.079121 
L 496.921832 265.079121 
z
" style="fill:#1f77b4;"/>
   </g>
   <g id="patch_260">
    <path clip-path="url(#p016e13a457)" d="M 498.426067 332.2 
L 499.629455 332.2 
L 499.629455 265.079121 
L 498.426067 265.079121 
z
" style="fill:#1f77b4;"/>
   </g>
   <g id="patch_261">
    <path clip-path="url(#p016e13a457)" d="M 499.930302 332.2 
L 501.133689 332.2 
L 501.133689 265.079121 
L 499.930302 265.079121 
z
" style="fill:#1f77b4;"/>
   </g>
   <g id="patch_262">
    <path clip-path="url(#p016e13a457)" d="M 501.434536 332.2 
L 502.637924 332.2 
L 502.637924 265.079121 
L 501.434536 265.079121 
z
" style="fill:#1f77b4;"/>
   </g>
   <g id="patch_263">
    <path clip-path="url(#p016e13a457)" d="M 502.938771 332.2 
L 504.142159 332.2 
L 504.142159 265.079121 
L 502.938771 265.079121 
z
" style="fill:#1f77b4;"/>
   </g>
   <g id="patch_264">
    <path clip-path="url(#p016e13a457)" d="M 504.443006 332.2 
L 505.646394 332.2 
L 505.646394 265.079121 
L 504.443006 265.079121 
z
" style="fill:#1f77b4;"/>
   </g>
   <g id="patch_265">
    <path clip-path="url(#p016e13a457)" d="M 505.947241 332.2 
L 507.150629 332.2 
L 507.150629 265.079121 
L 505.947241 265.079121 
z
" style="fill:#1f77b4;"/>
   </g>
   <g id="patch_266">
    <path clip-path="url(#p016e13a457)" d="M 507.451476 332.2 
L 508.654864 332.2 
L 508.654864 265.079121 
L 507.451476 265.079121 
z
" style="fill:#1f77b4;"/>
   </g>
   <g id="patch_267">
    <path clip-path="url(#p016e13a457)" d="M 508.955711 332.2 
L 510.159098 332.2 
L 510.159098 265.079121 
L 508.955711 265.079121 
z
" style="fill:#1f77b4;"/>
   </g>
   <g id="patch_268">
    <path clip-path="url(#p016e13a457)" d="M 510.459945 332.2 
L 511.663333 332.2 
L 511.663333 253.892308 
L 510.459945 253.892308 
z
" style="fill:#1f77b4;"/>
   </g>
   <g id="patch_269">
    <path clip-path="url(#p016e13a457)" d="M 511.96418 332.2 
L 513.167568 332.2 
L 513.167568 253.892308 
L 511.96418 253.892308 
z
" style="fill:#1f77b4;"/>
   </g>
   <g id="patch_270">
    <path clip-path="url(#p016e13a457)" d="M 513.468415 332.2 
L 514.671803 332.2 
L 514.671803 253.892308 
L 513.468415 253.892308 
z
" style="fill:#1f77b4;"/>
   </g>
   <g id="patch_271">
    <path clip-path="url(#p016e13a457)" d="M 514.97265 332.2 
L 516.176038 332.2 
L 516.176038 253.892308 
L 514.97265 253.892308 
z
" style="fill:#1f77b4;"/>
   </g>
   <g id="patch_272">
    <path clip-path="url(#p016e13a457)" d="M 516.476885 332.2 
L 517.680273 332.2 
L 517.680273 253.892308 
L 516.476885 253.892308 
z
" style="fill:#1f77b4;"/>
   </g>
   <g id="patch_273">
    <path clip-path="url(#p016e13a457)" d="M 517.98112 332.2 
L 519.184507 332.2 
L 519.184507 253.892308 
L 517.98112 253.892308 
z
" style="fill:#1f77b4;"/>
   </g>
   <g id="patch_274">
    <path clip-path="url(#p016e13a457)" d="M 519.485354 332.2 
L 520.688742 332.2 
L 520.688742 253.892308 
L 519.485354 253.892308 
z
" style="fill:#1f77b4;"/>
   </g>
   <g id="patch_275">
    <path clip-path="url(#p016e13a457)" d="M 520.989589 332.2 
L 522.192977 332.2 
L 522.192977 253.892308 
L 520.989589 253.892308 
z
" style="fill:#1f77b4;"/>
   </g>
   <g id="patch_276">
    <path clip-path="url(#p016e13a457)" d="M 522.493824 332.2 
L 523.697212 332.2 
L 523.697212 253.892308 
L 522.493824 253.892308 
z
" style="fill:#1f77b4;"/>
   </g>
   <g id="patch_277">
    <path clip-path="url(#p016e13a457)" d="M 523.998059 332.2 
L 525.201447 332.2 
L 525.201447 253.892308 
L 523.998059 253.892308 
z
" style="fill:#1f77b4;"/>
   </g>
   <g id="patch_278">
    <path clip-path="url(#p016e13a457)" d="M 525.502294 332.2 
L 526.705682 332.2 
L 526.705682 242.705495 
L 525.502294 242.705495 
z
" style="fill:#1f77b4;"/>
   </g>
   <g id="patch_279">
    <path clip-path="url(#p016e13a457)" d="M 527.006529 332.2 
L 528.209916 332.2 
L 528.209916 242.705495 
L 527.006529 242.705495 
z
" style="fill:#1f77b4;"/>
   </g>
   <g id="patch_280">
    <path clip-path="url(#p016e13a457)" d="M 528.510763 332.2 
L 529.714151 332.2 
L 529.714151 242.705495 
L 528.510763 242.705495 
z
" style="fill:#1f77b4;"/>
   </g>
   <g id="patch_281">
    <path clip-path="url(#p016e13a457)" d="M 530.014998 332.2 
L 531.218386 332.2 
L 531.218386 242.705495 
L 530.014998 242.705495 
z
" style="fill:#1f77b4;"/>
   </g>
   <g id="patch_282">
    <path clip-path="url(#p016e13a457)" d="M 531.519233 332.2 
L 532.722621 332.2 
L 532.722621 242.705495 
L 531.519233 242.705495 
z
" style="fill:#1f77b4;"/>
   </g>
   <g id="patch_283">
    <path clip-path="url(#p016e13a457)" d="M 533.023468 332.2 
L 534.226856 332.2 
L 534.226856 242.705495 
L 533.023468 242.705495 
z
" style="fill:#1f77b4;"/>
   </g>
   <g id="patch_284">
    <path clip-path="url(#p016e13a457)" d="M 534.527703 332.2 
L 535.731091 332.2 
L 535.731091 242.705495 
L 534.527703 242.705495 
z
" style="fill:#1f77b4;"/>
   </g>
   <g id="patch_285">
    <path clip-path="url(#p016e13a457)" d="M 536.031938 332.2 
L 537.235325 332.2 
L 537.235325 231.518681 
L 536.031938 231.518681 
z
" style="fill:#1f77b4;"/>
   </g>
   <g id="patch_286">
    <path clip-path="url(#p016e13a457)" d="M 537.536172 332.2 
L 538.73956 332.2 
L 538.73956 231.518681 
L 537.536172 231.518681 
z
" style="fill:#1f77b4;"/>
   </g>
   <g id="patch_287">
    <path clip-path="url(#p016e13a457)" d="M 539.040407 332.2 
L 540.243795 332.2 
L 540.243795 231.518681 
L 539.040407 231.518681 
z
" style="fill:#1f77b4;"/>
   </g>
   <g id="patch_288">
    <path clip-path="url(#p016e13a457)" d="M 540.544642 332.2 
L 541.74803 332.2 
L 541.74803 231.518681 
L 540.544642 231.518681 
z
" style="fill:#1f77b4;"/>
   </g>
   <g id="patch_289">
    <path clip-path="url(#p016e13a457)" d="M 542.048877 332.2 
L 543.252265 332.2 
L 543.252265 231.518681 
L 542.048877 231.518681 
z
" style="fill:#1f77b4;"/>
   </g>
   <g id="patch_290">
    <path clip-path="url(#p016e13a457)" d="M 543.553112 332.2 
L 544.7565 332.2 
L 544.7565 231.518681 
L 543.553112 231.518681 
z
" style="fill:#1f77b4;"/>
   </g>
   <g id="patch_291">
    <path clip-path="url(#p016e13a457)" d="M 545.057347 332.2 
L 546.260734 332.2 
L 546.260734 231.518681 
L 545.057347 231.518681 
z
" style="fill:#1f77b4;"/>
   </g>
   <g id="patch_292">
    <path clip-path="url(#p016e13a457)" d="M 546.561581 332.2 
L 547.764969 332.2 
L 547.764969 220.331868 
L 546.561581 220.331868 
z
" style="fill:#1f77b4;"/>
   </g>
   <g id="patch_293">
    <path clip-path="url(#p016e13a457)" d="M 548.065816 332.2 
L 549.269204 332.2 
L 549.269204 220.331868 
L 548.065816 220.331868 
z
" style="fill:#1f77b4;"/>
   </g>
   <g id="patch_294">
    <path clip-path="url(#p016e13a457)" d="M 549.570051 332.2 
L 550.773439 332.2 
L 550.773439 220.331868 
L 549.570051 220.331868 
z
" style="fill:#1f77b4;"/>
   </g>
   <g id="patch_295">
    <path clip-path="url(#p016e13a457)" d="M 551.074286 332.2 
L 552.277674 332.2 
L 552.277674 220.331868 
L 551.074286 220.331868 
z
" style="fill:#1f77b4;"/>
   </g>
   <g id="patch_296">
    <path clip-path="url(#p016e13a457)" d="M 552.578521 332.2 
L 553.781909 332.2 
L 553.781909 220.331868 
L 552.578521 220.331868 
z
" style="fill:#1f77b4;"/>
   </g>
   <g id="patch_297">
    <path clip-path="url(#p016e13a457)" d="M 554.082756 332.2 
L 555.286143 332.2 
L 555.286143 220.331868 
L 554.082756 220.331868 
z
" style="fill:#1f77b4;"/>
   </g>
   <g id="patch_298">
    <path clip-path="url(#p016e13a457)" d="M 555.58699 332.2 
L 556.790378 332.2 
L 556.790378 197.958242 
L 555.58699 197.958242 
z
" style="fill:#1f77b4;"/>
   </g>
   <g id="patch_299">
    <path clip-path="url(#p016e13a457)" d="M 557.091225 332.2 
L 558.294613 332.2 
L 558.294613 197.958242 
L 557.091225 197.958242 
z
" style="fill:#1f77b4;"/>
   </g>
   <g id="patch_300">
    <path clip-path="url(#p016e13a457)" d="M 558.59546 332.2 
L 559.798848 332.2 
L 559.798848 197.958242 
L 558.59546 197.958242 
z
" style="fill:#1f77b4;"/>
   </g>
   <g id="patch_301">
    <path clip-path="url(#p016e13a457)" d="M 560.099695 332.2 
L 561.303083 332.2 
L 561.303083 186.771429 
L 560.099695 186.771429 
z
" style="fill:#1f77b4;"/>
   </g>
   <g id="patch_302">
    <path clip-path="url(#p016e13a457)" d="M 561.60393 332.2 
L 562.807318 332.2 
L 562.807318 175.584615 
L 561.60393 175.584615 
z
" style="fill:#1f77b4;"/>
   </g>
   <g id="patch_303">
    <path clip-path="url(#p016e13a457)" d="M 563.108165 332.2 
L 564.311552 332.2 
L 564.311552 153.210989 
L 563.108165 153.210989 
z
" style="fill:#1f77b4;"/>
   </g>
   <g id="patch_304">
    <path clip-path="url(#p016e13a457)" d="M 564.612399 332.2 
L 565.815787 332.2 
L 565.815787 142.024176 
L 564.612399 142.024176 
z
" style="fill:#1f77b4;"/>
   </g>
   <g id="patch_305">
    <path clip-path="url(#p016e13a457)" d="M 566.116634 332.2 
L 567.320022 332.2 
L 567.320022 108.463736 
L 566.116634 108.463736 
z
" style="fill:#1f77b4;"/>
   </g>
   <g id="patch_306">
    <path clip-path="url(#p016e13a457)" d="M 567.620869 332.2 
L 568.824257 332.2 
L 568.824257 97.276923 
L 567.620869 97.276923 
z
" style="fill:#1f77b4;"/>
   </g>
   <g id="patch_307">
    <path clip-path="url(#p016e13a457)" d="M 569.125104 332.2 
L 570.328492 332.2 
L 570.328492 41.342857 
L 569.125104 41.342857 
z
" style="fill:#1f77b4;"/>
   </g>
   <g id="matplotlib.axis_3">
    <g id="xtick_8">
     <g id="line2d_16">
      <g>
       <use style="stroke:#000000;stroke-width:0.8;" x="345.595808" xlink:href="#md6ff71752d" y="332.2"/>
      </g>
     </g>
     <g id="text_18">
      <!-- 0 -->
      <g transform="translate(342.414558 346.798438)scale(0.1 -0.1)">
       <use xlink:href="#DejaVuSans-48"/>
      </g>
     </g>
    </g>
    <g id="xtick_9">
     <g id="line2d_17">
      <g>
       <use style="stroke:#000000;stroke-width:0.8;" x="383.201678" xlink:href="#md6ff71752d" y="332.2"/>
      </g>
     </g>
     <g id="text_19">
      <!-- 25 -->
      <g transform="translate(376.839178 346.798438)scale(0.1 -0.1)">
       <use xlink:href="#DejaVuSans-50"/>
       <use x="63.623047" xlink:href="#DejaVuSans-53"/>
      </g>
     </g>
    </g>
    <g id="xtick_10">
     <g id="line2d_18">
      <g>
       <use style="stroke:#000000;stroke-width:0.8;" x="420.807549" xlink:href="#md6ff71752d" y="332.2"/>
      </g>
     </g>
     <g id="text_20">
      <!-- 50 -->
      <g transform="translate(414.445049 346.798438)scale(0.1 -0.1)">
       <use xlink:href="#DejaVuSans-53"/>
       <use x="63.623047" xlink:href="#DejaVuSans-48"/>
      </g>
     </g>
    </g>
    <g id="xtick_11">
     <g id="line2d_19">
      <g>
       <use style="stroke:#000000;stroke-width:0.8;" x="458.41342" xlink:href="#md6ff71752d" y="332.2"/>
      </g>
     </g>
     <g id="text_21">
      <!-- 75 -->
      <g transform="translate(452.05092 346.798438)scale(0.1 -0.1)">
       <use xlink:href="#DejaVuSans-55"/>
       <use x="63.623047" xlink:href="#DejaVuSans-53"/>
      </g>
     </g>
    </g>
    <g id="xtick_12">
     <g id="line2d_20">
      <g>
       <use style="stroke:#000000;stroke-width:0.8;" x="496.019291" xlink:href="#md6ff71752d" y="332.2"/>
      </g>
     </g>
     <g id="text_22">
      <!-- 100 -->
      <g transform="translate(486.475541 346.798438)scale(0.1 -0.1)">
       <use xlink:href="#DejaVuSans-49"/>
       <use x="63.623047" xlink:href="#DejaVuSans-48"/>
       <use x="127.246094" xlink:href="#DejaVuSans-48"/>
      </g>
     </g>
    </g>
    <g id="xtick_13">
     <g id="line2d_21">
      <g>
       <use style="stroke:#000000;stroke-width:0.8;" x="533.625162" xlink:href="#md6ff71752d" y="332.2"/>
      </g>
     </g>
     <g id="text_23">
      <!-- 125 -->
      <g transform="translate(524.081412 346.798438)scale(0.1 -0.1)">
       <use xlink:href="#DejaVuSans-49"/>
       <use x="63.623047" xlink:href="#DejaVuSans-50"/>
       <use x="127.246094" xlink:href="#DejaVuSans-53"/>
      </g>
     </g>
    </g>
    <g id="xtick_14">
     <g id="line2d_22">
      <g>
       <use style="stroke:#000000;stroke-width:0.8;" x="571.231033" xlink:href="#md6ff71752d" y="332.2"/>
      </g>
     </g>
     <g id="text_24">
      <!-- 150 -->
      <g transform="translate(561.687283 346.798438)scale(0.1 -0.1)">
       <use xlink:href="#DejaVuSans-49"/>
       <use x="63.623047" xlink:href="#DejaVuSans-53"/>
       <use x="127.246094" xlink:href="#DejaVuSans-48"/>
      </g>
     </g>
    </g>
   </g>
   <g id="matplotlib.axis_4">
    <g id="ytick_9">
     <g id="line2d_23">
      <g>
       <use style="stroke:#000000;stroke-width:0.8;" x="333.727395" xlink:href="#m8a3363ec0a" y="332.2"/>
      </g>
     </g>
     <g id="text_25">
      <!-- 0 -->
      <g transform="translate(320.364895 335.999219)scale(0.1 -0.1)">
       <use xlink:href="#DejaVuSans-48"/>
      </g>
     </g>
    </g>
    <g id="ytick_10">
     <g id="line2d_24">
      <g>
       <use style="stroke:#000000;stroke-width:0.8;" x="333.727395" xlink:href="#m8a3363ec0a" y="276.265934"/>
      </g>
     </g>
     <g id="text_26">
      <!-- 5 -->
      <g transform="translate(320.364895 280.065153)scale(0.1 -0.1)">
       <use xlink:href="#DejaVuSans-53"/>
      </g>
     </g>
    </g>
    <g id="ytick_11">
     <g id="line2d_25">
      <g>
       <use style="stroke:#000000;stroke-width:0.8;" x="333.727395" xlink:href="#m8a3363ec0a" y="220.331868"/>
      </g>
     </g>
     <g id="text_27">
      <!-- 10 -->
      <g transform="translate(314.002395 224.131087)scale(0.1 -0.1)">
       <use xlink:href="#DejaVuSans-49"/>
       <use x="63.623047" xlink:href="#DejaVuSans-48"/>
      </g>
     </g>
    </g>
    <g id="ytick_12">
     <g id="line2d_26">
      <g>
       <use style="stroke:#000000;stroke-width:0.8;" x="333.727395" xlink:href="#m8a3363ec0a" y="164.397802"/>
      </g>
     </g>
     <g id="text_28">
      <!-- 15 -->
      <g transform="translate(314.002395 168.197021)scale(0.1 -0.1)">
       <use xlink:href="#DejaVuSans-49"/>
       <use x="63.623047" xlink:href="#DejaVuSans-53"/>
      </g>
     </g>
    </g>
    <g id="ytick_13">
     <g id="line2d_27">
      <g>
       <use style="stroke:#000000;stroke-width:0.8;" x="333.727395" xlink:href="#m8a3363ec0a" y="108.463736"/>
      </g>
     </g>
     <g id="text_29">
      <!-- 20 -->
      <g transform="translate(314.002395 112.262955)scale(0.1 -0.1)">
       <use xlink:href="#DejaVuSans-50"/>
       <use x="63.623047" xlink:href="#DejaVuSans-48"/>
      </g>
     </g>
    </g>
    <g id="ytick_14">
     <g id="line2d_28">
      <g>
       <use style="stroke:#000000;stroke-width:0.8;" x="333.727395" xlink:href="#m8a3363ec0a" y="52.52967"/>
      </g>
     </g>
     <g id="text_30">
      <!-- 25 -->
      <g transform="translate(314.002395 56.328889)scale(0.1 -0.1)">
       <use xlink:href="#DejaVuSans-50"/>
       <use x="63.623047" xlink:href="#DejaVuSans-53"/>
      </g>
     </g>
    </g>
   </g>
   <g id="patch_308">
    <path d="M 333.727395 332.2 
L 333.727395 26.8 
" style="fill:none;stroke:#000000;stroke-linecap:square;stroke-linejoin:miter;stroke-width:0.8;"/>
   </g>
   <g id="patch_309">
    <path d="M 581.595211 332.2 
L 581.595211 26.8 
" style="fill:none;stroke:#000000;stroke-linecap:square;stroke-linejoin:miter;stroke-width:0.8;"/>
   </g>
   <g id="patch_310">
    <path d="M 333.727395 332.2 
L 581.595211 332.2 
" style="fill:none;stroke:#000000;stroke-linecap:square;stroke-linejoin:miter;stroke-width:0.8;"/>
   </g>
   <g id="patch_311">
    <path d="M 333.727395 26.8 
L 581.595211 26.8 
" style="fill:none;stroke:#000000;stroke-linecap:square;stroke-linejoin:miter;stroke-width:0.8;"/>
   </g>
   <g id="text_31">
    <!-- de -->
    <g transform="translate(450.160365 20.8)scale(0.12 -0.12)">
     <defs>
      <path d="M 45.40625 46.390625 
L 45.40625 75.984375 
L 54.390625 75.984375 
L 54.390625 0 
L 45.40625 0 
L 45.40625 8.203125 
Q 42.578125 3.328125 38.25 0.953125 
Q 33.9375 -1.421875 27.875 -1.421875 
Q 17.96875 -1.421875 11.734375 6.484375 
Q 5.515625 14.40625 5.515625 27.296875 
Q 5.515625 40.1875 11.734375 48.09375 
Q 17.96875 56 27.875 56 
Q 33.9375 56 38.25 53.625 
Q 42.578125 51.265625 45.40625 46.390625 
z
M 14.796875 27.296875 
Q 14.796875 17.390625 18.875 11.75 
Q 22.953125 6.109375 30.078125 6.109375 
Q 37.203125 6.109375 41.296875 11.75 
Q 45.40625 17.390625 45.40625 27.296875 
Q 45.40625 37.203125 41.296875 42.84375 
Q 37.203125 48.484375 30.078125 48.484375 
Q 22.953125 48.484375 18.875 42.84375 
Q 14.796875 37.203125 14.796875 27.296875 
z
" id="DejaVuSans-100"/>
     </defs>
     <use xlink:href="#DejaVuSans-100"/>
     <use x="63.476562" xlink:href="#DejaVuSans-101"/>
    </g>
   </g>
  </g>
 </g>
 <defs>
  <clipPath id="p8b2f81c204">
   <rect height="305.4" width="247.867816" x="53.925" y="26.8"/>
  </clipPath>
  <clipPath id="p016e13a457">
   <rect height="305.4" width="247.867816" x="333.727395" y="26.8"/>
  </clipPath>
 </defs>
</svg>
